SplineFontDB: 3.2
FontName: Afacad-Bold
FullName: Afacad Bold
FamilyName: Afacad
Weight: Bold
Copyright: Copyright 2023 The Afacad Project Authors (https://github.com/Dicotype/Afacad)
Version: 1.000
ItalicAngle: 0
UnderlinePosition: -180
UnderlineWidth: 90
Ascent: 1152
Descent: 288
InvalidEm: 0
sfntRevision: 0x00010000
LayerCount: 2
Layer: 0 1 "Back" 1
Layer: 1 1 "Fore" 0
XUID: [1021 837 -1215117077 7588019]
StyleMap: 0x0020
FSType: 0
OS2Version: 4
OS2_WeightWidthSlopeOnly: 0
OS2_UseTypoMetrics: 1
CreationTime: 1690723592
ModificationTime: 1731015749
PfmFamily: 81
TTFWeight: 700
TTFWidth: 5
LineGap: 0
VLineGap: 0
Panose: 0 0 0 0 0 0 0 0 0 0
OS2TypoAscent: 1440
OS2TypoAOffset: 0
OS2TypoDescent: -480
OS2TypoDOffset: 0
OS2TypoLinegap: 0
OS2WinAscent: 1440
OS2WinAOffset: 0
OS2WinDescent: 480
OS2WinDOffset: 0
HheadAscent: 1440
HheadAOffset: 0
HheadDescent: -480
HheadDOffset: 0
OS2SubXSize: 936
OS2SubYSize: 864
OS2SubXOff: 0
OS2SubYOff: 108
OS2SupXSize: 936
OS2SupYSize: 864
OS2SupXOff: 0
OS2SupYOff: 504
OS2StrikeYSize: 90
OS2StrikeYPos: 360
OS2CapHeight: 900
OS2XHeight: 600
OS2Vendor: 'DICO'
OS2CodePages: 20000193.00000000
OS2UnicodeRanges: a10000ff.5000207b.00000000.00000000
Lookup: 1 0 0 "'aalt' Access All Alternates in Latin lookup 0" { "'aalt' Access All Alternates in Latin lookup 0 subtable"  } ['aalt' ('DFLT' <'dflt' > 'latn' <'AZE ' 'CAT ' 'CRT ' 'KAZ ' 'MOL ' 'NLD ' 'ROM ' 'TAT ' 'TRK ' 'dflt' > ) ]
Lookup: 3 0 0 "'aalt' Access All Alternates in Latin lookup 1" { "'aalt' Access All Alternates in Latin lookup 1 subtable"  } ['aalt' ('DFLT' <'dflt' > 'latn' <'AZE ' 'CAT ' 'CRT ' 'KAZ ' 'MOL ' 'NLD ' 'ROM ' 'TAT ' 'TRK ' 'dflt' > ) ]
Lookup: 4 0 0 "'ccmp' Glyph Composition/Decomposition in Latin lookup 2" { "'ccmp' Glyph Composition/Decomposition in Latin lookup 2 subtable"  } ['ccmp' ('DFLT' <'dflt' > 'latn' <'AZE ' 'CAT ' 'CRT ' 'KAZ ' 'MOL ' 'NLD ' 'ROM ' 'TAT ' 'TRK ' 'dflt' > ) ]

StartChar: .notdef
Encoding: 65536 -1 0
Width: 720
GlyphClass: 1
Flags: W
LayerCount: 2
Fore
SplineSet
96 -300 m 1,0,-1
 96 960 l 1,1,-1
 624 960 l 1,2,-1
 624 -300 l 1,3,-1
 96 -300 l 1,0,-1
EndSplineSet
EndChar

StartChar: A
Encoding: 65 65 14
Width: 820
GlyphClass: 2
Flags: W
AnchorPoint: "Anchor-3" 670 0 basechar 0
AnchorPoint: "Anchor-1" 410 0 basechar 0
AnchorPoint: "Anchor-0" 410 900 basechar 0
LayerCount: 2
Fore
SplineSet
12 0 m 1,0,-1
 409 932 l 1,1,-1
 411 932 l 1,2,-1
 808 0 l 1,3,-1
 627 0 l 1,4,-1
 560 160 l 1,5,-1
 254 160 l 1,6,-1
 187 0 l 1,7,-1
 12 0 l 1,0,-1
314 304 m 1,8,-1
 500 304 l 1,9,-1
 461 396 l 2,10,11
 445 433 445 433 431.5 467.5 c 128,-1,12
 418 502 418 502 406 548 c 1,13,14
 395 503 395 503 382 468 c 128,-1,15
 369 433 369 433 353 396 c 2,16,-1
 314 304 l 1,8,-1
EndSplineSet
Substitution2: "Single Substitution lookup 29 subtable" ordfeminine
Substitution2: "'aalt' Access All Alternates in Latin lookup 0 subtable" ordfeminine
EndChar

StartChar: Aogonek
Encoding: 260 260 35
Width: 820
GlyphClass: 1
Flags: W
LayerCount: 2
Fore
SplineSet
736 -318 m 1,0,1
 649 -318 649 -318 592 -278 c 128,-1,2
 535 -238 535 -238 535 -153 c 0,3,4
 535 -120 535 -120 549 -77.5 c 128,-1,5
 563 -35 563 -35 614 31 c 1,6,-1
 560 160 l 1,7,-1
 254 160 l 1,8,-1
 187 0 l 1,9,-1
 12 0 l 1,10,-1
 409 932 l 1,11,-1
 411 932 l 1,12,-1
 808 0 l 1,13,-1
 745 0 l 1,14,15
 719 -29 719 -29 702 -56.5 c 128,-1,16
 685 -84 685 -84 685 -116 c 0,17,18
 685 -153 685 -153 708.5 -171 c 128,-1,19
 732 -189 732 -189 766 -190 c 1,20,-1
 736 -318 l 1,0,1
314 304 m 1,21,-1
 500 304 l 1,22,-1
 461 396 l 2,23,24
 445 433 445 433 431.5 467.5 c 128,-1,25
 418 502 418 502 406 548 c 1,26,27
 395 503 395 503 382 468 c 128,-1,28
 369 433 369 433 353 396 c 2,29,-1
 314 304 l 1,21,-1
EndSplineSet
EndChar

StartChar: Aring
Encoding: 197 197 36
Width: 820
GlyphClass: 1
Flags: W
LayerCount: 2
Fore
SplineSet
12 0 m 1,0,-1
 360 817 l 1,1,2
 308 832 308 832 273.5 876 c 128,-1,3
 239 920 239 920 239 978 c 0,4,5
 239 1049 239 1049 289 1097.5 c 128,-1,6
 339 1146 339 1146 410 1146 c 0,7,8
 457 1146 457 1146 496 1124 c 128,-1,9
 535 1102 535 1102 558 1064 c 128,-1,10
 581 1026 581 1026 581 978 c 0,11,12
 581 920 581 920 547 876 c 128,-1,13
 513 832 513 832 460 817 c 1,14,-1
 808 0 l 1,15,-1
 627 0 l 1,16,-1
 560 160 l 1,17,-1
 254 160 l 1,18,-1
 187 0 l 1,19,-1
 12 0 l 1,0,-1
314 304 m 1,20,-1
 500 304 l 1,21,-1
 461 396 l 2,22,23
 445 433 445 433 431.5 467.5 c 128,-1,24
 418 502 418 502 406 548 c 1,25,26
 395 503 395 503 382 468 c 128,-1,27
 369 433 369 433 353 396 c 2,28,-1
 314 304 l 1,20,-1
410 909 m 256,29,30
 438 909 438 909 458.5 929.5 c 128,-1,31
 479 950 479 950 479 978 c 256,32,33
 479 1006 479 1006 458.5 1026.5 c 128,-1,34
 438 1047 438 1047 410 1047 c 256,35,36
 382 1047 382 1047 361.5 1026.5 c 128,-1,37
 341 1006 341 1006 341 978 c 256,38,39
 341 950 341 950 361.5 929.5 c 128,-1,40
 382 909 382 909 410 909 c 256,29,30
EndSplineSet
EndChar

StartChar: Aringacute
Encoding: 506 506 37
Width: 820
GlyphClass: 1
Flags: W
LayerCount: 2
Fore
SplineSet
12 0 m 1,0,-1
 360 817 l 1,1,2
 308 832 308 832 273.5 876 c 128,-1,3
 239 920 239 920 239 978 c 0,4,5
 239 1049 239 1049 289 1097.5 c 128,-1,6
 339 1146 339 1146 410 1146 c 0,7,8
 457 1146 457 1146 496 1124 c 128,-1,9
 535 1102 535 1102 558 1064 c 128,-1,10
 581 1026 581 1026 581 978 c 0,11,12
 581 920 581 920 547 876 c 128,-1,13
 513 832 513 832 460 817 c 1,14,-1
 808 0 l 1,15,-1
 627 0 l 1,16,-1
 560 160 l 1,17,-1
 254 160 l 1,18,-1
 187 0 l 1,19,-1
 12 0 l 1,0,-1
314 304 m 1,20,-1
 500 304 l 1,21,-1
 461 396 l 2,22,23
 445 433 445 433 431.5 467.5 c 128,-1,24
 418 502 418 502 406 548 c 1,25,26
 395 503 395 503 382 468 c 128,-1,27
 369 433 369 433 353 396 c 2,28,-1
 314 304 l 1,20,-1
410 909 m 256,29,30
 438 909 438 909 458.5 929.5 c 128,-1,31
 479 950 479 950 479 978 c 256,32,33
 479 1006 479 1006 458.5 1026.5 c 128,-1,34
 438 1047 438 1047 410 1047 c 256,35,36
 382 1047 382 1047 361.5 1026.5 c 128,-1,37
 341 1006 341 1006 341 978 c 256,38,39
 341 950 341 950 361.5 929.5 c 128,-1,40
 382 909 382 909 410 909 c 256,29,30
350 1206 m 1,41,-1
 407 1341 l 1,42,-1
 564 1341 l 1,43,-1
 476 1206 l 1,44,-1
 350 1206 l 1,41,-1
EndSplineSet
EndChar

StartChar: AE
Encoding: 198 198 39
Width: 1040
GlyphClass: 2
Flags: W
AnchorPoint: "Anchor-1" 407 0 basechar 0
AnchorPoint: "Anchor-0" 604 900 basechar 0
LayerCount: 2
Fore
SplineSet
12 0 m 1,0,-1
 396 900 l 1,1,-1
 812 900 l 1,2,-1
 812 744 l 1,3,-1
 545 744 l 1,4,-1
 592 606 l 1,5,-1
 842 606 l 1,6,-1
 842 456 l 1,7,-1
 644 456 l 1,8,-1
 745 162 l 1,9,-1
 1016 162 l 1,10,-1
 1016 0 l 1,11,-1
 627 0 l 1,12,-1
 572 160 l 1,13,-1
 254 160 l 1,14,-1
 187 0 l 1,15,-1
 12 0 l 1,0,-1
314 304 m 1,16,-1
 522 304 l 1,17,-1
 490 396 l 2,18,19
 474 441 474 441 458 489 c 128,-1,20
 442 537 442 537 428 597 c 1,21,22
 411 537 411 537 391.5 489 c 128,-1,23
 372 441 372 441 353 396 c 2,24,-1
 314 304 l 1,16,-1
EndSplineSet
EndChar

StartChar: B
Encoding: 66 66 41
Width: 750
GlyphClass: 1
Flags: W
LayerCount: 2
Fore
SplineSet
96 0 m 1,0,-1
 96 900 l 1,1,-1
 378 900 l 2,2,3
 468 900 468 900 521.5 865.5 c 128,-1,4
 575 831 575 831 598 782.5 c 128,-1,5
 621 734 621 734 621 690 c 0,6,7
 621 651 621 651 606 616.5 c 128,-1,8
 591 582 591 582 564 556 c 1,9,10
 626 517 626 517 664 452.5 c 128,-1,11
 702 388 702 388 702 309 c 0,12,13
 702 232 702 232 664 161 c 128,-1,14
 626 90 626 90 551 45 c 128,-1,15
 476 0 476 0 366 0 c 2,16,-1
 96 0 l 1,0,-1
270 162 m 1,17,-1
 348 162 l 2,18,19
 408 162 408 162 444.5 185.5 c 128,-1,20
 481 209 481 209 497.5 244.5 c 128,-1,21
 514 280 514 280 514 315 c 0,22,23
 514 349 514 349 498 384.5 c 128,-1,24
 482 420 482 420 445.5 444 c 128,-1,25
 409 468 409 468 348 468 c 2,26,-1
 270 468 l 1,27,-1
 270 162 l 1,17,-1
270 594 m 1,28,-1
 348 594 l 2,29,30
 395 594 395 594 424 616 c 128,-1,31
 453 638 453 638 453 680 c 0,32,33
 453 724 453 724 424.5 746 c 128,-1,34
 396 768 396 768 352 768 c 2,35,-1
 270 768 l 1,36,-1
 270 594 l 1,28,-1
EndSplineSet
EndChar

StartChar: C
Encoding: 67 67 42
Width: 870
GlyphClass: 2
Flags: W
AnchorPoint: "Anchor-1" 530 0 basechar 0
AnchorPoint: "Anchor-0" 530 900 basechar 0
LayerCount: 2
Fore
SplineSet
726.222222222 671 m 4,0,1
 707.666666667 687.333333333 707.666666667 687.333333333 686 701.5 c 0,2,3
 621 744 621 744 536 744 c 0,4,5
 455 744 455 744 389.5 704.5 c 128,-1,6
 324 665 324 665 286 598.5 c 128,-1,7
 248 532 248 532 248 450 c 0,8,9
 248 369 248 369 286 302 c 128,-1,10
 324 235 324 235 389.5 195.5 c 128,-1,11
 455 156 455 156 536 156 c 0,12,13
 620 156 620 156 685.5 198.5 c 0,14,15
 708.664683448 213.530519794 708.664683448 213.530519794 728.264732448 231 c 0,16,17
 728.264732448 231 728.264732448 231 839 93 c 1,18,19
 776 41 776 41 697.5 11.5 c 128,-1,20
 619 -18 619 -18 530 -18 c 0,21,22
 431 -18 431 -18 345 18.5 c 128,-1,23
 259 55 259 55 193.5 119 c 128,-1,24
 128 183 128 183 91 268 c 128,-1,25
 54 353 54 353 54 450 c 256,26,27
 54 547 54 547 91 632 c 128,-1,28
 128 717 128 717 193.5 781 c 128,-1,29
 259 845 259 845 345 881.5 c 128,-1,30
 431 918 431 918 530 918 c 0,31,32
 619 918 619 918 698 889 c 128,-1,33
 777 860 777 860 839 807 c 5,34,-1
 726.222222222 671 l 4,0,1
EndSplineSet
EndChar

StartChar: Ccedilla
Encoding: 199 199 45
Width: 870
GlyphClass: 1
Flags: W
LayerCount: 2
Fore
SplineSet
256 -192 m 1,0,-1
 444 -10 l 1,1,2
 333 10 333 10 245 75 c 128,-1,3
 157 140 157 140 105.5 237.5 c 128,-1,4
 54 335 54 335 54 450 c 0,5,6
 54 547 54 547 91 632 c 128,-1,7
 128 717 128 717 193.5 781 c 128,-1,8
 259 845 259 845 345 881.5 c 128,-1,9
 431 918 431 918 530 918 c 0,10,11
 619 918 619 918 698 889 c 128,-1,12
 777 860 777 860 839 807 c 1,13,-1
 788 597 l 1,14,15
 751 659 751 659 686 701.5 c 128,-1,16
 621 744 621 744 536 744 c 0,17,18
 455 744 455 744 389.5 704.5 c 128,-1,19
 324 665 324 665 286 598.5 c 128,-1,20
 248 532 248 532 248 450 c 0,21,22
 248 369 248 369 286 302 c 128,-1,23
 324 235 324 235 389.5 195.5 c 128,-1,24
 455 156 455 156 536 156 c 0,25,26
 620 156 620 156 685.5 198.5 c 128,-1,27
 751 241 751 241 788 303 c 1,28,-1
 839 93 l 1,29,30
 788 51 788 51 726.5 23.5 c 128,-1,31
 665 -4 665 -4 595 -14 c 1,32,-1
 471 -192 l 1,33,-1
 256 -192 l 1,0,-1
EndSplineSet
EndChar

StartChar: D
Encoding: 68 68 48
Width: 940
GlyphClass: 2
Flags: W
AnchorPoint: "Anchor-4" 179 480 basechar 0
AnchorPoint: "Anchor-1" 407 0 basechar 0
AnchorPoint: "Anchor-0" 407 900 basechar 0
LayerCount: 2
Fore
SplineSet
96 0 m 1,0,-1
 96 900 l 1,1,-1
 402 900 l 2,2,3
 510 900 510 900 598.5 865 c 128,-1,4
 687 830 687 830 751.5 768.5 c 128,-1,5
 816 707 816 707 851 625 c 128,-1,6
 886 543 886 543 886 450 c 256,7,8
 886 357 886 357 851 275 c 128,-1,9
 816 193 816 193 751.5 131.5 c 128,-1,10
 687 70 687 70 598.5 35 c 128,-1,11
 510 0 510 0 402 0 c 2,12,-1
 96 0 l 1,0,-1
270 162 m 1,13,-1
 386 162 l 2,14,15
 462 162 462 162 520 184.5 c 128,-1,16
 578 207 578 207 617.5 246.5 c 128,-1,17
 657 286 657 286 677.5 338 c 128,-1,18
 698 390 698 390 698 450 c 256,19,20
 698 510 698 510 677.5 562.5 c 128,-1,21
 657 615 657 615 617.5 654.5 c 128,-1,22
 578 694 578 694 520 716 c 128,-1,23
 462 738 462 738 386 738 c 2,24,-1
 270 738 l 1,25,-1
 270 162 l 1,13,-1
EndSplineSet
EndChar

StartChar: Eth
Encoding: 208 208 50
Width: 940
GlyphClass: 1
Flags: W
LayerCount: 2
Fore
SplineSet
96 0 m 1,0,-1
 96 417 l 1,1,-1
 10 417 l 1,2,-1
 10 543 l 1,3,-1
 96 543 l 1,4,-1
 96 900 l 1,5,-1
 402 900 l 2,6,7
 510 900 510 900 598.5 865 c 128,-1,8
 687 830 687 830 751.5 768.5 c 128,-1,9
 816 707 816 707 851 625 c 128,-1,10
 886 543 886 543 886 450 c 256,11,12
 886 357 886 357 851 275 c 128,-1,13
 816 193 816 193 751.5 131.5 c 128,-1,14
 687 70 687 70 598.5 35 c 128,-1,15
 510 0 510 0 402 0 c 2,16,-1
 96 0 l 1,0,-1
270 162 m 1,17,-1
 386 162 l 2,18,19
 462 162 462 162 520 184.5 c 128,-1,20
 578 207 578 207 617.5 246.5 c 128,-1,21
 657 286 657 286 677.5 338 c 128,-1,22
 698 390 698 390 698 450 c 256,23,24
 698 510 698 510 677.5 562.5 c 128,-1,25
 657 615 657 615 617.5 654.5 c 128,-1,26
 578 694 578 694 520 716 c 128,-1,27
 462 738 462 738 386 738 c 2,28,-1
 270 738 l 1,29,-1
 270 543 l 1,30,-1
 490 543 l 1,31,-1
 490 417 l 1,32,-1
 270 417 l 1,33,-1
 270 162 l 1,17,-1
EndSplineSet
EndChar

StartChar: E
Encoding: 69 69 54
Width: 630
GlyphClass: 2
Flags: W
AnchorPoint: "Anchor-3" 502 0 basechar 0
AnchorPoint: "Anchor-1" 348 0 basechar 0
AnchorPoint: "Anchor-0" 348 900 basechar 0
LayerCount: 2
Fore
SplineSet
96 0 m 1,0,-1
 96 900 l 1,1,-1
 576 900 l 1,2,-1
 576 744 l 1,3,-1
 270 744 l 1,4,-1
 270 606 l 1,5,-1
 506 606 l 1,6,-1
 506 456 l 1,7,-1
 270 456 l 1,8,-1
 270 162 l 1,9,-1
 576 162 l 1,10,-1
 576 0 l 1,11,-1
 96 0 l 1,0,-1
EndSplineSet
EndChar

StartChar: Eogonek
Encoding: 280 280 72
Width: 630
GlyphClass: 2
Flags: W
AnchorPoint: "Anchor-0" 336 900 basechar 0
LayerCount: 2
Fore
SplineSet
568 -318 m 1,0,1
 481 -318 481 -318 424 -278 c 128,-1,2
 367 -238 367 -238 367 -153 c 0,3,4
 367 -113 367 -113 383 -75 c 128,-1,5
 399 -37 399 -37 427 0 c 1,6,-1
 96 0 l 1,7,-1
 96 900 l 1,8,-1
 576 900 l 1,9,-1
 576 744 l 1,10,-1
 270 744 l 1,11,-1
 270 606 l 1,12,-1
 506 606 l 1,13,-1
 506 456 l 1,14,-1
 270 456 l 1,15,-1
 270 162 l 1,16,-1
 576 162 l 1,17,-1
 576 0 l 1,18,19
 551 -29 551 -29 534 -56.5 c 128,-1,20
 517 -84 517 -84 517 -116 c 0,21,22
 517 -153 517 -153 540.5 -171 c 128,-1,23
 564 -189 564 -189 598 -190 c 1,24,-1
 568 -318 l 1,0,1
EndSplineSet
EndChar

StartChar: uni018F
Encoding: 399 399 74
Width: 1050
GlyphClass: 1
Flags: W
LayerCount: 2
Fore
SplineSet
520 -18 m 256,0,1
 421 -18 421 -18 335 18.5 c 128,-1,2
 249 55 249 55 183.5 119 c 128,-1,3
 118 183 118 183 81 268 c 128,-1,4
 44 353 44 353 44 450 c 2,5,-1
 44 534 l 1,6,-1
 694 534 l 2,7,8
 722 534 722 534 749.5 532 c 128,-1,9
 777 530 777 530 805 525 c 1,10,11
 789 590 789 590 748 640 c 128,-1,12
 707 690 707 690 648.5 719 c 128,-1,13
 590 748 590 748 520 748 c 0,14,15
 429 748 429 748 362 705.5 c 128,-1,16
 295 663 295 663 257 601 c 1,17,-1
 206 807 l 1,18,19
 268 860 268 860 348 889 c 128,-1,20
 428 918 428 918 520 918 c 0,21,22
 619 918 619 918 705 881.5 c 128,-1,23
 791 845 791 845 856.5 781 c 128,-1,24
 922 717 922 717 959 632 c 128,-1,25
 996 547 996 547 996 450 c 256,26,27
 996 353 996 353 959 268 c 128,-1,28
 922 183 922 183 856.5 119 c 128,-1,29
 791 55 791 55 705 18.5 c 128,-1,30
 619 -18 619 -18 520 -18 c 256,0,1
520 150 m 0,31,32
 593 150 593 150 653.5 182 c 128,-1,33
 714 214 714 214 755 269.5 c 128,-1,34
 796 325 796 325 809 394 c 1,35,36
 781 390 781 390 752 387 c 128,-1,37
 723 384 723 384 694 384 c 2,38,-1
 233 384 l 1,39,40
 248 317 248 317 288.5 264 c 128,-1,41
 329 211 329 211 389 180.5 c 128,-1,42
 449 150 449 150 520 150 c 0,31,32
EndSplineSet
EndChar

StartChar: uni01B7
Encoding: 439 439 75
Width: 660
GlyphClass: 2
Flags: W
AnchorPoint: "Anchor-1" 302 0 basechar 0
AnchorPoint: "Anchor-0" 330 900 basechar 0
LayerCount: 2
Fore
SplineSet
296 -20 m 0,0,1
 208 -20 208 -20 135 19.5 c 128,-1,2
 62 59 62 59 20 123 c 1,3,-1
 112 306 l 1,4,5
 126 239 126 239 176.5 190.5 c 128,-1,6
 227 142 227 142 298 142 c 0,7,8
 344 142 344 142 380.5 163 c 128,-1,9
 417 184 417 184 438.5 220 c 128,-1,10
 460 256 460 256 460 301 c 0,11,12
 460 345 460 345 439.5 380.5 c 128,-1,13
 419 416 419 416 381.5 437 c 128,-1,14
 344 458 344 458 294 458 c 0,15,16
 264 458 264 458 237 450.5 c 128,-1,17
 210 443 210 443 182 428 c 1,18,-1
 343 744 l 1,19,-1
 72 744 l 1,20,-1
 72 900 l 1,21,-1
 600 900 l 1,22,-1
 432 586 l 1,23,24
 489 565 489 565 533.5 522.5 c 128,-1,25
 578 480 578 480 604 423 c 128,-1,26
 630 366 630 366 630 299 c 0,27,28
 630 209 630 209 584 136.5 c 128,-1,29
 538 64 538 64 462 22 c 128,-1,30
 386 -20 386 -20 296 -20 c 0,0,1
EndSplineSet
EndChar

StartChar: F
Encoding: 70 70 77
Width: 600
GlyphClass: 1
Flags: W
LayerCount: 2
Fore
SplineSet
96 0 m 1,0,-1
 96 900 l 1,1,-1
 576 900 l 1,2,-1
 576 750 l 1,3,-1
 270 750 l 1,4,-1
 270 606 l 1,5,-1
 546 606 l 1,6,-1
 546 456 l 1,7,-1
 270 456 l 1,8,-1
 270 0 l 1,9,-1
 96 0 l 1,0,-1
EndSplineSet
Position2: "Single Positioning lookup 1 subtable" dx=0 dy=0 dh=60 dv=0
EndChar

StartChar: G
Encoding: 71 71 78
Width: 920
GlyphClass: 2
Flags: W
AnchorPoint: "Anchor-4" 783 270 basechar 0
AnchorPoint: "Anchor-1" 529 0 basechar 0
AnchorPoint: "Anchor-0" 530 900 basechar 0
LayerCount: 2
Fore
SplineSet
741.109073454 672 m 4,0,1
 720.690129785 690.040142619 720.690129785 690.040142619 696.5 705.5 c 0,2,3
 630 748 630 748 538 748 c 0,4,5
 453 748 453 748 386 709 c 128,-1,6
 319 670 319 670 280.5 602 c 128,-1,7
 242 534 242 534 242 448 c 0,8,9
 242 360 242 360 280.5 292.5 c 128,-1,10
 319 225 319 225 386 186.5 c 128,-1,11
 453 148 453 148 537 148 c 0,12,13
 578 148 578 148 613 156 c 128,-1,14
 648 164 648 164 676 180 c 1,15,-1
 676 354 l 1,16,-1
 493 354 l 1,17,-1
 493 504 l 1,18,-1
 840 504 l 1,19,-1
 840 67 l 1,20,21
 778 27 778 27 701.5 4.5 c 128,-1,22
 625 -18 625 -18 540 -18 c 0,23,24
 438 -18 438 -18 349.5 16.5 c 128,-1,25
 261 51 261 51 194.5 114 c 128,-1,26
 128 177 128 177 91 262 c 128,-1,27
 54 347 54 347 54 448 c 256,28,29
 54 549 54 549 91 634.5 c 128,-1,30
 128 720 128 720 194.5 783.5 c 128,-1,31
 261 847 261 847 348.5 882.5 c 128,-1,32
 436 918 436 918 538 918 c 0,33,34
 630 918 630 918 710 889 c 128,-1,35
 790 860 790 860 852 807 c 5,36,-1
 741.109073454 672 l 4,0,1
EndSplineSet
EndChar

StartChar: uni01E4
Encoding: 484 484 84
Width: 920
GlyphClass: 1
Flags: W
LayerCount: 2
Fore
SplineSet
540 -18 m 0,0,1
 438 -18 438 -18 349.5 16.5 c 128,-1,2
 261 51 261 51 194.5 114 c 128,-1,3
 128 177 128 177 91 262 c 128,-1,4
 54 347 54 347 54 448 c 256,5,6
 54 549 54 549 91 634.5 c 128,-1,7
 128 720 128 720 194.5 783.5 c 128,-1,8
 261 847 261 847 348.5 882.5 c 128,-1,9
 436 918 436 918 538 918 c 0,10,11
 630 918 630 918 710 889 c 128,-1,12
 790 860 790 860 852 807 c 1,13,-1
 801 601 l 1,14,15
 763 663 763 663 696.5 705.5 c 128,-1,16
 630 748 630 748 538 748 c 0,17,18
 453 748 453 748 386 709 c 128,-1,19
 319 670 319 670 280.5 602 c 128,-1,20
 242 534 242 534 242 448 c 0,21,22
 242 360 242 360 280.5 292.5 c 128,-1,23
 319 225 319 225 386 186.5 c 128,-1,24
 453 148 453 148 537 148 c 0,25,26
 578 148 578 148 613 156 c 128,-1,27
 648 164 648 164 676 180 c 1,28,-1
 676 309 l 1,29,-1
 490 309 l 1,30,-1
 490 435 l 1,31,-1
 676 435 l 1,32,-1
 676 540 l 1,33,-1
 840 540 l 1,34,-1
 840 435 l 1,35,-1
 910 435 l 1,36,-1
 910 309 l 1,37,-1
 840 309 l 1,38,-1
 840 67 l 1,39,40
 778 27 778 27 701.5 4.5 c 128,-1,41
 625 -18 625 -18 540 -18 c 0,0,1
EndSplineSet
EndChar

StartChar: H
Encoding: 72 72 85
Width: 800
GlyphClass: 2
Flags: W
AnchorPoint: "Anchor-4" 400 750 basechar 0
AnchorPoint: "Anchor-1" 400 0 basechar 0
AnchorPoint: "Anchor-0" 400 900 basechar 0
LayerCount: 2
Fore
SplineSet
96 0 m 1,0,-1
 96 900 l 1,1,-1
 270 900 l 1,2,-1
 270 612 l 1,3,-1
 530 612 l 1,4,-1
 530 900 l 1,5,-1
 704 900 l 1,6,-1
 704 0 l 1,7,-1
 530 0 l 1,8,-1
 530 450 l 1,9,-1
 270 450 l 1,10,-1
 270 0 l 1,11,-1
 96 0 l 1,0,-1
EndSplineSet
EndChar

StartChar: Hbar
Encoding: 294 294 86
Width: 800
GlyphClass: 1
Flags: W
LayerCount: 2
Fore
SplineSet
96 0 m 1,0,-1
 96 666 l 1,1,-1
 30 666 l 1,2,-1
 30 774 l 1,3,-1
 96 774 l 1,4,-1
 96 900 l 1,5,-1
 270 900 l 1,6,-1
 270 774 l 1,7,-1
 530 774 l 1,8,-1
 530 900 l 1,9,-1
 704 900 l 1,10,-1
 704 774 l 1,11,-1
 770 774 l 1,12,-1
 770 666 l 1,13,-1
 704 666 l 1,14,-1
 704 0 l 1,15,-1
 530 0 l 1,16,-1
 530 414 l 1,17,-1
 270 414 l 1,18,-1
 270 0 l 1,19,-1
 96 0 l 1,0,-1
270 576 m 1,20,-1
 530 576 l 1,21,-1
 530 666 l 1,22,-1
 270 666 l 1,23,-1
 270 576 l 1,20,-1
EndSplineSet
EndChar

StartChar: I
Encoding: 73 73 88
Width: 390
GlyphClass: 2
Flags: W
AnchorPoint: "Anchor-3" 195 0 basechar 0
AnchorPoint: "Anchor-1" 195 0 basechar 0
AnchorPoint: "Anchor-0" 195 900 basechar 0
LayerCount: 2
Fore
SplineSet
102 0 m 1,0,-1
 102 900 l 1,1,-1
 288 900 l 1,2,-1
 288 0 l 1,3,-1
 102 0 l 1,0,-1
EndSplineSet
EndChar

StartChar: Iogonek
Encoding: 302 302 101
Width: 390
GlyphClass: 1
Flags: W
LayerCount: 2
Fore
SplineSet
255 -318 m 1,0,1
 168 -318 168 -318 111 -278 c 128,-1,2
 54 -238 54 -238 54 -153 c 0,3,4
 54 -113 54 -113 66 -75 c 128,-1,5
 78 -37 78 -37 102 0 c 1,6,-1
 102 900 l 1,7,-1
 288 900 l 1,8,-1
 288 0 l 1,9,10
 251 -22 251 -22 227.5 -53 c 128,-1,11
 204 -84 204 -84 204 -116 c 0,12,13
 204 -153 204 -153 227.5 -171 c 128,-1,14
 251 -189 251 -189 285 -190 c 1,15,-1
 255 -318 l 1,0,1
EndSplineSet
EndChar

StartChar: J
Encoding: 74 74 103
Width: 560
GlyphClass: 2
Flags: W
AnchorPoint: "Anchor-1" 290 0 basechar 0
AnchorPoint: "Anchor-0" 384 900 basechar 0
LayerCount: 2
Fore
SplineSet
122 159.840669917 m 4,0,1
 148.368740018 148 148.368740018 148 180 148 c 0,2,3
 227 148 227 148 258.5 179 c 128,-1,4
 290 210 290 210 290 283 c 2,5,-1
 290 900 l 1,6,-1
 476 900 l 1,7,-1
 476 270 l 2,8,9
 476 170 476 170 437 105.5 c 128,-1,10
 398 41 398 41 334.5 10.5 c 128,-1,11
 271 -20 271 -20 199 -20 c 0,12,13
 147 -20 147 -20 96.5 -4 c 128,-1,14
 46 12 46 12 12 46 c 5,15,-1
 122 159.840669917 l 4,0,1
EndSplineSet
Substitution2: "Single Substitution lookup 16 subtable" uni004A0301
Substitution2: "'aalt' Access All Alternates in Latin lookup 0 subtable" uni004A0301
EndChar

StartChar: K
Encoding: 75 75 106
Width: 800
GlyphClass: 2
Flags: W
AnchorPoint: "Anchor-1" 438 0 basechar 0
AnchorPoint: "Anchor-0" 370 900 basechar 0
LayerCount: 2
Fore
SplineSet
595 0 m 5,0,-1
 267 555 l 1,1,-1
 516 900 l 1,2,-1
 651.824561404 804 l 0,3,4
 651.824561404 804 651.824561404 804 472 558 c 1,5,-1
 749.734767025 94 l 4,6,7
 749.734767025 94 749.734767025 94 595 0 c 5,0,-1
96 0 m 1,8,-1
 96 900 l 1,9,-1
 276 900 l 1,10,-1
 276 0 l 1,11,-1
 96 0 l 1,8,-1
EndSplineSet
EndChar

StartChar: L
Encoding: 76 76 109
Width: 600
GlyphClass: 2
Flags: W
AnchorPoint: "Anchor-4" 183 450 basechar 0
AnchorPoint: "Anchor-2" 282 900 basechar 0
AnchorPoint: "Anchor-1" 339 0 basechar 0
AnchorPoint: "Anchor-0" 183 900 basechar 0
LayerCount: 2
Fore
SplineSet
96 0 m 1,0,-1
 96 900 l 1,1,-1
 282 900 l 1,2,-1
 282 162 l 1,3,-1
 552 162 l 1,4,-1
 552 0 l 1,5,-1
 96 0 l 1,0,-1
EndSplineSet
Position2: "Single Positioning lookup 1 subtable" dx=0 dy=0 dh=60 dv=0
EndChar

StartChar: Lslash
Encoding: 321 321 116
Width: 630
GlyphClass: 1
Flags: W
LayerCount: 2
Fore
SplineSet
126 0 m 1,0,-1
 126 344 l 1,1,-1
 62 308 l 1,2,-1
 6 408 l 1,3,-1
 126 475 l 1,4,-1
 126 900 l 1,5,-1
 312 900 l 1,6,-1
 312 578 l 1,7,-1
 478 670 l 1,8,-1
 534 570 l 1,9,-1
 312 447 l 1,10,-1
 312 162 l 1,11,-1
 582 162 l 1,12,-1
 582 0 l 1,13,-1
 126 0 l 1,0,-1
EndSplineSet
Position2: "Single Positioning lookup 1 subtable" dx=0 dy=0 dh=60 dv=0
EndChar

StartChar: M
Encoding: 77 77 117
Width: 1040
GlyphClass: 1
Flags: W
LayerCount: 2
Fore
SplineSet
96 0 m 1,0,-1
 96 930 l 1,1,-1
 524 398 l 1,2,-1
 944 930 l 1,3,-1
 944 0 l 1,4,-1
 770 0 l 1,5,-1
 770 258 l 2,6,7
 770 302 770 302 771.5 357 c 128,-1,8
 773 412 773 412 781 483 c 1,9,10
 750 431 750 431 721.5 393 c 128,-1,11
 693 355 693 355 669 323 c 2,12,-1
 521 125 l 1,13,-1
 368 323 l 2,14,15
 345 353 345 353 313.5 395.5 c 128,-1,16
 282 438 282 438 253 486 c 1,17,18
 261 413 261 413 262.5 358 c 128,-1,19
 264 303 264 303 264 258 c 2,20,-1
 264 0 l 1,21,-1
 96 0 l 1,0,-1
EndSplineSet
EndChar

StartChar: N
Encoding: 78 78 118
Width: 900
GlyphClass: 2
Flags: W
AnchorPoint: "Anchor-1" 525 60 basechar 0
AnchorPoint: "Anchor-0" 426 840 basechar 0
LayerCount: 2
Fore
SplineSet
804 -30 m 1,0,-1
 264 509 l 1,1,-1
 264 0 l 1,2,-1
 96 0 l 1,3,-1
 96 930 l 1,4,-1
 636 392 l 1,5,-1
 636 900 l 1,6,-1
 804 900 l 1,7,-1
 804 -30 l 1,0,-1
EndSplineSet
EndChar

StartChar: Eng
Encoding: 330 330 125
Width: 990
GlyphClass: 2
Flags: W
AnchorPoint: "Anchor-1" 495 0 basechar 0
AnchorPoint: "Anchor-0" 495 900 basechar 0
LayerCount: 2
Fore
SplineSet
545 -200 m 0,0,1
 493 -200 493 -200 442.5 -184 c 128,-1,2
 392 -168 392 -168 358 -134 c 1,3,-1
 405 34 l 1,4,5
 425 4 425 4 456 -14 c 128,-1,6
 487 -32 487 -32 526 -32 c 0,7,8
 573 -32 573 -32 604.5 -1 c 128,-1,9
 636 30 636 30 636 103 c 2,10,-1
 636 118 l 1,11,-1
 264 503 l 1,12,-1
 264 0 l 1,13,-1
 96 0 l 1,14,-1
 96 930 l 1,15,-1
 636 372 l 1,16,-1
 636 900 l 1,17,-1
 804 900 l 1,18,-1
 804 71 l 2,19,20
 804 -23 804 -23 767.5 -83 c 128,-1,21
 731 -143 731 -143 672 -171.5 c 128,-1,22
 613 -200 613 -200 545 -200 c 0,0,1
EndSplineSet
EndChar

StartChar: O
Encoding: 79 79 126
Width: 1060
GlyphClass: 2
Flags: W
AnchorPoint: "Anchor-4" 530 450 basechar 0
AnchorPoint: "Anchor-3" 560 0 basechar 0
AnchorPoint: "Anchor-2" 1000 900 basechar 0
AnchorPoint: "Anchor-1" 530 0 basechar 0
AnchorPoint: "Anchor-0" 530 900 basechar 0
LayerCount: 2
Fore
SplineSet
530 -18 m 256,0,1
 431 -18 431 -18 345 18.5 c 128,-1,2
 259 55 259 55 193.5 119 c 128,-1,3
 128 183 128 183 91 268 c 128,-1,4
 54 353 54 353 54 450 c 256,5,6
 54 547 54 547 91 632 c 128,-1,7
 128 717 128 717 193.5 781 c 128,-1,8
 259 845 259 845 345 881.5 c 128,-1,9
 431 918 431 918 530 918 c 256,10,11
 629 918 629 918 715 881.5 c 128,-1,12
 801 845 801 845 866.5 781 c 128,-1,13
 932 717 932 717 969 632 c 128,-1,14
 1006 547 1006 547 1006 450 c 256,15,16
 1006 353 1006 353 969 268 c 128,-1,17
 932 183 932 183 866.5 119 c 128,-1,18
 801 55 801 55 715 18.5 c 128,-1,19
 629 -18 629 -18 530 -18 c 256,0,1
530 156 m 256,20,21
 611 156 611 156 676 195.5 c 128,-1,22
 741 235 741 235 779.5 302 c 128,-1,23
 818 369 818 369 818 450 c 0,24,25
 818 532 818 532 779.5 598.5 c 128,-1,26
 741 665 741 665 676 704.5 c 128,-1,27
 611 744 611 744 530 744 c 256,28,29
 449 744 449 744 383.5 704.5 c 128,-1,30
 318 665 318 665 280 598.5 c 128,-1,31
 242 532 242 532 242 450 c 0,32,33
 242 369 242 369 280 302 c 128,-1,34
 318 235 318 235 383.5 195.5 c 128,-1,35
 449 156 449 156 530 156 c 256,20,21
EndSplineSet
Substitution2: "Single Substitution lookup 29 subtable" ordmasculine
Substitution2: "'aalt' Access All Alternates in Latin lookup 0 subtable" ordmasculine
EndChar

StartChar: Ohorn
Encoding: 416 416 142
Width: 1060
GlyphClass: 2
Flags: W
AnchorPoint: "Anchor-3" 530 0 basechar 0
AnchorPoint: "Anchor-1" 530 0 basechar 0
AnchorPoint: "Anchor-0" 530 900 basechar 0
LayerCount: 2
Fore
SplineSet
530 -18 m 256,0,1
 431 -18 431 -18 345 18.5 c 128,-1,2
 259 55 259 55 193.5 119 c 128,-1,3
 128 183 128 183 91 268 c 128,-1,4
 54 353 54 353 54 450 c 256,5,6
 54 547 54 547 91 632 c 128,-1,7
 128 717 128 717 193.5 781 c 128,-1,8
 259 845 259 845 345 881.5 c 128,-1,9
 431 918 431 918 530 918 c 0,10,11
 622 918 622 918 704 885.5 c 128,-1,12
 786 853 786 853 849 797 c 1,13,14
 861 808 861 808 867.5 825.5 c 128,-1,15
 874 843 874 843 874 868 c 0,16,17
 874 886 874 886 869 910.5 c 128,-1,18
 864 935 864 935 850 960 c 1,19,-1
 1006 960 l 1,20,21
 1020 936 1020 936 1025 913 c 128,-1,22
 1030 890 1030 890 1030 868 c 0,23,24
 1030 804 1030 804 1004.5 760.5 c 128,-1,25
 979 717 979 717 935 697 c 1,26,27
 969 643 969 643 987.5 580.5 c 128,-1,28
 1006 518 1006 518 1006 450 c 0,29,30
 1006 353 1006 353 969 268 c 128,-1,31
 932 183 932 183 866.5 119 c 128,-1,32
 801 55 801 55 715 18.5 c 128,-1,33
 629 -18 629 -18 530 -18 c 256,0,1
530 156 m 256,34,35
 611 156 611 156 676 195.5 c 128,-1,36
 741 235 741 235 779.5 302 c 128,-1,37
 818 369 818 369 818 450 c 0,38,39
 818 532 818 532 779.5 598.5 c 128,-1,40
 741 665 741 665 676 704.5 c 128,-1,41
 611 744 611 744 530 744 c 256,42,43
 449 744 449 744 383.5 704.5 c 128,-1,44
 318 665 318 665 280 598.5 c 128,-1,45
 242 532 242 532 242 450 c 0,46,47
 242 369 242 369 280 302 c 128,-1,48
 318 235 318 235 383.5 195.5 c 128,-1,49
 449 156 449 156 530 156 c 256,34,35
EndSplineSet
EndChar

StartChar: uni01EA
Encoding: 490 490 151
Width: 1060
GlyphClass: 2
Flags: W
AnchorPoint: "Anchor-0" 530 900 basechar 0
LayerCount: 2
Fore
SplineSet
626 -318 m 1,0,1
 539 -318 539 -318 482 -278 c 128,-1,2
 425 -238 425 -238 425 -153 c 0,3,4
 425 -117 425 -117 438 -83 c 128,-1,5
 451 -49 451 -49 474 -15 c 1,6,7
 386 -5 386 -5 309.5 35 c 128,-1,8
 233 75 233 75 175.5 137.5 c 128,-1,9
 118 200 118 200 86 280 c 128,-1,10
 54 360 54 360 54 450 c 0,11,12
 54 547 54 547 91 632 c 128,-1,13
 128 717 128 717 193.5 781 c 128,-1,14
 259 845 259 845 345 881.5 c 128,-1,15
 431 918 431 918 530 918 c 256,16,17
 629 918 629 918 715 881.5 c 128,-1,18
 801 845 801 845 866.5 781 c 128,-1,19
 932 717 932 717 969 632 c 128,-1,20
 1006 547 1006 547 1006 450 c 0,21,22
 1006 337 1006 337 956.5 241 c 128,-1,23
 907 145 907 145 821.5 79.5 c 128,-1,24
 736 14 736 14 628 -8 c 1,25,26
 605 -35 605 -35 590 -61 c 128,-1,27
 575 -87 575 -87 575 -116 c 0,28,29
 575 -153 575 -153 598.5 -171 c 128,-1,30
 622 -189 622 -189 656 -190 c 1,31,-1
 626 -318 l 1,0,1
530 156 m 256,32,33
 611 156 611 156 676 195.5 c 128,-1,34
 741 235 741 235 779.5 302 c 128,-1,35
 818 369 818 369 818 450 c 0,36,37
 818 532 818 532 779.5 598.5 c 128,-1,38
 741 665 741 665 676 704.5 c 128,-1,39
 611 744 611 744 530 744 c 256,40,41
 449 744 449 744 383.5 704.5 c 128,-1,42
 318 665 318 665 280 598.5 c 128,-1,43
 242 532 242 532 242 450 c 0,44,45
 242 369 242 369 280 302 c 128,-1,46
 318 235 318 235 383.5 195.5 c 128,-1,47
 449 156 449 156 530 156 c 256,32,33
EndSplineSet
EndChar

StartChar: Oslash
Encoding: 216 216 152
Width: 1060
GlyphClass: 2
Flags: W
AnchorPoint: "Anchor-1" 530 0 basechar 0
AnchorPoint: "Anchor-0" 530 900 basechar 0
LayerCount: 2
Fore
SplineSet
210 -32 m 1,0,-1
 121 41 l 1,1,-1
 189 123 l 1,2,3
 127 186 127 186 90.5 270.5 c 128,-1,4
 54 355 54 355 54 450 c 0,5,6
 54 547 54 547 91 632 c 128,-1,7
 128 717 128 717 193.5 781 c 128,-1,8
 259 845 259 845 345 881.5 c 128,-1,9
 431 918 431 918 530 918 c 0,10,11
 601 918 601 918 667 898.5 c 128,-1,12
 733 879 733 879 788 843 c 1,13,-1
 850 918 l 1,14,-1
 939 845 l 1,15,-1
 877 771 l 1,16,17
 937 708 937 708 971.5 625.5 c 128,-1,18
 1006 543 1006 543 1006 450 c 0,19,20
 1006 353 1006 353 969 268 c 128,-1,21
 932 183 932 183 866.5 119 c 128,-1,22
 801 55 801 55 715 18.5 c 128,-1,23
 629 -18 629 -18 530 -18 c 0,24,25
 461 -18 461 -18 397.5 0.5 c 128,-1,26
 334 19 334 19 280 52 c 1,27,-1
 210 -32 l 1,0,-1
306 264 m 1,28,-1
 674 706 l 1,29,30
 643 724 643 724 606.5 734 c 128,-1,31
 570 744 570 744 530 744 c 0,32,33
 449 744 449 744 383.5 704.5 c 128,-1,34
 318 665 318 665 280 598.5 c 128,-1,35
 242 532 242 532 242 450 c 0,36,37
 242 397 242 397 259 349.5 c 128,-1,38
 276 302 276 302 306 264 c 1,28,-1
530 156 m 0,39,40
 611 156 611 156 676 195.5 c 128,-1,41
 741 235 741 235 779.5 302 c 128,-1,42
 818 369 818 369 818 450 c 0,43,44
 818 501 818 501 802.5 546.5 c 128,-1,45
 787 592 787 592 760 629 c 1,46,-1
 394 190 l 1,47,48
 425 174 425 174 459 165 c 128,-1,49
 493 156 493 156 530 156 c 0,39,40
EndSplineSet
EndChar

StartChar: OE
Encoding: 338 338 156
Width: 1320
GlyphClass: 2
Flags: W
AnchorPoint: "Anchor-4" 530 450 basechar 0
AnchorPoint: "Anchor-3" 530 0 basechar 0
AnchorPoint: "Anchor-2" 1000 900 basechar 0
AnchorPoint: "Anchor-1" 530 0 basechar 0
AnchorPoint: "Anchor-0" 530 900 basechar 0
LayerCount: 2
Fore
SplineSet
512 -18 m 0,0,1
 417 -18 417 -18 334 18.5 c 128,-1,2
 251 55 251 55 188 119 c 128,-1,3
 125 183 125 183 89.5 268 c 128,-1,4
 54 353 54 353 54 450 c 256,5,6
 54 547 54 547 89.5 632 c 128,-1,7
 125 717 125 717 188 781 c 128,-1,8
 251 845 251 845 334 881.5 c 128,-1,9
 417 918 417 918 512 918 c 0,10,11
 602 918 602 918 671.5 892.5 c 128,-1,12
 741 867 741 867 786 823 c 1,13,-1
 786 900 l 1,14,-1
 1266 900 l 1,15,-1
 1266 744 l 1,16,-1
 960 744 l 1,17,-1
 960 606 l 1,18,-1
 1196 606 l 1,19,-1
 1196 456 l 1,20,-1
 960 456 l 1,21,-1
 960 162 l 1,22,-1
 1266 162 l 1,23,-1
 1266 0 l 1,24,-1
 786 0 l 1,25,-1
 786 77 l 1,26,27
 739 31 739 31 668.5 6.5 c 128,-1,28
 598 -18 598 -18 512 -18 c 0,0,1
530 156 m 256,29,30
 611 156 611 156 676 195.5 c 128,-1,31
 741 235 741 235 779.5 302 c 128,-1,32
 818 369 818 369 818 450 c 0,33,34
 818 532 818 532 779.5 598.5 c 128,-1,35
 741 665 741 665 676 704.5 c 128,-1,36
 611 744 611 744 530 744 c 256,37,38
 449 744 449 744 383.5 704.5 c 128,-1,39
 318 665 318 665 280 598.5 c 128,-1,40
 242 532 242 532 242 450 c 0,41,42
 242 369 242 369 280 302 c 128,-1,43
 318 235 318 235 383.5 195.5 c 128,-1,44
 449 156 449 156 530 156 c 256,29,30
EndSplineSet
EndChar

StartChar: P
Encoding: 80 80 157
Width: 740
GlyphClass: 1
Flags: W
LayerCount: 2
Fore
SplineSet
96 0 m 1,0,-1
 96 900 l 1,1,-1
 368 900 l 2,2,3
 462 900 462 900 527.5 872 c 128,-1,4
 593 844 593 844 633 798.5 c 128,-1,5
 673 753 673 753 691.5 699.5 c 128,-1,6
 710 646 710 646 710 594 c 0,7,8
 710 543 710 543 692 489.5 c 128,-1,9
 674 436 674 436 633.5 390.5 c 128,-1,10
 593 345 593 345 528 317 c 128,-1,11
 463 289 463 289 368 289 c 2,12,-1
 270 289 l 1,13,-1
 270 0 l 1,14,-1
 96 0 l 1,0,-1
270 445 m 1,15,-1
 358 445 l 2,16,17
 422 445 422 445 459.5 467.5 c 128,-1,18
 497 490 497 490 513.5 524 c 128,-1,19
 530 558 530 558 530 594 c 0,20,21
 530 629 530 629 514 663.5 c 128,-1,22
 498 698 498 698 460.5 721 c 128,-1,23
 423 744 423 744 358 744 c 2,24,-1
 270 744 l 1,25,-1
 270 445 l 1,15,-1
EndSplineSet
Position2: "Single Positioning lookup 1 subtable" dx=0 dy=0 dh=60 dv=0
EndChar

StartChar: Thorn
Encoding: 222 222 158
Width: 740
GlyphClass: 1
Flags: W
LayerCount: 2
Fore
SplineSet
96 0 m 1,0,-1
 96 900 l 1,1,-1
 270 900 l 1,2,-1
 270 780 l 1,3,-1
 368 780 l 2,4,5
 462 780 462 780 527.5 752 c 128,-1,6
 593 724 593 724 633 678.5 c 128,-1,7
 673 633 673 633 691.5 579.5 c 128,-1,8
 710 526 710 526 710 474 c 0,9,10
 710 423 710 423 692 369.5 c 128,-1,11
 674 316 674 316 633.5 270.5 c 128,-1,12
 593 225 593 225 528 197 c 128,-1,13
 463 169 463 169 368 169 c 2,14,-1
 270 169 l 1,15,-1
 270 0 l 1,16,-1
 96 0 l 1,0,-1
270 325 m 1,17,-1
 358 325 l 2,18,19
 422 325 422 325 459.5 347.5 c 128,-1,20
 497 370 497 370 513.5 404 c 128,-1,21
 530 438 530 438 530 474 c 0,22,23
 530 509 530 509 514 543.5 c 128,-1,24
 498 578 498 578 460.5 601 c 128,-1,25
 423 624 423 624 358 624 c 2,26,-1
 270 624 l 1,27,-1
 270 325 l 1,17,-1
EndSplineSet
Position2: "Single Positioning lookup 1 subtable" dx=0 dy=0 dh=60 dv=0
EndChar

StartChar: Q
Encoding: 81 81 159
Width: 1060
GlyphClass: 1
Flags: W
LayerCount: 2
Fore
SplineSet
821 -30 m 5,0,-1
 762 41 l 1,1,2
 710 13 710 13 651.5 -2.5 c 128,-1,3
 593 -18 593 -18 530 -18 c 0,4,5
 431 -18 431 -18 345 18.5 c 128,-1,6
 259 55 259 55 193.5 119 c 128,-1,7
 128 183 128 183 91 268 c 128,-1,8
 54 353 54 353 54 450 c 256,9,10
 54 547 54 547 91 632 c 128,-1,11
 128 717 128 717 193.5 781 c 128,-1,12
 259 845 259 845 345 881.5 c 128,-1,13
 431 918 431 918 530 918 c 256,14,15
 629 918 629 918 715 881.5 c 128,-1,16
 801 845 801 845 866.5 781 c 128,-1,17
 932 717 932 717 969 632 c 128,-1,18
 1006 547 1006 547 1006 450 c 0,19,20
 1006 360 1006 360 973.5 279.5 c 128,-1,21
 941 199 941 199 884 137 c 1,22,-1
 941.431137725 68 l 4,23,24
 941.431137725 68 941.431137725 68 821 -30 c 5,0,-1
624 450 m 1,25,-1
 766 280 l 1,26,27
 791 316 791 316 804.5 359 c 128,-1,28
 818 402 818 402 818 450 c 0,29,30
 818 532 818 532 779.5 598.5 c 128,-1,31
 741 665 741 665 676 704.5 c 128,-1,32
 611 744 611 744 530 744 c 256,33,34
 449 744 449 744 383.5 704.5 c 128,-1,35
 318 665 318 665 280 598.5 c 128,-1,36
 242 532 242 532 242 450 c 0,37,38
 242 369 242 369 280 302 c 128,-1,39
 318 235 318 235 383.5 195.5 c 128,-1,40
 449 156 449 156 530 156 c 0,41,42
 592 156 592 156 648 181 c 1,43,-1
 507.271375465 350 l 0,44,45
 507.271375465 350 507.271375465 350 624 450 c 1,25,-1
EndSplineSet
EndChar

StartChar: R
Encoding: 82 82 160
Width: 800
GlyphClass: 2
Flags: W
AnchorPoint: "Anchor-1" 439 0 basechar 0
AnchorPoint: "Anchor-0" 325 900 basechar 0
LayerCount: 2
Fore
SplineSet
609 0 m 5,0,-1
 409 342 l 1,1,-1
 273 342 l 1,2,-1
 273 0 l 1,3,-1
 99 0 l 1,4,-1
 99 900 l 1,5,-1
 374 900 l 2,6,7
 472 900 472 900 541.5 861 c 128,-1,8
 611 822 611 822 648 757.5 c 128,-1,9
 685 693 685 693 685 616 c 0,10,11
 685 546 685 546 654.5 489 c 128,-1,12
 624 432 624 432 568 395 c 1,13,-1
 754.182278481 86 l 4,14,15
 754.182278481 86 754.182278481 86 609 0 c 5,0,-1
273 492 m 1,16,-1
 370 492 l 2,17,18
 419 492 419 492 450 510.5 c 128,-1,19
 481 529 481 529 496 557.5 c 128,-1,20
 511 586 511 586 511 616 c 0,21,22
 511 669 511 669 472 703.5 c 128,-1,23
 433 738 433 738 370 738 c 2,24,-1
 273 738 l 1,25,-1
 273 492 l 1,16,-1
EndSplineSet
EndChar

StartChar: S
Encoding: 83 83 166
Width: 660
GlyphClass: 2
Flags: W
AnchorPoint: "Anchor-1" 317 0 basechar 0
AnchorPoint: "Anchor-0" 338 900 basechar 0
LayerCount: 2
Fore
SplineSet
493 698.739155369 m 4,0,1
 472.591602581 715.393955292 472.591602581 715.393955292 449.5 728.5 c 0,2,3
 394 760 394 760 339 760 c 0,4,5
 290 760 290 760 263.5 735 c 128,-1,6
 237 710 237 710 237 673 c 0,7,8
 237 650 237 650 247.5 632 c 128,-1,9
 258 614 258 614 278 600 c 128,-1,10
 298 586 298 586 325 572 c 2,11,-1
 432 519 l 2,12,13
 459 506 459 506 491 485.5 c 128,-1,14
 523 465 523 465 553 434 c 128,-1,15
 583 403 583 403 602 359.5 c 128,-1,16
 621 316 621 316 621 256 c 0,17,18
 621 178 621 178 585 115.5 c 128,-1,19
 549 53 549 53 483.5 16.5 c 128,-1,20
 418 -20 418 -20 327 -20 c 0,21,22
 245 -20 245 -20 171.5 10.5 c 128,-1,23
 98 41 98 41 54 84 c 1,24,-1
 165.789945085 209 l 0,25,26
 182.556687704 194.803971062 182.556687704 194.803971062 202 182.5 c 0,27,28
 266 142 266 142 333 142 c 0,29,30
 388 142 388 142 419.5 172 c 128,-1,31
 451 202 451 202 451 245 c 0,32,33
 451 280 451 280 434.5 303 c 128,-1,34
 418 326 418 326 395.5 341 c 128,-1,35
 373 356 373 356 356 364 c 2,36,-1
 250 417 l 2,37,38
 204 440 204 440 162 471.5 c 128,-1,39
 120 503 120 503 93.5 550 c 128,-1,40
 67 597 67 597 67 666 c 0,41,42
 67 742 67 742 101.5 799 c 128,-1,43
 136 856 136 856 199 888 c 128,-1,44
 262 920 262 920 347 920 c 0,45,46
 427 920 427 920 489.5 894.5 c 128,-1,47
 552 869 552 869 591 840 c 5,48,-1
 493 698.739155369 l 4,0,1
EndSplineSet
EndChar

StartChar: Scedilla
Encoding: 350 350 169
Width: 660
GlyphClass: 1
Flags: W
LayerCount: 2
Fore
SplineSet
43 -192 m 1,0,-1
 233 -9 l 1,1,2
 178 4 178 4 132 28.5 c 128,-1,3
 86 53 86 53 54 84 c 1,4,-1
 103 284 l 1,5,6
 138 223 138 223 202 182.5 c 128,-1,7
 266 142 266 142 333 142 c 0,8,9
 388 142 388 142 419.5 172 c 128,-1,10
 451 202 451 202 451 245 c 0,11,12
 451 280 451 280 434.5 303 c 128,-1,13
 418 326 418 326 395.5 341 c 128,-1,14
 373 356 373 356 356 364 c 2,15,-1
 250 417 l 2,16,17
 204 440 204 440 162 471.5 c 128,-1,18
 120 503 120 503 93.5 550 c 128,-1,19
 67 597 67 597 67 666 c 0,20,21
 67 742 67 742 101.5 799 c 128,-1,22
 136 856 136 856 199 888 c 128,-1,23
 262 920 262 920 347 920 c 0,24,25
 427 920 427 920 489.5 894.5 c 128,-1,26
 552 869 552 869 591 840 c 1,27,-1
 545 645 l 1,28,29
 505 697 505 697 449.5 728.5 c 128,-1,30
 394 760 394 760 339 760 c 0,31,32
 290 760 290 760 263.5 735 c 128,-1,33
 237 710 237 710 237 673 c 0,34,35
 237 650 237 650 247.5 632 c 128,-1,36
 258 614 258 614 278 600 c 128,-1,37
 298 586 298 586 325 572 c 2,38,-1
 432 519 l 2,39,40
 459 506 459 506 491 485.5 c 128,-1,41
 523 465 523 465 553 434 c 128,-1,42
 583 403 583 403 602 359.5 c 128,-1,43
 621 316 621 316 621 256 c 0,44,45
 621 151 621 151 557 75.5 c 128,-1,46
 493 0 493 0 381 -16 c 1,47,-1
 258 -192 l 1,48,-1
 43 -192 l 1,0,-1
EndSplineSet
Substitution2: "'locl' Localized Forms in Latin lookup 11 subtable" uni0218
Substitution2: "'aalt' Access All Alternates in Latin lookup 0 subtable" uni0218
EndChar

StartChar: uni1E9E
Encoding: 7838 7838 172
Width: 990
GlyphClass: 1
Flags: W
LayerCount: 2
Fore
SplineSet
626 -20 m 0,0,1
 538 -20 538 -20 465 19.5 c 128,-1,2
 392 59 392 59 350 123 c 1,3,-1
 442 306 l 1,4,5
 456 239 456 239 506.5 190.5 c 128,-1,6
 557 142 557 142 628 142 c 0,7,8
 674 142 674 142 710.5 163 c 128,-1,9
 747 184 747 184 768.5 220 c 128,-1,10
 790 256 790 256 790 301 c 0,11,12
 790 345 790 345 769.5 380.5 c 128,-1,13
 749 416 749 416 711.5 437 c 128,-1,14
 674 458 674 458 624 458 c 0,15,16
 594 458 594 458 567 450.5 c 128,-1,17
 540 443 540 443 512 428 c 1,18,-1
 670 738 l 1,19,-1
 281 738 l 1,20,-1
 281 0 l 1,21,-1
 96 0 l 1,22,-1
 96 900 l 1,23,-1
 930 900 l 1,24,-1
 762 586 l 1,25,26
 819 565 819 565 863.5 522.5 c 128,-1,27
 908 480 908 480 934 423 c 128,-1,28
 960 366 960 366 960 299 c 0,29,30
 960 209 960 209 914 136.5 c 128,-1,31
 868 64 868 64 792 22 c 128,-1,32
 716 -20 716 -20 626 -20 c 0,0,1
EndSplineSet
EndChar

StartChar: T
Encoding: 84 84 173
Width: 710
GlyphClass: 2
Flags: W
AnchorPoint: "Anchor-4" 355 450 basechar 0
AnchorPoint: "Anchor-1" 355 0 basechar 0
AnchorPoint: "Anchor-0" 355 900 basechar 0
LayerCount: 2
Fore
SplineSet
42 738 m 1,0,-1
 42 900 l 1,1,-1
 668 900 l 1,2,-1
 668 738 l 1,3,-1
 448 738 l 1,4,-1
 448 0 l 1,5,-1
 262 0 l 1,6,-1
 262 738 l 1,7,-1
 42 738 l 1,0,-1
EndSplineSet
Position2: "Single Positioning lookup 1 subtable" dx=0 dy=0 dh=60 dv=0
EndChar

StartChar: Tbar
Encoding: 358 358 174
Width: 710
GlyphClass: 1
Flags: W
LayerCount: 2
Fore
SplineSet
262 0 m 1,0,-1
 262 387 l 1,1,-1
 115 387 l 1,2,-1
 115 513 l 1,3,-1
 262 513 l 1,4,-1
 262 738 l 1,5,-1
 42 738 l 1,6,-1
 42 900 l 1,7,-1
 668 900 l 1,8,-1
 668 738 l 1,9,-1
 448 738 l 1,10,-1
 448 513 l 1,11,-1
 595 513 l 1,12,-1
 595 387 l 1,13,-1
 448 387 l 1,14,-1
 448 0 l 1,15,-1
 262 0 l 1,0,-1
EndSplineSet
Position2: "Single Positioning lookup 1 subtable" dx=0 dy=0 dh=60 dv=0
EndChar

StartChar: uni0162
Encoding: 354 354 176
Width: 710
GlyphClass: 1
Flags: W
LayerCount: 2
Fore
SplineSet
81 -192 m 1,0,-1
 262 0 l 1,1,-1
 262 738 l 1,2,-1
 42 738 l 1,3,-1
 42 900 l 1,4,-1
 668 900 l 1,5,-1
 668 738 l 1,6,-1
 448 738 l 1,7,-1
 448 0 l 1,8,-1
 296 -192 l 1,9,-1
 81 -192 l 1,0,-1
EndSplineSet
Substitution2: "'locl' Localized Forms in Latin lookup 11 subtable" uni021A
Substitution2: "'aalt' Access All Alternates in Latin lookup 0 subtable" uni021A
Position2: "Single Positioning lookup 1 subtable" dx=0 dy=0 dh=60 dv=0
EndChar

StartChar: U
Encoding: 85 85 178
Width: 800
GlyphClass: 2
Flags: W
AnchorPoint: "Anchor-3" 430 0 basechar 0
AnchorPoint: "Anchor-2" 635 900 basechar 0
AnchorPoint: "Anchor-1" 400 0 basechar 0
AnchorPoint: "Anchor-0" 400 900 basechar 0
LayerCount: 2
Fore
SplineSet
400 -21 m 0,0,1
 305 -21 305 -21 231 18 c 128,-1,2
 157 57 157 57 114.5 129.5 c 128,-1,3
 72 202 72 202 72 303 c 2,4,-1
 72 900 l 1,5,-1
 258 900 l 1,6,-1
 258 312 l 2,7,8
 258 239 258 239 298.5 196 c 128,-1,9
 339 153 339 153 403 153 c 0,10,11
 466 153 466 153 507 194.5 c 128,-1,12
 548 236 548 236 548 306 c 2,13,-1
 548 900 l 1,14,-1
 728 900 l 1,15,-1
 728 306 l 2,16,17
 728 204 728 204 686 130.5 c 128,-1,18
 644 57 644 57 570.5 18 c 128,-1,19
 497 -21 497 -21 400 -21 c 0,0,1
EndSplineSet
EndChar

StartChar: Uhorn
Encoding: 431 431 187
Width: 940
GlyphClass: 2
Flags: W
AnchorPoint: "Anchor-1" 400 0 basechar 0
AnchorPoint: "Anchor-0" 400 900 basechar 0
LayerCount: 2
Fore
SplineSet
400 -21 m 0,0,1
 305 -21 305 -21 231 18 c 128,-1,2
 157 57 157 57 114.5 129.5 c 128,-1,3
 72 202 72 202 72 303 c 2,4,-1
 72 900 l 1,5,-1
 258 900 l 1,6,-1
 258 312 l 2,7,8
 258 239 258 239 298.5 196 c 128,-1,9
 339 153 339 153 403 153 c 0,10,11
 466 153 466 153 507 194.5 c 128,-1,12
 548 236 548 236 548 306 c 2,13,-1
 548 900 l 1,14,-1
 716 900 l 1,15,-1
 716 794 l 1,16,17
 718 794 718 794 720.5 794 c 128,-1,18
 723 794 723 794 725 794 c 0,19,20
 748 794 748 794 767 811.5 c 128,-1,21
 786 829 786 829 786 868 c 0,22,23
 786 886 786 886 781 910.5 c 128,-1,24
 776 935 776 935 762 960 c 1,25,-1
 912 960 l 1,26,27
 926 935 926 935 931 912 c 128,-1,28
 936 889 936 889 936 866 c 0,29,30
 936 806 936 806 912 764.5 c 128,-1,31
 888 723 888 723 850 701.5 c 128,-1,32
 812 680 812 680 769 680 c 0,33,34
 750 680 750 680 728 685 c 1,35,-1
 728 306 l 2,36,37
 728 204 728 204 686 130.5 c 128,-1,38
 644 57 644 57 570.5 18 c 128,-1,39
 497 -21 497 -21 400 -21 c 0,0,1
EndSplineSet
EndChar

StartChar: Uogonek
Encoding: 370 370 196
Width: 800
GlyphClass: 1
Flags: W
LayerCount: 2
Fore
SplineSet
496 -318 m 1,0,1
 409 -318 409 -318 352 -278 c 128,-1,2
 295 -238 295 -238 295 -153 c 0,3,4
 295 -127 295 -127 303.5 -94.5 c 128,-1,5
 312 -62 312 -62 340 -17 c 1,6,7
 261 -5 261 -5 200.5 36.5 c 128,-1,8
 140 78 140 78 106 145.5 c 128,-1,9
 72 213 72 213 72 303 c 2,10,-1
 72 900 l 1,11,-1
 258 900 l 1,12,-1
 258 312 l 2,13,14
 258 239 258 239 298.5 196 c 128,-1,15
 339 153 339 153 403 153 c 0,16,17
 466 153 466 153 507 194.5 c 128,-1,18
 548 236 548 236 548 306 c 2,19,-1
 548 900 l 1,20,-1
 728 900 l 1,21,-1
 728 306 l 2,22,23
 728 179 728 179 664.5 97.5 c 128,-1,24
 601 16 601 16 496 -10 c 1,25,26
 474 -36 474 -36 459.5 -61.5 c 128,-1,27
 445 -87 445 -87 445 -116 c 0,28,29
 445 -153 445 -153 468.5 -171 c 128,-1,30
 492 -189 492 -189 526 -190 c 1,31,-1
 496 -318 l 1,0,1
EndSplineSet
EndChar

StartChar: V
Encoding: 86 86 199
Width: 770
GlyphClass: 1
Flags: W
LayerCount: 2
Fore
SplineSet
196 900 m 5,0,-1
 343 530 l 2,1,2
 355 499 355 499 367 469.5 c 128,-1,3
 379 440 379 440 390 404 c 1,4,5
 400 439 400 439 411.5 467.5 c 128,-1,6
 423 496 423 496 436 530 c 2,7,-1
 583 900 l 1,8,-1
 738.8 838 l 0,9,10
 738.8 838 738.8 838 386 -30 c 1,11,-1
 384 -30 l 1,12,-1
 32.0129032258 836 l 4,13,14
 32.0129032258 836 32.0129032258 836 196 900 c 5,0,-1
EndSplineSet
EndChar

StartChar: W
Encoding: 87 87 200
Width: 1220
GlyphClass: 2
Flags: W
AnchorPoint: "Anchor-1" 611 0 basechar 0
AnchorPoint: "Anchor-0" 614 900 basechar 0
LayerCount: 2
Fore
SplineSet
196 900 m 5,0,-1
 348 516 l 2,1,2
 359 489 359 489 369.5 459.5 c 128,-1,3
 380 430 380 430 393 388 c 1,4,5
 406 430 406 430 418.5 459.5 c 128,-1,6
 431 489 431 489 442 516 c 2,7,-1
 614 930 l 1,8,-1
 788 516 l 2,9,10
 799 489 799 489 812 459.5 c 128,-1,11
 825 430 825 430 838 388 c 1,12,13
 851 430 851 430 862 459.5 c 128,-1,14
 873 489 873 489 883 516 c 2,15,-1
 1033 900 l 1,16,-1
 1190.18025751 840 l 0,17,18
 1190.18025751 840 1190.18025751 840 844 -32 c 1,19,-1
 658 412 l 2,20,21
 647 439 647 439 635 469 c 128,-1,22
 623 499 623 499 610 541 c 1,23,24
 597 499 597 499 585 469.5 c 128,-1,25
 573 440 573 440 562 413 c 2,26,-1
 376 -32 l 1,27,-1
 30.6137339056 838 l 4,28,29
 30.6137339056 838 30.6137339056 838 196 900 c 5,0,-1
EndSplineSet
EndChar

StartChar: X
Encoding: 88 88 205
Width: 870
GlyphClass: 1
Flags: W
LayerCount: 2
Fore
SplineSet
661 0 m 5,0,-1
 502 270 l 2,1,2
 486 298 486 298 470 328 c 128,-1,3
 454 358 454 358 435 393 c 1,4,5
 416 358 416 358 400.5 328 c 128,-1,6
 385 298 385 298 368 270 c 2,7,-1
 209 0 l 1,8,-1
 59.0947775629 90 l 0,9,10
 59.0947775629 90 59.0947775629 90 311 517 c 1,11,-1
 133.968668407 808 l 0,12,13
 133.968668407 808 133.968668407 808 284 900 c 1,14,-1
 363 773 l 2,15,16
 381 744 381 744 399.5 711 c 128,-1,17
 418 678 418 678 440 633 c 1,18,19
 461 679 461 679 479 712 c 128,-1,20
 497 745 497 745 516 774 c 2,21,-1
 596 900 l 1,22,-1
 737.846560847 811 l 0,23,24
 737.846560847 811 737.846560847 811 562 522 c 1,25,-1
 815.716475096 92 l 4,26,27
 815.716475096 92 815.716475096 92 661 0 c 5,0,-1
EndSplineSet
EndChar

StartChar: Y
Encoding: 89 89 206
Width: 710
GlyphClass: 2
Flags: W
AnchorPoint: "Anchor-1" 356 0 basechar 0
AnchorPoint: "Anchor-0" 356 900 basechar 0
LayerCount: 2
Fore
SplineSet
661.379746835 822 m 4,0,1
 661.379746835 822 661.379746835 822 445 426 c 1,2,-1
 445 0 l 1,3,-1
 265 0 l 1,4,-1
 265 426 l 1,5,-1
 50.805907173 818 l 0,6,7
 50.805907173 818 50.805907173 818 208 900 c 1,8,-1
 314 698 l 2,9,10
 325 676 325 676 337 653.5 c 128,-1,11
 349 631 349 631 360 600 c 1,12,13
 372 631 372 631 383.5 653.5 c 128,-1,14
 395 676 395 676 407 698 c 2,15,-1
 514 900 l 5,16,-1
 661.379746835 822 l 4,0,1
EndSplineSet
Position2: "Single Positioning lookup 1 subtable" dx=0 dy=0 dh=60 dv=0
EndChar

StartChar: Z
Encoding: 90 90 215
Width: 680
GlyphClass: 2
Flags: W
AnchorPoint: "Anchor-4" 333 450 basechar 0
AnchorPoint: "Anchor-1" 324 0 basechar 0
AnchorPoint: "Anchor-0" 354 900 basechar 0
LayerCount: 2
Fore
SplineSet
18 0 m 1,0,-1
 385 738 l 1,1,-1
 63 738 l 1,2,-1
 63 900 l 1,3,-1
 650 900 l 1,4,-1
 283 162 l 1,5,-1
 629 162 l 1,6,-1
 629 0 l 1,7,-1
 18 0 l 1,0,-1
EndSplineSet
EndChar

StartChar: a
Encoding: 97 97 219
Width: 740
GlyphClass: 2
Flags: W
AnchorPoint: "Anchor-3" 599 0 basechar 0
AnchorPoint: "Anchor-1" 350 0 basechar 0
AnchorPoint: "Anchor-0" 360 600 basechar 0
LayerCount: 2
Fore
SplineSet
336 -16 m 0,0,1
 253 -16 253 -16 185 27 c 128,-1,2
 117 70 117 70 76.5 141.5 c 128,-1,3
 36 213 36 213 36 300 c 256,4,5
 36 387 36 387 76.5 459 c 128,-1,6
 117 531 117 531 185 573.5 c 128,-1,7
 253 616 253 616 336 616 c 0,8,9
 394 616 394 616 442 595.5 c 128,-1,10
 490 575 490 575 524 539 c 1,11,-1
 524 600 l 1,12,-1
 674 600 l 1,13,-1
 674 0 l 1,14,-1
 524 0 l 1,15,-1
 524 61 l 1,16,17
 490 25 490 25 442 4.5 c 128,-1,18
 394 -16 394 -16 336 -16 c 0,0,1
357 137 m 256,19,20
 401 137 401 137 437 159 c 128,-1,21
 473 181 473 181 494.5 218 c 128,-1,22
 516 255 516 255 516 300 c 256,23,24
 516 345 516 345 494.5 382 c 128,-1,25
 473 419 473 419 437 441 c 128,-1,26
 401 463 401 463 357 463 c 256,27,28
 313 463 313 463 277 441 c 128,-1,29
 241 419 241 419 219.5 382 c 128,-1,30
 198 345 198 345 198 300 c 256,31,32
 198 255 198 255 219.5 218 c 128,-1,33
 241 181 241 181 277 159 c 128,-1,34
 313 137 313 137 357 137 c 256,19,20
EndSplineSet
Substitution2: "'ss02' Style Set 2 in Latin lookup 40 subtable" a.ss02
Substitution2: "Single Substitution lookup 29 subtable" ordfeminine
AlternateSubs2: "'aalt' Access All Alternates in Latin lookup 1 subtable" a.ss02 ordfeminine
EndChar

StartChar: aogonek
Encoding: 261 261 240
Width: 740
GlyphClass: 1
Flags: W
LayerCount: 2
Fore
SplineSet
665 -318 m 1,0,1
 578 -318 578 -318 521 -278 c 128,-1,2
 464 -238 464 -238 464 -153 c 0,3,4
 464 -113 464 -113 480 -75 c 128,-1,5
 496 -37 496 -37 524 0 c 1,6,-1
 524 61 l 1,7,8
 490 25 490 25 442 4.5 c 128,-1,9
 394 -16 394 -16 336 -16 c 0,10,11
 253 -16 253 -16 185 27 c 128,-1,12
 117 70 117 70 76.5 141.5 c 128,-1,13
 36 213 36 213 36 300 c 256,14,15
 36 387 36 387 76.5 459 c 128,-1,16
 117 531 117 531 185 573.5 c 128,-1,17
 253 616 253 616 336 616 c 0,18,19
 394 616 394 616 442 595.5 c 128,-1,20
 490 575 490 575 524 539 c 1,21,-1
 524 600 l 1,22,-1
 674 600 l 1,23,-1
 674 0 l 1,24,25
 648 -29 648 -29 631 -56.5 c 128,-1,26
 614 -84 614 -84 614 -116 c 0,27,28
 614 -153 614 -153 637.5 -171 c 128,-1,29
 661 -189 661 -189 695 -190 c 1,30,-1
 665 -318 l 1,0,1
357 137 m 256,31,32
 401 137 401 137 437 159 c 128,-1,33
 473 181 473 181 494.5 218 c 128,-1,34
 516 255 516 255 516 300 c 256,35,36
 516 345 516 345 494.5 382 c 128,-1,37
 473 419 473 419 437 441 c 128,-1,38
 401 463 401 463 357 463 c 256,39,40
 313 463 313 463 277 441 c 128,-1,41
 241 419 241 419 219.5 382 c 128,-1,42
 198 345 198 345 198 300 c 256,43,44
 198 255 198 255 219.5 218 c 128,-1,45
 241 181 241 181 277 159 c 128,-1,46
 313 137 313 137 357 137 c 256,31,32
EndSplineSet
Substitution2: "'ss02' Style Set 2 in Latin lookup 40 subtable" aogonek.ss02
Substitution2: "'aalt' Access All Alternates in Latin lookup 0 subtable" aogonek.ss02
EndChar

StartChar: ae
Encoding: 230 230 244
Width: 1090
GlyphClass: 2
Flags: W
AnchorPoint: "Anchor-1" 540 0 basechar 0
AnchorPoint: "Anchor-0" 540 600 basechar 0
LayerCount: 2
Fore
SplineSet
777 -20 m 0,0,1
 695 -20 695 -20 629 8 c 128,-1,2
 563 36 563 36 518 85 c 1,3,4
 475 39 475 39 414.5 12.5 c 128,-1,5
 354 -14 354 -14 282 -14 c 0,6,7
 206 -14 206 -14 150.5 10.5 c 128,-1,8
 95 35 95 35 65.5 79 c 128,-1,9
 36 123 36 123 36 184 c 0,10,11
 36 274 36 274 109 329 c 128,-1,12
 182 384 182 384 301 384 c 0,13,14
 387 384 387 384 466 352 c 1,15,-1
 468 364 l 1,16,17
 467 413 467 413 423 447.5 c 128,-1,18
 379 482 379 482 304 482 c 0,19,20
 249 482 249 482 200.5 462.5 c 128,-1,21
 152 443 152 443 115 413 c 1,22,-1
 80 555 l 1,23,24
 133 587 133 587 196.5 603.5 c 128,-1,25
 260 620 260 620 324 620 c 0,26,27
 394 620 394 620 450.5 601 c 128,-1,28
 507 582 507 582 545 547 c 1,29,30
 586 582 586 582 638.5 601 c 128,-1,31
 691 620 691 620 750 620 c 0,32,33
 839 620 839 620 909 579.5 c 128,-1,34
 979 539 979 539 1019.5 469 c 128,-1,35
 1060 399 1060 399 1060 310 c 2,36,-1
 1060 249 l 1,37,-1
 693 249 l 2,38,39
 669 249 669 249 646 252 c 128,-1,40
 623 255 623 255 600 259 c 1,41,42
 612 199 612 199 659.5 161.5 c 128,-1,43
 707 124 707 124 781 124 c 0,44,45
 838 124 838 124 883.5 147 c 128,-1,46
 929 170 929 170 958 204 c 1,47,-1
 996 48 l 1,48,49
 951 14 951 14 894.5 -3 c 128,-1,50
 838 -20 838 -20 777 -20 c 0,0,1
296 118 m 0,51,52
 357 118 357 118 406.5 149 c 128,-1,53
 456 180 456 180 467 223 c 1,54,-1
 466 231 l 1,55,56
 435 244 435 244 396 251 c 128,-1,57
 357 258 357 258 320 258 c 0,58,59
 262 258 262 258 230 239.5 c 128,-1,60
 198 221 198 221 198 187 c 0,61,62
 198 156 198 156 224.5 137 c 128,-1,63
 251 118 251 118 296 118 c 0,51,52
596 364 m 1,64,65
 620 369 620 369 644 372 c 128,-1,66
 668 375 668 375 693 375 c 2,67,-1
 800 375 l 2,68,69
 828 375 828 375 853 373 c 128,-1,70
 878 371 878 371 900 366 c 1,71,72
 885 420 885 420 845.5 451 c 128,-1,73
 806 482 806 482 748 482 c 0,74,75
 693 482 693 482 652.5 450.5 c 128,-1,76
 612 419 612 419 596 364 c 1,64,65
EndSplineSet
EndChar

StartChar: a.ss02
Encoding: 65539 -1 246
Width: 670
GlyphClass: 2
Flags: W
AnchorPoint: "Anchor-3" 541 0 basechar 0
AnchorPoint: "Anchor-1" 323 0 basechar 0
AnchorPoint: "Anchor-0" 332 600 basechar 0
LayerCount: 2
Fore
SplineSet
262 -14 m 0,0,1
 162 -14 162 -14 99 40.5 c 128,-1,2
 36 95 36 95 36 181 c 0,3,4
 36 273 36 273 109 328.5 c 128,-1,5
 182 384 182 384 301 384 c 0,6,7
 385 384 385 384 466 351 c 1,8,-1
 466 360 l 2,9,10
 466 412 466 412 422 447 c 128,-1,11
 378 482 378 482 307 482 c 0,12,13
 255 482 255 482 203.5 462 c 128,-1,14
 152 442 152 442 115 407 c 1,15,-1
 80 555 l 1,16,17
 133 587 133 587 196.5 603.5 c 128,-1,18
 260 620 260 620 324 620 c 0,19,20
 412 620 412 620 477.5 590 c 128,-1,21
 543 560 543 560 579.5 506 c 128,-1,22
 616 452 616 452 616 380 c 2,23,-1
 616 0 l 1,24,-1
 466 0 l 1,25,-1
 466 70 l 1,26,27
 429 30 429 30 376.5 8 c 128,-1,28
 324 -14 324 -14 262 -14 c 0,0,1
296 118 m 0,29,30
 338 118 338 118 375.5 133.5 c 128,-1,31
 413 149 413 149 438 175 c 128,-1,32
 463 201 463 201 466 231 c 1,33,34
 435 244 435 244 396 251 c 128,-1,35
 357 258 357 258 320 258 c 0,36,37
 262 258 262 258 230 239.5 c 128,-1,38
 198 221 198 221 198 187 c 0,39,40
 198 156 198 156 224.5 137 c 128,-1,41
 251 118 251 118 296 118 c 0,29,30
EndSplineSet
EndChar

StartChar: aogonek.ss02
Encoding: 65560 -1 267
Width: 670
GlyphClass: 1
Flags: W
LayerCount: 2
Fore
SplineSet
607 -318 m 1,0,1
 520 -318 520 -318 463 -278 c 128,-1,2
 406 -238 406 -238 406 -153 c 0,3,4
 406 -113 406 -113 422 -75 c 128,-1,5
 438 -37 438 -37 466 0 c 1,6,-1
 466 70 l 1,7,8
 429 30 429 30 376.5 8 c 128,-1,9
 324 -14 324 -14 262 -14 c 0,10,11
 162 -14 162 -14 99 40.5 c 128,-1,12
 36 95 36 95 36 181 c 0,13,14
 36 273 36 273 109 328.5 c 128,-1,15
 182 384 182 384 301 384 c 0,16,17
 385 384 385 384 466 351 c 1,18,-1
 466 360 l 2,19,20
 466 412 466 412 422 447 c 128,-1,21
 378 482 378 482 307 482 c 0,22,23
 255 482 255 482 203.5 462 c 128,-1,24
 152 442 152 442 115 407 c 1,25,-1
 80 555 l 1,26,27
 133 587 133 587 196.5 603.5 c 128,-1,28
 260 620 260 620 324 620 c 0,29,30
 412 620 412 620 477.5 590 c 128,-1,31
 543 560 543 560 579.5 506 c 128,-1,32
 616 452 616 452 616 380 c 2,33,-1
 616 0 l 1,34,35
 590 -29 590 -29 573 -56.5 c 128,-1,36
 556 -84 556 -84 556 -116 c 0,37,38
 556 -153 556 -153 579.5 -171 c 128,-1,39
 603 -189 603 -189 637 -190 c 1,40,-1
 607 -318 l 1,0,1
296 118 m 0,41,42
 338 118 338 118 375.5 133.5 c 128,-1,43
 413 149 413 149 438 175 c 128,-1,44
 463 201 463 201 466 231 c 1,45,46
 435 244 435 244 396 251 c 128,-1,47
 357 258 357 258 320 258 c 0,48,49
 262 258 262 258 230 239.5 c 128,-1,50
 198 221 198 221 198 187 c 0,51,52
 198 156 198 156 224.5 137 c 128,-1,53
 251 118 251 118 296 118 c 0,41,42
EndSplineSet
EndChar

StartChar: b
Encoding: 98 98 271
Width: 740
GlyphClass: 2
Flags: W
AnchorPoint: "Anchor-1" 378 0 basechar 0
AnchorPoint: "Anchor-0" 378 914 basechar 0
LayerCount: 2
Fore
SplineSet
403 -16 m 0,0,1
 346 -16 346 -16 298.5 4 c 128,-1,2
 251 24 251 24 216 59 c 1,3,-1
 216 0 l 1,4,-1
 66 0 l 1,5,-1
 66 960 l 1,6,-1
 240 960 l 1,7,-1
 240 562 l 1,8,9
 273 588 273 588 314 602 c 128,-1,10
 355 616 355 616 403 616 c 0,11,12
 487 616 487 616 555 573.5 c 128,-1,13
 623 531 623 531 663.5 459 c 128,-1,14
 704 387 704 387 704 300 c 256,15,16
 704 213 704 213 663.5 141.5 c 128,-1,17
 623 70 623 70 555 27 c 128,-1,18
 487 -16 487 -16 403 -16 c 0,0,1
383 137 m 256,19,20
 427 137 427 137 463 159 c 128,-1,21
 499 181 499 181 520.5 218 c 128,-1,22
 542 255 542 255 542 300 c 256,23,24
 542 345 542 345 520.5 382 c 128,-1,25
 499 419 499 419 463 441 c 128,-1,26
 427 463 427 463 383 463 c 256,27,28
 339 463 339 463 303 441 c 128,-1,29
 267 419 267 419 245.5 382 c 128,-1,30
 224 345 224 345 224 300 c 256,31,32
 224 255 224 255 245.5 218 c 128,-1,33
 267 181 267 181 303 159 c 128,-1,34
 339 137 339 137 383 137 c 256,19,20
EndSplineSet
EndChar

StartChar: c
Encoding: 99 99 272
Width: 600
GlyphClass: 2
Flags: W
AnchorPoint: "Anchor-1" 371 0 basechar 0
AnchorPoint: "Anchor-0" 371 600 basechar 0
LayerCount: 2
Fore
SplineSet
576 61 m 5,0,1
 533 21 533 21 477.5 0.5 c 128,-1,2
 422 -20 422 -20 360 -20 c 0,3,4
 271 -20 271 -20 197 23 c 128,-1,5
 123 66 123 66 79.5 139 c 128,-1,6
 36 212 36 212 36 300 c 0,7,8
 36 389 36 389 79.5 461.5 c 128,-1,9
 123 534 123 534 197 577 c 128,-1,10
 271 620 271 620 360 620 c 0,11,12
 422 620 422 620 477.5 599.5 c 128,-1,13
 533 579 533 579 576 539 c 1,14,-1
 475.494854733 425 l 0,15,16
 470.150363658 429.347323095 470.150363658 429.347323095 464.5 433.5 c 0,17,18
 423 464 423 464 367 464 c 0,19,20
 320 464 320 464 283 442 c 128,-1,21
 246 420 246 420 225 383 c 128,-1,22
 204 346 204 346 204 300 c 0,23,24
 204 255 204 255 225 217.5 c 128,-1,25
 246 180 246 180 283 158 c 128,-1,26
 320 136 320 136 367 136 c 0,27,28
 423 136 423 136 464.5 166.5 c 0,29,30
 470.150363658 170.652676905 470.150363658 170.652676905 475.494854733 175 c 4,31,32
 475.494854733 175 475.494854733 175 576 61 c 5,0,1
EndSplineSet
EndChar

StartChar: ccedilla
Encoding: 231 231 275
Width: 600
GlyphClass: 1
Flags: W
LayerCount: 2
Fore
SplineSet
97 -192 m 1,0,-1
 284 -11 l 1,1,2
 213 6 213 6 157 50.5 c 128,-1,3
 101 95 101 95 68.5 160 c 128,-1,4
 36 225 36 225 36 300 c 0,5,6
 36 389 36 389 79.5 461.5 c 128,-1,7
 123 534 123 534 197 577 c 128,-1,8
 271 620 271 620 360 620 c 0,9,10
 422 620 422 620 477.5 599.5 c 128,-1,11
 533 579 533 579 576 539 c 1,12,-1
 531 362 l 1,13,14
 506 403 506 403 464.5 433.5 c 128,-1,15
 423 464 423 464 367 464 c 0,16,17
 320 464 320 464 283 442 c 128,-1,18
 246 420 246 420 225 383 c 128,-1,19
 204 346 204 346 204 300 c 0,20,21
 204 255 204 255 225 217.5 c 128,-1,22
 246 180 246 180 283 158 c 128,-1,23
 320 136 320 136 367 136 c 0,24,25
 423 136 423 136 464.5 166.5 c 128,-1,26
 506 197 506 197 531 238 c 1,27,-1
 576 61 l 1,28,29
 547 34 547 34 512 16 c 128,-1,30
 477 -2 477 -2 438 -11 c 1,31,-1
 312 -192 l 1,32,-1
 97 -192 l 1,0,-1
EndSplineSet
EndChar

StartChar: d
Encoding: 100 100 278
Width: 740
GlyphClass: 2
Flags: W
AnchorPoint: "Anchor-4" 592 780 basechar 0
AnchorPoint: "Anchor-2" 674 960 basechar 0
AnchorPoint: "Anchor-1" 371 0 basechar 0
AnchorPoint: "Anchor-0" 371 600 basechar 0
LayerCount: 2
Fore
SplineSet
337 -16 m 0,0,1
 253 -16 253 -16 185 27 c 128,-1,2
 117 70 117 70 76.5 141.5 c 128,-1,3
 36 213 36 213 36 300 c 256,4,5
 36 387 36 387 76.5 459 c 128,-1,6
 117 531 117 531 185 573.5 c 128,-1,7
 253 616 253 616 337 616 c 0,8,9
 385 616 385 616 426 602 c 128,-1,10
 467 588 467 588 500 562 c 1,11,-1
 500 960 l 1,12,-1
 674 960 l 1,13,-1
 674 0 l 1,14,-1
 524 0 l 1,15,-1
 524 59 l 1,16,17
 490 24 490 24 442 4 c 128,-1,18
 394 -16 394 -16 337 -16 c 0,0,1
357 137 m 256,19,20
 401 137 401 137 437 159 c 128,-1,21
 473 181 473 181 494.5 218 c 128,-1,22
 516 255 516 255 516 300 c 256,23,24
 516 345 516 345 494.5 382 c 128,-1,25
 473 419 473 419 437 441 c 128,-1,26
 401 463 401 463 357 463 c 256,27,28
 313 463 313 463 277 441 c 128,-1,29
 241 419 241 419 219.5 382 c 128,-1,30
 198 345 198 345 198 300 c 256,31,32
 198 255 198 255 219.5 218 c 128,-1,33
 241 181 241 181 277 159 c 128,-1,34
 313 137 313 137 357 137 c 256,19,20
EndSplineSet
EndChar

StartChar: eth
Encoding: 240 240 279
Width: 720
GlyphClass: 1
Flags: W
LayerCount: 2
Fore
SplineSet
361 -20 m 256,0,1
 271 -20 271 -20 197 23 c 128,-1,2
 123 66 123 66 79.5 139 c 128,-1,3
 36 212 36 212 36 301 c 0,4,5
 36 388 36 388 77 459 c 128,-1,6
 118 530 118 530 186.5 572 c 128,-1,7
 255 614 255 614 339 614 c 0,8,9
 356 614 356 614 373 612.5 c 128,-1,10
 390 611 390 611 406 606 c 1,11,12
 383 638 383 638 358 670.5 c 128,-1,13
 333 703 333 703 307 735 c 1,14,-1
 168 645 l 1,15,-1
 122 717 l 1,16,-1
 253 802 l 1,17,18
 220 842 220 842 186.5 881 c 128,-1,19
 153 920 153 920 118 960 c 1,20,-1
 303 960 l 1,21,22
 320 940 320 940 337.5 919.5 c 128,-1,23
 355 899 355 899 372 879 c 1,24,-1
 497 960 l 1,25,-1
 543 889 l 1,26,-1
 425 812 l 1,27,28
 477 748 477 748 518.5 692 c 128,-1,29
 560 636 560 636 585 598 c 0,30,31
 635 522 635 522 659.5 450.5 c 128,-1,32
 684 379 684 379 684 310 c 0,33,34
 684 215 684 215 641 140.5 c 128,-1,35
 598 66 598 66 524.5 23 c 128,-1,36
 451 -20 451 -20 361 -20 c 256,0,1
360 136 m 256,37,38
 405 136 405 136 441.5 158 c 128,-1,39
 478 180 478 180 499.5 217.5 c 128,-1,40
 521 255 521 255 521 300 c 0,41,42
 521 346 521 346 499.5 383 c 128,-1,43
 478 420 478 420 441.5 442 c 128,-1,44
 405 464 405 464 360 464 c 256,45,46
 315 464 315 464 278.5 442 c 128,-1,47
 242 420 242 420 220.5 383 c 128,-1,48
 199 346 199 346 199 300 c 0,49,50
 199 255 199 255 220.5 217.5 c 128,-1,51
 242 180 242 180 278.5 158 c 128,-1,52
 315 136 315 136 360 136 c 256,37,38
EndSplineSet
EndChar

StartChar: dcroat
Encoding: 273 273 281
Width: 740
GlyphClass: 1
Flags: W
LayerCount: 2
Fore
SplineSet
337 -16 m 0,0,1
 253 -16 253 -16 185 27 c 128,-1,2
 117 70 117 70 76.5 141.5 c 128,-1,3
 36 213 36 213 36 300 c 256,4,5
 36 387 36 387 76.5 459 c 128,-1,6
 117 531 117 531 185 573.5 c 128,-1,7
 253 616 253 616 337 616 c 0,8,9
 390 616 390 616 434 599 c 128,-1,10
 478 582 478 582 512 552 c 1,11,-1
 512 726 l 1,12,-1
 315 726 l 1,13,-1
 315 834 l 1,14,-1
 512 834 l 1,15,-1
 512 960 l 1,16,-1
 674 960 l 1,17,-1
 674 834 l 1,18,-1
 731 834 l 1,19,-1
 731 726 l 1,20,-1
 674 726 l 1,21,-1
 674 0 l 1,22,-1
 524 0 l 1,23,-1
 524 59 l 1,24,25
 490 24 490 24 442 4 c 128,-1,26
 394 -16 394 -16 337 -16 c 0,0,1
357 137 m 256,27,28
 401 137 401 137 437 159 c 128,-1,29
 473 181 473 181 494.5 218 c 128,-1,30
 516 255 516 255 516 300 c 256,31,32
 516 345 516 345 494.5 382 c 128,-1,33
 473 419 473 419 437 441 c 128,-1,34
 401 463 401 463 357 463 c 256,35,36
 313 463 313 463 277 441 c 128,-1,37
 241 419 241 419 219.5 382 c 128,-1,38
 198 345 198 345 198 300 c 256,39,40
 198 255 198 255 219.5 218 c 128,-1,41
 241 181 241 181 277 159 c 128,-1,42
 313 137 313 137 357 137 c 256,27,28
EndSplineSet
EndChar

StartChar: e
Encoding: 101 101 283
Width: 690
GlyphClass: 2
Flags: W
AnchorPoint: "Anchor-3" 492 0 basechar 0
AnchorPoint: "Anchor-1" 352 0 basechar 0
AnchorPoint: "Anchor-0" 352 600 basechar 0
LayerCount: 2
Fore
SplineSet
596 48 m 5,0,1
 551 14 551 14 494.5 -3 c 128,-1,2
 438 -20 438 -20 377 -20 c 0,3,4
 276 -20 276 -20 199 22 c 128,-1,5
 122 64 122 64 79 137.5 c 128,-1,6
 36 211 36 211 36 306 c 0,7,8
 36 397 36 397 78 467.5 c 128,-1,9
 120 538 120 538 191.5 579 c 128,-1,10
 263 620 263 620 350 620 c 0,11,12
 439 620 439 620 509 579.5 c 128,-1,13
 579 539 579 539 619.5 469 c 128,-1,14
 660 399 660 399 660 310 c 2,15,-1
 660 249 l 1,16,-1
 202.031559745 250 l 0,17,18
 215.614058224 196.146796139 215.614058224 196.146796139 259.5 161.5 c 0,19,20
 307 124 307 124 381 124 c 0,21,22
 438 124 438 124 483.5 147 c 0,23,24
 497.534972184 154.094601324 497.534972184 154.094601324 510 162.235832227 c 4,25,26
 510 162.235832227 510 162.235832227 596 48 c 5,0,1
500 366 m 1,27,28
 485 420 485 420 445.5 451 c 128,-1,29
 406 482 406 482 348 482 c 0,30,31
 293 482 293 482 252.5 450.5 c 128,-1,32
 212 419 212 419 196 364 c 1,33,34
 196 364 196 364 500 366 c 1,27,28
EndSplineSet
EndChar

StartChar: eogonek
Encoding: 281 281 301
Width: 690
GlyphClass: 2
Flags: W
AnchorPoint: "Anchor-0" 355 600 basechar 0
LayerCount: 2
Fore
SplineSet
548 -318 m 1,0,1
 461 -318 461 -318 404 -278 c 128,-1,2
 347 -238 347 -238 347 -153 c 0,3,4
 347 -124 347 -124 359 -90 c 128,-1,5
 371 -56 371 -56 402 -19 c 1,6,7
 396 -20 396 -20 389.5 -20 c 128,-1,8
 383 -20 383 -20 377 -20 c 0,9,10
 276 -20 276 -20 199 22 c 128,-1,11
 122 64 122 64 79 137.5 c 128,-1,12
 36 211 36 211 36 306 c 0,13,14
 36 397 36 397 78 467.5 c 128,-1,15
 120 538 120 538 191.5 579 c 128,-1,16
 263 620 263 620 350 620 c 0,17,18
 439 620 439 620 509 579.5 c 128,-1,19
 579 539 579 539 619.5 469 c 128,-1,20
 660 399 660 399 660 310 c 2,21,-1
 660 249 l 1,22,-1
 294 249 l 2,23,24
 269 249 269 249 246 252 c 128,-1,25
 223 255 223 255 200 259 c 1,26,27
 212 199 212 199 259.5 161.5 c 128,-1,28
 307 124 307 124 381 124 c 0,29,30
 438 124 438 124 483.5 146 c 128,-1,31
 529 168 529 168 559 200 c 1,32,-1
 596 48 l 1,33,34
 541 -15 541 -15 519 -49.5 c 128,-1,35
 497 -84 497 -84 497 -116 c 0,36,37
 497 -153 497 -153 520.5 -171 c 128,-1,38
 544 -189 544 -189 578 -190 c 1,39,-1
 548 -318 l 1,0,1
196 364 m 1,40,41
 246 375 246 375 294 375 c 2,42,-1
 400 375 l 2,43,44
 428 375 428 375 453 373 c 128,-1,45
 478 371 478 371 500 366 c 1,46,47
 485 420 485 420 445.5 451 c 128,-1,48
 406 482 406 482 348 482 c 0,49,50
 293 482 293 482 252.5 450.5 c 128,-1,51
 212 419 212 419 196 364 c 1,40,41
EndSplineSet
EndChar

StartChar: uni0259
Encoding: 601 601 303
Width: 690
GlyphClass: 1
Flags: W
LayerCount: 2
Fore
SplineSet
340 -20 m 256,0,1
 252 -20 252 -20 181.5 20.5 c 128,-1,2
 111 61 111 61 70.5 131.5 c 128,-1,3
 30 202 30 202 30 290 c 2,4,-1
 30 351 l 1,5,-1
 396 351 l 2,6,7
 421 351 421 351 444 348.5 c 128,-1,8
 467 346 467 346 490 341 c 1,9,10
 478 401 478 401 430.5 438.5 c 128,-1,11
 383 476 383 476 309 476 c 0,12,13
 252 476 252 476 206.5 453 c 128,-1,14
 161 430 161 430 132 396 c 1,15,-1
 94 552 l 1,16,17
 139 586 139 586 195.5 603 c 128,-1,18
 252 620 252 620 313 620 c 0,19,20
 415 620 415 620 491.5 578 c 128,-1,21
 568 536 568 536 611 462.5 c 128,-1,22
 654 389 654 389 654 294 c 0,23,24
 654 204 654 204 612 133 c 128,-1,25
 570 62 570 62 499 21 c 128,-1,26
 428 -20 428 -20 340 -20 c 256,0,1
342 118 m 0,27,28
 398 118 398 118 438 149.5 c 128,-1,29
 478 181 478 181 494 236 c 1,30,31
 444 225 444 225 396 225 c 2,32,-1
 290 225 l 2,33,34
 262 225 262 225 237.5 227.5 c 128,-1,35
 213 230 213 230 190 234 c 1,36,37
 205 180 205 180 244.5 149 c 128,-1,38
 284 118 284 118 342 118 c 0,27,28
EndSplineSet
EndChar

StartChar: uni0292
Encoding: 658 658 304
Width: 660
GlyphClass: 2
Flags: W
AnchorPoint: "Anchor-1" 305 -300 basechar 0
AnchorPoint: "Anchor-0" 323 600 basechar 0
LayerCount: 2
Fore
SplineSet
290 -320 m 0,0,1
 205 -320 205 -320 133.5 -282.5 c 128,-1,2
 62 -245 62 -245 18 -184 c 1,3,-1
 109 -5 l 1,4,5
 125 -68 125 -68 174.5 -113 c 128,-1,6
 224 -158 224 -158 292 -158 c 0,7,8
 338 -158 338 -158 374.5 -137 c 128,-1,9
 411 -116 411 -116 433 -80 c 128,-1,10
 455 -44 455 -44 455 1 c 0,11,12
 455 45 455 45 434 80.5 c 128,-1,13
 413 116 413 116 375.5 137 c 128,-1,14
 338 158 338 158 288 158 c 0,15,16
 258 158 258 158 231 150 c 128,-1,17
 204 142 204 142 175 127 c 1,18,-1
 337 444 l 1,19,-1
 78 444 l 1,20,-1
 78 600 l 1,21,-1
 594 600 l 1,22,-1
 423 281 l 1,23,24
 481 260 481 260 526 218.5 c 128,-1,25
 571 177 571 177 597.5 120 c 128,-1,26
 624 63 624 63 624 -4 c 0,27,28
 624 -93 624 -93 578 -165 c 128,-1,29
 532 -237 532 -237 456 -278.5 c 128,-1,30
 380 -320 380 -320 290 -320 c 0,0,1
EndSplineSet
EndChar

StartChar: f
Encoding: 102 102 306
Width: 450
GlyphClass: 2
Flags: W
AnchorPoint: "Anchor-1" 220 0 basechar 0
AnchorPoint: "Anchor-0" 364 960 basechar 0
LayerCount: 2
Fore
SplineSet
411 827.483552437 m 4,0,1
 393.286006427 837 393.286006427 837 373 837 c 0,2,3
 349 837 349 837 328 820 c 128,-1,4
 307 803 307 803 307 757 c 2,5,-1
 307 600 l 1,6,-1
 426 600 l 1,7,-1
 426 462 l 1,8,-1
 310 462 l 1,9,-1
 310 0 l 1,10,-1
 136 0 l 1,11,-1
 136 462 l 1,12,-1
 24 462 l 1,13,-1
 24 600 l 1,14,-1
 139 600 l 1,15,-1
 139 753 l 2,16,17
 139 860 139 860 201.5 916 c 128,-1,18
 264 972 264 972 356 972 c 0,19,20
 390 972 390 972 421.5 964.5 c 128,-1,21
 453 957 453 957 477 941 c 5,22,-1
 411 827.483552437 l 4,0,1
EndSplineSet
EndChar

StartChar: g
Encoding: 103 103 307
Width: 740
GlyphClass: 2
Flags: W
AnchorPoint: "Anchor-4" 599 300 basechar 0
AnchorPoint: "Anchor-1" 381 -360 basechar 0
AnchorPoint: "Anchor-0" 381 600 basechar 0
LayerCount: 2
Fore
SplineSet
184 -126.262554842 m 4,0,1
 196.748914836 -134.963368423 196.748914836 -134.963368423 211 -142.5 c 0,2,3
 263 -170 263 -170 328 -170 c 0,4,5
 420 -170 420 -170 471 -117.5 c 128,-1,6
 522 -65 522 -65 522 17 c 2,7,-1
 522 59 l 1,8,9
 488 24 488 24 440.5 4 c 128,-1,10
 393 -16 393 -16 336 -16 c 0,11,12
 253 -16 253 -16 185 27 c 128,-1,13
 117 70 117 70 76.5 141.5 c 128,-1,14
 36 213 36 213 36 300 c 256,15,16
 36 387 36 387 76.5 459 c 128,-1,17
 117 531 117 531 185 573.5 c 128,-1,18
 253 616 253 616 336 616 c 0,19,20
 394 616 394 616 442 595.5 c 128,-1,21
 490 575 490 575 524 539 c 1,22,-1
 524 600 l 1,23,-1
 674 600 l 1,24,-1
 674 -8 l 2,25,26
 674 -106 674 -106 626 -176 c 128,-1,27
 578 -246 578 -246 499 -283 c 128,-1,28
 420 -320 420 -320 328 -320 c 0,29,30
 258 -320 258 -320 194.5 -299.5 c 128,-1,31
 131 -279 131 -279 85 -244 c 5,32,-1
 184 -126.262554842 l 4,0,1
  Spiro
    328 -320 o
    259.625 -314.875 o
    194.5 -299.5 o
    135.375 -275.375 o
    85 -244 v
    127 -72 v
    164 -111.125 o
    211 -142.5 o
    266.25 -163.125 o
    328 -170 o
    409.75 -156.875 o
    471 -117.5 o
    509.25 -57.625 o
    522 17 [
    522 59 v
    484.625 27.75 o
    440.5 4 o
    390.625 -11 o
    336 -16 o
    256.75 -5.25 o
    185 27 o
    123.875 77.125 o
    76.5 141.5 o
    46.125 216.875 o
    36 300 o
    46.125 383.25 o
    76.5 459 o
    123.875 523.625 o
    185 573.5 o
    256.75 605.375 o
    336 616 o
    391.5 610.875 o
    442 595.5 o
    486.5 571.125 o
    524 539 v
    524 600 v
    674 600 v
    674 -8 ]
    662 -99 o
    626 -176 o
    570.25 -237.75 o
    499 -283 o
    416.75 -310.75 o
    0 0 z
  EndSpiro
357 137 m 256,33,34
 401 137 401 137 437 159 c 128,-1,35
 473 181 473 181 494.5 218 c 128,-1,36
 516 255 516 255 516 300 c 256,37,38
 516 345 516 345 494.5 382 c 128,-1,39
 473 419 473 419 437 441 c 128,-1,40
 401 463 401 463 357 463 c 256,41,42
 313 463 313 463 277 441 c 128,-1,43
 241 419 241 419 219.5 382 c 128,-1,44
 198 345 198 345 198 300 c 256,45,46
 198 255 198 255 219.5 218 c 128,-1,47
 241 181 241 181 277 159 c 128,-1,48
 313 137 313 137 357 137 c 256,33,34
  Spiro
    357 137 o
    399 142.5 o
    437 159 o
    469.375 184.75 o
    494.5 218 o
    510.625 257 o
    516 300 o
    510.625 343 o
    494.5 382 o
    469.375 415.25 o
    437 441 o
    399 457.5 o
    357 463 o
    315 457.5 o
    277 441 o
    244.625 415.25 o
    219.5 382 o
    203.375 343 o
    198 300 o
    203.375 257 o
    219.5 218 o
    244.625 184.75 o
    277 159 o
    315 142.5 o
    0 0 z
  EndSpiro
EndSplineSet
EndChar

StartChar: uni01E5
Encoding: 485 485 313
Width: 740
GlyphClass: 1
Flags: W
LayerCount: 2
Fore
SplineSet
328 -320 m 0,0,1
 258 -320 258 -320 194.5 -299.5 c 128,-1,2
 131 -279 131 -279 85 -244 c 1,3,-1
 127 -72 l 1,4,5
 159 -115 159 -115 211 -142.5 c 128,-1,6
 263 -170 263 -170 328 -170 c 0,7,8
 420 -170 420 -170 471 -117.5 c 128,-1,9
 522 -65 522 -65 522 17 c 2,10,-1
 522 59 l 1,11,12
 488 24 488 24 440.5 4 c 128,-1,13
 393 -16 393 -16 336 -16 c 0,14,15
 253 -16 253 -16 185 27 c 128,-1,16
 117 70 117 70 76.5 141.5 c 128,-1,17
 36 213 36 213 36 300 c 256,18,19
 36 387 36 387 76.5 459 c 128,-1,20
 117 531 117 531 185 573.5 c 128,-1,21
 253 616 253 616 336 616 c 0,22,23
 394 616 394 616 442 595.5 c 128,-1,24
 490 575 490 575 524 539 c 1,25,-1
 524 600 l 1,26,-1
 674 600 l 1,27,-1
 674 354 l 1,28,-1
 737 354 l 1,29,-1
 737 246 l 1,30,-1
 674 246 l 1,31,-1
 674 -8 l 2,32,33
 674 -106 674 -106 626 -176 c 128,-1,34
 578 -246 578 -246 499 -283 c 128,-1,35
 420 -320 420 -320 328 -320 c 0,0,1
357 137 m 0,36,37
 409 137 409 137 450 168 c 128,-1,38
 491 199 491 199 507 246 c 1,39,-1
 321 246 l 1,40,-1
 321 354 l 1,41,-1
 507 354 l 1,42,43
 491 401 491 401 450 432 c 128,-1,44
 409 463 409 463 357 463 c 0,45,46
 313 463 313 463 277 441 c 128,-1,47
 241 419 241 419 219.5 382 c 128,-1,48
 198 345 198 345 198 300 c 256,49,50
 198 255 198 255 219.5 218 c 128,-1,51
 241 181 241 181 277 159 c 128,-1,52
 313 137 313 137 357 137 c 0,36,37
EndSplineSet
EndChar

StartChar: h
Encoding: 104 104 314
Width: 700
GlyphClass: 2
Flags: W
AnchorPoint: "Anchor-4" 150 780 basechar 0
AnchorPoint: "Anchor-1" 360 0 basechar 0
AnchorPoint: "Anchor-0" 150 960 basechar 0
LayerCount: 2
Fore
SplineSet
66 0 m 1,0,-1
 66 960 l 1,1,-1
 240 960 l 1,2,-1
 240 555 l 1,3,4
 272 587 272 587 313.5 603.5 c 128,-1,5
 355 620 355 620 402 620 c 0,6,7
 466 620 466 620 521.5 589.5 c 128,-1,8
 577 559 577 559 611.5 500.5 c 128,-1,9
 646 442 646 442 646 359 c 2,10,-1
 646 0 l 1,11,-1
 472 0 l 1,12,-1
 472 336 l 2,13,14
 472 386 472 386 442 425 c 128,-1,15
 412 464 412 464 356 464 c 0,16,17
 311 464 311 464 275.5 433.5 c 128,-1,18
 240 403 240 403 240 338 c 2,19,-1
 240 0 l 1,20,-1
 66 0 l 1,0,-1
EndSplineSet
EndChar

StartChar: hbar
Encoding: 295 295 315
Width: 700
GlyphClass: 1
Flags: W
LayerCount: 2
Fore
SplineSet
66 0 m 1,0,-1
 66 726 l 1,1,-1
 9 726 l 1,2,-1
 9 834 l 1,3,-1
 66 834 l 1,4,-1
 66 960 l 1,5,-1
 228 960 l 1,6,-1
 228 834 l 1,7,-1
 425 834 l 1,8,-1
 425 726 l 1,9,-1
 228 726 l 1,10,-1
 228 542 l 1,11,12
 260 580 260 580 305 600 c 128,-1,13
 350 620 350 620 402 620 c 0,14,15
 466 620 466 620 521.5 589.5 c 128,-1,16
 577 559 577 559 611.5 500.5 c 128,-1,17
 646 442 646 442 646 359 c 2,18,-1
 646 0 l 1,19,-1
 478 0 l 1,20,-1
 478 329 l 2,21,22
 478 382 478 382 446.5 423 c 128,-1,23
 415 464 415 464 356 464 c 0,24,25
 309 464 309 464 271.5 430 c 128,-1,26
 234 396 234 396 234 331 c 2,27,-1
 234 0 l 1,28,-1
 66 0 l 1,0,-1
EndSplineSet
EndChar

StartChar: dotlessi
Encoding: 305 305 318
Width: 310
GlyphClass: 2
Flags: W
AnchorPoint: "Anchor-3" 155 0 basechar 0
AnchorPoint: "Anchor-1" 155 0 basechar 0
AnchorPoint: "Anchor-0" 155 600 basechar 0
LayerCount: 2
Fore
SplineSet
68 0 m 1,0,-1
 68 600 l 1,1,-1
 242 600 l 1,2,-1
 242 0 l 1,3,-1
 68 0 l 1,0,-1
EndSplineSet
EndChar

StartChar: iogonek
Encoding: 303 303 331
Width: 310
GlyphClass: 2
Flags: W
AnchorPoint: "Anchor-0" 155 873 basechar 0
LayerCount: 2
Fore
SplineSet
221 -318 m 1,0,1
 134 -318 134 -318 77 -278 c 128,-1,2
 20 -238 20 -238 20 -153 c 0,3,4
 20 -113 20 -113 33 -75 c 128,-1,5
 46 -37 46 -37 68 0 c 1,6,-1
 68 600 l 1,7,-1
 242 600 l 1,8,-1
 242 0 l 1,9,10
 211 -29 211 -29 190.5 -56.5 c 128,-1,11
 170 -84 170 -84 170 -116 c 0,12,13
 170 -153 170 -153 193.5 -171 c 128,-1,14
 217 -189 217 -189 251 -190 c 1,15,-1
 221 -318 l 1,0,1
155 687 m 0,16,17
 116 687 116 687 89 714 c 128,-1,18
 62 741 62 741 62 780 c 0,19,20
 62 820 62 820 89 846.5 c 128,-1,21
 116 873 116 873 155 873 c 0,22,23
 195 873 195 873 221.5 846.5 c 128,-1,24
 248 820 248 820 248 780 c 0,25,26
 248 741 248 741 221.5 714 c 128,-1,27
 195 687 195 687 155 687 c 0,16,17
EndSplineSet
EndChar

StartChar: uni0237
Encoding: 567 567 334
Width: 310
GlyphClass: 2
Flags: W
AnchorPoint: "Anchor-1" 160 -300 basechar 0
AnchorPoint: "Anchor-0" 157 600 basechar 0
LayerCount: 2
Fore
SplineSet
37 -312 m 1,0,-1
 4 -173 l 1,1,2
 37 -173 37 -173 54 -155.5 c 128,-1,3
 71 -138 71 -138 71 -99 c 2,4,-1
 71 600 l 1,5,-1
 245 600 l 1,6,-1
 245 -99 l 2,7,8
 245 -200 245 -200 186.5 -256 c 128,-1,9
 128 -312 128 -312 37 -312 c 1,0,-1
EndSplineSet
EndChar

StartChar: k
Encoding: 107 107 337
Width: 670
GlyphClass: 2
Flags: W
AnchorPoint: "Anchor-1" 330 0 basechar 0
AnchorPoint: "Anchor-0" 150 960 basechar 0
LayerCount: 2
Fore
SplineSet
465 0 m 5,0,-1
 226 330 l 1,1,-1
 423 600 l 1,2,-1
 543.050980392 512 l 0,3,4
 543.050980392 512 543.050980392 512 416 345 c 1,5,-1
 597.849275362 98 l 4,6,7
 597.849275362 98 597.849275362 98 465 0 c 5,0,-1
66 0 m 1,8,-1
 66 960 l 1,9,-1
 240 960 l 1,10,-1
 240 0 l 1,11,-1
 66 0 l 1,8,-1
EndSplineSet
EndChar

StartChar: kgreenlandic
Encoding: 312 312 340
Width: 670
GlyphClass: 2
Flags: W
AnchorPoint: "Anchor-1" 346 0 basechar 0
AnchorPoint: "Anchor-0" 300 600 basechar 0
LayerCount: 2
Fore
SplineSet
463 0 m 1,0,-1
 222 330 l 1,1,-1
 418 600 l 1,2,-1
 605 600 l 1,3,-1
 415 342 l 1,4,-1
 668 0 l 1,5,-1
 463 0 l 1,0,-1
66 0 m 1,6,-1
 66 600 l 1,7,-1
 234 600 l 1,8,-1
 234 0 l 1,9,-1
 66 0 l 1,6,-1
EndSplineSet
EndChar

StartChar: l
Encoding: 108 108 341
Width: 310
GlyphClass: 2
Flags: W
AnchorPoint: "Anchor-4" 155 480 basechar 0
AnchorPoint: "Anchor-2" 242 960 basechar 0
AnchorPoint: "Anchor-1" 155 0 basechar 0
AnchorPoint: "Anchor-0" 155 960 basechar 0
LayerCount: 2
Fore
SplineSet
68 0 m 1,0,-1
 68 960 l 1,1,-1
 242 960 l 1,2,-1
 242 0 l 1,3,-1
 68 0 l 1,0,-1
EndSplineSet
Substitution2: "'ss03' Style Set 3 in Latin lookup 41 subtable" l.ss03
Substitution2: "'aalt' Access All Alternates in Latin lookup 0 subtable" l.ss03
EndChar

StartChar: lslash
Encoding: 322 322 347
Width: 370
GlyphClass: 1
Flags: W
LayerCount: 2
Fore
SplineSet
98 0 m 1,0,-1
 98 368 l 1,1,-1
 30 323 l 1,2,-1
 -21 403 l 1,3,-1
 98 481 l 1,4,-1
 98 960 l 1,5,-1
 272 960 l 1,6,-1
 272 596 l 1,7,-1
 334 637 l 1,8,-1
 385 557 l 1,9,-1
 272 483 l 1,10,-1
 272 0 l 1,11,-1
 98 0 l 1,0,-1
EndSplineSet
Substitution2: "'ss03' Style Set 3 in Latin lookup 41 subtable" lslash.ss03
Substitution2: "'aalt' Access All Alternates in Latin lookup 0 subtable" lslash.ss03
EndChar

StartChar: l.ss03
Encoding: 65566 -1 348
Width: 330
GlyphClass: 2
Flags: W
AnchorPoint: "Anchor-4" 150 480 basechar 0
AnchorPoint: "Anchor-2" 237 960 basechar 0
AnchorPoint: "Anchor-1" 150 0 basechar 0
AnchorPoint: "Anchor-0" 150 960 basechar 0
LayerCount: 2
Fore
SplineSet
271 -12 m 1,0,1
 180 -12 180 -12 121.5 44 c 128,-1,2
 63 100 63 100 63 201 c 2,3,-1
 63 960 l 1,4,-1
 237 960 l 1,5,-1
 237 201 l 2,6,7
 237 162 237 162 254 144.5 c 128,-1,8
 271 127 271 127 304 127 c 1,9,-1
 271 -12 l 1,0,1
EndSplineSet
EndChar

StartChar: lslash.ss03
Encoding: 65571 -1 353
Width: 390
GlyphClass: 1
Flags: W
LayerCount: 2
Fore
SplineSet
301 -12 m 1,0,1
 210 -12 210 -12 151.5 44 c 128,-1,2
 93 100 93 100 93 201 c 2,3,-1
 93 368 l 1,4,-1
 25 323 l 1,5,-1
 -26 403 l 1,6,-1
 93 481 l 1,7,-1
 93 960 l 1,8,-1
 267 960 l 1,9,-1
 267 596 l 1,10,-1
 329 637 l 1,11,-1
 380 557 l 1,12,-1
 267 483 l 1,13,-1
 267 201 l 2,14,15
 267 162 267 162 284 144.5 c 128,-1,16
 301 127 301 127 334 127 c 1,17,-1
 301 -12 l 1,0,1
EndSplineSet
EndChar

StartChar: m
Encoding: 109 109 354
Width: 1080
GlyphClass: 2
Flags: W
AnchorPoint: "Anchor-1" 566 0 basechar 0
AnchorPoint: "Anchor-0" 566 600 basechar 0
LayerCount: 2
Fore
SplineSet
66 0 m 1,0,-1
 66 600 l 1,1,-1
 222 600 l 1,2,-1
 222 534 l 1,3,4
 254 576 254 576 301.5 598 c 128,-1,5
 349 620 349 620 401 620 c 0,6,7
 454 620 454 620 501 598 c 128,-1,8
 548 576 548 576 580 534 c 1,9,10
 615 576 615 576 667 598 c 128,-1,11
 719 620 719 620 780 620 c 0,12,13
 844 620 844 620 900 590.5 c 128,-1,14
 956 561 956 561 991 504.5 c 128,-1,15
 1026 448 1026 448 1026 367 c 2,16,-1
 1026 0 l 1,17,-1
 852 0 l 1,18,-1
 852 342 l 2,19,20
 852 390 852 390 824 427 c 128,-1,21
 796 464 796 464 743 464 c 0,22,23
 715 464 715 464 689.5 450.5 c 128,-1,24
 664 437 664 437 648.5 410.5 c 128,-1,25
 633 384 633 384 633 344 c 2,26,-1
 633 0 l 1,27,-1
 459 0 l 1,28,-1
 459 342 l 2,29,30
 459 374 459 374 446.5 402 c 128,-1,31
 434 430 434 430 409.5 447 c 128,-1,32
 385 464 385 464 350 464 c 0,33,34
 322 464 322 464 296.5 450.5 c 128,-1,35
 271 437 271 437 255.5 410.5 c 128,-1,36
 240 384 240 384 240 344 c 2,37,-1
 240 0 l 1,38,-1
 66 0 l 1,0,-1
EndSplineSet
EndChar

StartChar: n
Encoding: 110 110 355
Width: 700
GlyphClass: 2
Flags: W
AnchorPoint: "Anchor-1" 350 0 basechar 0
AnchorPoint: "Anchor-0" 350 600 basechar 0
LayerCount: 2
Fore
SplineSet
66 0 m 1,0,-1
 66 600 l 1,1,-1
 222 600 l 1,2,-1
 222 534 l 1,3,4
 254 576 254 576 301 598 c 128,-1,5
 348 620 348 620 402 620 c 0,6,7
 466 620 466 620 521.5 589.5 c 128,-1,8
 577 559 577 559 611.5 500.5 c 128,-1,9
 646 442 646 442 646 359 c 2,10,-1
 646 0 l 1,11,-1
 472 0 l 1,12,-1
 472 336 l 2,13,14
 472 386 472 386 442 425 c 128,-1,15
 412 464 412 464 356 464 c 0,16,17
 311 464 311 464 275.5 433.5 c 128,-1,18
 240 403 240 403 240 338 c 2,19,-1
 240 0 l 1,20,-1
 66 0 l 1,0,-1
EndSplineSet
EndChar

StartChar: eng
Encoding: 331 331 361
Width: 700
GlyphClass: 1
Flags: W
LayerCount: 2
Fore
SplineSet
437 -312 m 1,0,-1
 404 -173 l 1,1,2
 438 -173 438 -173 455 -155.5 c 128,-1,3
 472 -138 472 -138 472 -99 c 2,4,-1
 472 336 l 2,5,6
 472 386 472 386 442 425 c 128,-1,7
 412 464 412 464 356 464 c 0,8,9
 311 464 311 464 275.5 433.5 c 128,-1,10
 240 403 240 403 240 338 c 2,11,-1
 240 0 l 1,12,-1
 66 0 l 1,13,-1
 66 600 l 1,14,-1
 222 600 l 1,15,-1
 222 534 l 1,16,17
 254 576 254 576 301 598 c 128,-1,18
 348 620 348 620 402 620 c 0,19,20
 466 620 466 620 521.5 589.5 c 128,-1,21
 577 559 577 559 611.5 500.5 c 128,-1,22
 646 442 646 442 646 359 c 2,23,-1
 646 -99 l 2,24,25
 646 -200 646 -200 586.5 -256 c 128,-1,26
 527 -312 527 -312 437 -312 c 1,0,-1
EndSplineSet
EndChar

StartChar: o
Encoding: 111 111 362
Width: 720
GlyphClass: 2
Flags: W
AnchorPoint: "Anchor-4" 360 300 basechar 0
AnchorPoint: "Anchor-3" 390 0 basechar 0
AnchorPoint: "Anchor-2" 520 600 basechar 0
AnchorPoint: "Anchor-1" 360 0 basechar 0
AnchorPoint: "Anchor-0" 360 600 basechar 0
LayerCount: 2
Fore
SplineSet
360 -20 m 0,0,1
 271 -20 271 -20 197 23 c 128,-1,2
 123 66 123 66 79.5 139 c 128,-1,3
 36 212 36 212 36 300 c 0,4,5
 36 389 36 389 79.5 461.5 c 128,-1,6
 123 534 123 534 197 577 c 128,-1,7
 271 620 271 620 360 620 c 0,8,9
 450 620 450 620 523.5 577 c 128,-1,10
 597 534 597 534 640.5 461.5 c 128,-1,11
 684 389 684 389 684 300 c 0,12,13
 684 212 684 212 640.5 139 c 128,-1,14
 597 66 597 66 523.5 23 c 128,-1,15
 450 -20 450 -20 360 -20 c 0,0,1
360 136 m 256,16,17
 405 136 405 136 441.5 158 c 128,-1,18
 478 180 478 180 499.5 217.5 c 128,-1,19
 521 255 521 255 521 300 c 0,20,21
 521 346 521 346 499.5 383 c 128,-1,22
 478 420 478 420 441.5 442 c 128,-1,23
 405 464 405 464 360 464 c 256,24,25
 315 464 315 464 278.5 442 c 128,-1,26
 242 420 242 420 220.5 383 c 128,-1,27
 199 346 199 346 199 300 c 0,28,29
 199 255 199 255 220.5 217.5 c 128,-1,30
 242 180 242 180 278.5 158 c 128,-1,31
 315 136 315 136 360 136 c 256,16,17
EndSplineSet
Substitution2: "Single Substitution lookup 29 subtable" ordmasculine
Substitution2: "'aalt' Access All Alternates in Latin lookup 0 subtable" ordmasculine
EndChar

StartChar: ohorn
Encoding: 417 417 378
Width: 770
GlyphClass: 2
Flags: W
AnchorPoint: "Anchor-1" 360 0 basechar 0
AnchorPoint: "Anchor-0" 360 600 basechar 0
LayerCount: 2
Fore
SplineSet
360 -20 m 0,0,1
 271 -20 271 -20 197 23 c 128,-1,2
 123 66 123 66 79.5 139 c 128,-1,3
 36 212 36 212 36 300 c 0,4,5
 36 389 36 389 79.5 461.5 c 128,-1,6
 123 534 123 534 197 577 c 128,-1,7
 271 620 271 620 360 620 c 0,8,9
 434 620 434 620 498 590 c 128,-1,10
 562 560 562 560 606 508 c 1,11,12
 614 519 614 519 618 534 c 128,-1,13
 622 549 622 549 622 568 c 0,14,15
 622 586 622 586 617 610.5 c 128,-1,16
 612 635 612 635 598 660 c 1,17,-1
 742 660 l 1,18,19
 756 636 756 636 761 613 c 128,-1,20
 766 590 766 590 766 568 c 0,21,22
 766 504 766 504 737 462.5 c 128,-1,23
 708 421 708 421 666 406 c 1,24,25
 684 357 684 357 684 300 c 0,26,27
 684 212 684 212 640.5 139 c 128,-1,28
 597 66 597 66 523.5 23 c 128,-1,29
 450 -20 450 -20 360 -20 c 0,0,1
199 300 m 0,30,31
 199 255 199 255 220.5 217.5 c 128,-1,32
 242 180 242 180 278.5 158 c 128,-1,33
 315 136 315 136 360 136 c 256,34,35
 405 136 405 136 441.5 158 c 128,-1,36
 478 180 478 180 499.5 217.5 c 128,-1,37
 521 255 521 255 521 300 c 0,38,39
 521 346 521 346 499.5 383 c 128,-1,40
 478 420 478 420 441.5 442 c 128,-1,41
 405 464 405 464 360 464 c 256,42,43
 315 464 315 464 278.5 442 c 128,-1,44
 242 420 242 420 220.5 383 c 128,-1,45
 199 346 199 346 199 300 c 0,30,31
EndSplineSet
EndChar

StartChar: uni01EB
Encoding: 491 491 387
Width: 720
GlyphClass: 2
Flags: W
AnchorPoint: "Anchor-0" 360 600 basechar 0
LayerCount: 2
Fore
SplineSet
456 -318 m 1,0,1
 369 -318 369 -318 312 -278 c 128,-1,2
 255 -238 255 -238 255 -153 c 0,3,4
 255 -117 255 -117 268 -83 c 128,-1,5
 281 -49 281 -49 304 -15 c 1,6,7
 228 -2 228 -2 167.5 43 c 128,-1,8
 107 88 107 88 71.5 154.5 c 128,-1,9
 36 221 36 221 36 300 c 0,10,11
 36 389 36 389 79.5 461.5 c 128,-1,12
 123 534 123 534 197 577 c 128,-1,13
 271 620 271 620 360 620 c 0,14,15
 450 620 450 620 523.5 577 c 128,-1,16
 597 534 597 534 640.5 461.5 c 128,-1,17
 684 389 684 389 684 300 c 0,18,19
 684 229 684 229 655.5 167.5 c 128,-1,20
 627 106 627 106 576.5 61.5 c 128,-1,21
 526 17 526 17 461 -4 c 1,22,23
 436 -32 436 -32 420.5 -58.5 c 128,-1,24
 405 -85 405 -85 405 -116 c 0,25,26
 405 -153 405 -153 428.5 -171 c 128,-1,27
 452 -189 452 -189 486 -190 c 1,28,-1
 456 -318 l 1,0,1
360 136 m 256,29,30
 405 136 405 136 441.5 158 c 128,-1,31
 478 180 478 180 499.5 217.5 c 128,-1,32
 521 255 521 255 521 300 c 0,33,34
 521 346 521 346 499.5 383 c 128,-1,35
 478 420 478 420 441.5 442 c 128,-1,36
 405 464 405 464 360 464 c 256,37,38
 315 464 315 464 278.5 442 c 128,-1,39
 242 420 242 420 220.5 383 c 128,-1,40
 199 346 199 346 199 300 c 0,41,42
 199 255 199 255 220.5 217.5 c 128,-1,43
 242 180 242 180 278.5 158 c 128,-1,44
 315 136 315 136 360 136 c 256,29,30
EndSplineSet
EndChar

StartChar: oslash
Encoding: 248 248 388
Width: 720
GlyphClass: 2
Flags: W
AnchorPoint: "Anchor-0" 360 599 basechar 0
LayerCount: 2
Fore
SplineSet
151 -25 m 1,0,-1
 74 42 l 1,1,-1
 115 91 l 1,2,3
 78 133 78 133 57 186.5 c 128,-1,4
 36 240 36 240 36 300 c 0,5,6
 36 389 36 389 79.5 461.5 c 128,-1,7
 123 534 123 534 197 577 c 128,-1,8
 271 620 271 620 360 620 c 0,9,10
 405 620 405 620 446 608.5 c 128,-1,11
 487 597 487 597 523 577 c 1,12,-1
 563 624 l 1,13,-1
 640 557 l 1,14,-1
 602 512 l 1,15,16
 640 470 640 470 662 416 c 128,-1,17
 684 362 684 362 684 300 c 0,18,19
 684 212 684 212 640.5 139 c 128,-1,20
 597 66 597 66 523.5 23 c 128,-1,21
 450 -20 450 -20 360 -20 c 0,22,23
 314 -20 314 -20 272 -8 c 128,-1,24
 230 4 230 4 193 25 c 1,25,-1
 151 -25 l 1,0,-1
217 212 m 1,26,-1
 423 457 l 1,27,28
 396 470 396 470 360 470 c 0,29,30
 314 470 314 470 276 447 c 128,-1,31
 238 424 238 424 215.5 385.5 c 128,-1,32
 193 347 193 347 193 300 c 0,33,34
 193 254 193 254 217 212 c 1,26,-1
360 130 m 0,35,36
 406 130 406 130 444 153 c 128,-1,37
 482 176 482 176 504.5 214.5 c 128,-1,38
 527 253 527 253 527 300 c 0,39,40
 527 326 527 326 520 349 c 128,-1,41
 513 372 513 372 501 391 c 1,42,-1
 293 144 l 1,43,44
 324 130 324 130 360 130 c 0,35,36
EndSplineSet
EndChar

StartChar: oe
Encoding: 339 339 392
Width: 1140
GlyphClass: 2
Flags: W
AnchorPoint: "Anchor-1" 570 0 basechar 0
AnchorPoint: "Anchor-0" 570 600 basechar 0
LayerCount: 2
Fore
SplineSet
360 -20 m 0,0,1
 271 -20 271 -20 197 23 c 128,-1,2
 123 66 123 66 79.5 139 c 128,-1,3
 36 212 36 212 36 300 c 0,4,5
 36 389 36 389 79.5 461.5 c 128,-1,6
 123 534 123 534 197 577 c 128,-1,7
 271 620 271 620 360 620 c 0,8,9
 425 620 425 620 481.5 597 c 128,-1,10
 538 574 538 574 581 534 c 1,11,12
 624 575 624 575 680 597.5 c 128,-1,13
 736 620 736 620 800 620 c 0,14,15
 889 620 889 620 959 579.5 c 128,-1,16
 1029 539 1029 539 1069.5 469 c 128,-1,17
 1110 399 1110 399 1110 310 c 2,18,-1
 1110 249 l 1,19,-1
 714 249 l 2,20,21
 698 249 698 249 682.5 250.5 c 128,-1,22
 667 252 667 252 651 254 c 1,23,24
 665 196 665 196 711.5 160 c 128,-1,25
 758 124 758 124 831 124 c 0,26,27
 888 124 888 124 933.5 147 c 128,-1,28
 979 170 979 170 1008 204 c 1,29,-1
 1046 48 l 1,30,31
 1001 14 1001 14 944.5 -3 c 128,-1,32
 888 -20 888 -20 827 -20 c 0,33,34
 752 -20 752 -20 690.5 3.5 c 128,-1,35
 629 27 629 27 584 68 c 1,36,37
 541 28 541 28 483 4 c 128,-1,38
 425 -20 425 -20 360 -20 c 0,0,1
360 136 m 256,39,40
 405 136 405 136 441.5 158 c 128,-1,41
 478 180 478 180 499.5 217.5 c 128,-1,42
 521 255 521 255 521 300 c 0,43,44
 521 346 521 346 499.5 383 c 128,-1,45
 478 420 478 420 441.5 442 c 128,-1,46
 405 464 405 464 360 464 c 256,47,48
 315 464 315 464 278.5 442 c 128,-1,49
 242 420 242 420 220.5 383 c 128,-1,50
 199 346 199 346 199 300 c 0,51,52
 199 255 199 255 220.5 217.5 c 128,-1,53
 242 180 242 180 278.5 158 c 128,-1,54
 315 136 315 136 360 136 c 256,39,40
647 370 m 1,55,56
 664 372 664 372 680.5 373.5 c 128,-1,57
 697 375 697 375 714 375 c 2,58,-1
 850 375 l 2,59,60
 878 375 878 375 903 373 c 128,-1,61
 928 371 928 371 950 366 c 1,62,63
 935 420 935 420 895.5 451 c 128,-1,64
 856 482 856 482 798 482 c 0,65,66
 744 482 744 482 704 452 c 128,-1,67
 664 422 664 422 647 370 c 1,55,56
EndSplineSet
EndChar

StartChar: p
Encoding: 112 112 393
Width: 740
GlyphClass: 2
Flags: W
AnchorPoint: "Anchor-1" 390 0 basechar 0
AnchorPoint: "Anchor-0" 390 600 basechar 0
LayerCount: 2
Fore
SplineSet
66 -300 m 1,0,-1
 66 600 l 1,1,-1
 216 600 l 1,2,-1
 216 541 l 1,3,4
 251 576 251 576 298.5 596 c 128,-1,5
 346 616 346 616 403 616 c 0,6,7
 487 616 487 616 555 573.5 c 128,-1,8
 623 531 623 531 663.5 459 c 128,-1,9
 704 387 704 387 704 300 c 256,10,11
 704 213 704 213 663.5 141.5 c 128,-1,12
 623 70 623 70 555 27 c 128,-1,13
 487 -16 487 -16 403 -16 c 0,14,15
 355 -16 355 -16 314 -1.5 c 128,-1,16
 273 13 273 13 240 38 c 1,17,-1
 240 -300 l 1,18,-1
 66 -300 l 1,0,-1
383 137 m 256,19,20
 427 137 427 137 463 159 c 128,-1,21
 499 181 499 181 520.5 218 c 128,-1,22
 542 255 542 255 542 300 c 256,23,24
 542 345 542 345 520.5 382 c 128,-1,25
 499 419 499 419 463 441 c 128,-1,26
 427 463 427 463 383 463 c 256,27,28
 339 463 339 463 303 441 c 128,-1,29
 267 419 267 419 245.5 382 c 128,-1,30
 224 345 224 345 224 300 c 256,31,32
 224 255 224 255 245.5 218 c 128,-1,33
 267 181 267 181 303 159 c 128,-1,34
 339 137 339 137 383 137 c 256,19,20
EndSplineSet
EndChar

StartChar: thorn
Encoding: 254 254 394
Width: 740
GlyphClass: 1
Flags: W
LayerCount: 2
Fore
SplineSet
66 -300 m 1,0,-1
 66 960 l 1,1,-1
 240 960 l 1,2,-1
 240 562 l 1,3,4
 273 588 273 588 314 602 c 128,-1,5
 355 616 355 616 403 616 c 0,6,7
 487 616 487 616 555 573.5 c 128,-1,8
 623 531 623 531 663.5 459 c 128,-1,9
 704 387 704 387 704 300 c 256,10,11
 704 213 704 213 663.5 141.5 c 128,-1,12
 623 70 623 70 555 27 c 128,-1,13
 487 -16 487 -16 403 -16 c 0,14,15
 355 -16 355 -16 314 -1.5 c 128,-1,16
 273 13 273 13 240 38 c 1,17,-1
 240 -300 l 1,18,-1
 66 -300 l 1,0,-1
383 137 m 256,19,20
 427 137 427 137 463 159 c 128,-1,21
 499 181 499 181 520.5 218 c 128,-1,22
 542 255 542 255 542 300 c 256,23,24
 542 345 542 345 520.5 382 c 128,-1,25
 499 419 499 419 463 441 c 128,-1,26
 427 463 427 463 383 463 c 256,27,28
 339 463 339 463 303 441 c 128,-1,29
 267 419 267 419 245.5 382 c 128,-1,30
 224 345 224 345 224 300 c 256,31,32
 224 255 224 255 245.5 218 c 128,-1,33
 267 181 267 181 303 159 c 128,-1,34
 339 137 339 137 383 137 c 256,19,20
EndSplineSet
EndChar

StartChar: q
Encoding: 113 113 395
Width: 740
GlyphClass: 1
Flags: W
LayerCount: 2
Fore
SplineSet
500 -300 m 1,0,-1
 500 38 l 1,1,2
 467 13 467 13 426 -1.5 c 128,-1,3
 385 -16 385 -16 337 -16 c 0,4,5
 253 -16 253 -16 185 27 c 128,-1,6
 117 70 117 70 76.5 141.5 c 128,-1,7
 36 213 36 213 36 300 c 256,8,9
 36 387 36 387 76.5 459 c 128,-1,10
 117 531 117 531 185 573.5 c 128,-1,11
 253 616 253 616 337 616 c 0,12,13
 394 616 394 616 442 596 c 128,-1,14
 490 576 490 576 524 541 c 1,15,-1
 524 600 l 1,16,-1
 674 600 l 1,17,-1
 674 -300 l 1,18,-1
 500 -300 l 1,0,-1
357 137 m 256,19,20
 401 137 401 137 437 159 c 128,-1,21
 473 181 473 181 494.5 218 c 128,-1,22
 516 255 516 255 516 300 c 256,23,24
 516 345 516 345 494.5 382 c 128,-1,25
 473 419 473 419 437 441 c 128,-1,26
 401 463 401 463 357 463 c 256,27,28
 313 463 313 463 277 441 c 128,-1,29
 241 419 241 419 219.5 382 c 128,-1,30
 198 345 198 345 198 300 c 256,31,32
 198 255 198 255 219.5 218 c 128,-1,33
 241 181 241 181 277 159 c 128,-1,34
 313 137 313 137 357 137 c 256,19,20
EndSplineSet
EndChar

StartChar: r
Encoding: 114 114 396
Width: 662
GlyphClass: 2
Flags: W
AnchorPoint: "Anchor-1" 350 0 basechar 0
AnchorPoint: "Anchor-0" 350 600 basechar 0
LayerCount: 2
Fore
SplineSet
457.600996715 400 m 0,0,1
 451.216109639 413.01905747 451.216109639 413.01905747 442 425 c 0,2,3
 412 464 412 464 356 464 c 0,4,5
 311 464 311 464 275.5 433.5 c 128,-1,6
 240 403 240 403 240 338 c 2,7,-1
 240 0 l 1,8,-1
 66 0 l 1,9,-1
 66 600 l 1,10,-1
 222 600 l 1,11,-1
 222 534 l 1,12,13
 254 576 254 576 301 598 c 128,-1,14
 348 620 348 620 402 620 c 0,15,16
 466 620 466 620 521.5 589.5 c 128,-1,17
 577 559 577 559 611.5 500.5 c 0,18,19
 611.5 500.5 611.5 500.5 457.600996715 400 c 0,0,1
EndSplineSet
EndChar

StartChar: s
Encoding: 115 115 402
Width: 530
GlyphClass: 2
Flags: W
AnchorPoint: "Anchor-1" 265 0 basechar 0
AnchorPoint: "Anchor-0" 268 600 basechar 0
LayerCount: 2
Fore
SplineSet
144 161.63490208 m 4,0,1
 154.209267737 154.57712559 154.209267737 154.57712559 165.5 148 c 0,2,3
 217 118 217 118 272 118 c 0,4,5
 309 118 309 118 325.5 132 c 128,-1,6
 342 146 342 146 342 166 c 0,7,8
 342 189 342 189 325 199.5 c 128,-1,9
 308 210 308 210 290 217 c 2,10,-1
 206 249 l 2,11,12
 178 260 178 260 142 279 c 128,-1,13
 106 298 106 298 79.5 333 c 128,-1,14
 53 368 53 368 53 425 c 0,15,16
 53 477 53 477 79 521 c 128,-1,17
 105 565 105 565 154.5 592.5 c 128,-1,18
 204 620 204 620 274 620 c 0,19,20
 339 620 339 620 395.5 598 c 128,-1,21
 452 576 452 576 478 549 c 1,22,-1
 382 444.112372684 l 0,23,24
 370.21749534 452.072878699 370.21749534 452.072878699 357.5 458.5 c 0,25,26
 311 482 311 482 269 482 c 0,27,28
 237 482 237 482 222 469 c 128,-1,29
 207 456 207 456 207 439 c 0,30,31
 207 426 207 426 217.5 413.5 c 128,-1,32
 228 401 228 401 253 391 c 2,33,-1
 331 362 l 2,34,35
 365 350 365 350 403.5 330 c 128,-1,36
 442 310 442 310 469 274.5 c 128,-1,37
 496 239 496 239 496 177 c 0,38,39
 496 90 496 90 431.5 35 c 128,-1,40
 367 -20 367 -20 263 -20 c 0,41,42
 202 -20 202 -20 139.5 0 c 128,-1,43
 77 20 77 20 42 54 c 5,44,-1
 144 161.63490208 l 4,0,1
EndSplineSet
EndChar

StartChar: scedilla
Encoding: 351 351 405
Width: 530
GlyphClass: 1
Flags: W
LayerCount: 2
Fore
SplineSet
-9 -192 m 1,0,-1
 179 -11 l 1,1,2
 138 -2 138 -2 101.5 15 c 128,-1,3
 65 32 65 32 42 54 c 1,4,-1
 85 218 l 1,5,6
 114 178 114 178 165.5 148 c 128,-1,7
 217 118 217 118 272 118 c 0,8,9
 309 118 309 118 325.5 132 c 128,-1,10
 342 146 342 146 342 166 c 0,11,12
 342 189 342 189 325 199.5 c 128,-1,13
 308 210 308 210 290 217 c 2,14,-1
 206 249 l 2,15,16
 178 260 178 260 142 279 c 128,-1,17
 106 298 106 298 79.5 333 c 128,-1,18
 53 368 53 368 53 425 c 0,19,20
 53 477 53 477 79 521 c 128,-1,21
 105 565 105 565 154.5 592.5 c 128,-1,22
 204 620 204 620 274 620 c 0,23,24
 339 620 339 620 395.5 598 c 128,-1,25
 452 576 452 576 478 549 c 1,26,-1
 438 391 l 1,27,28
 404 435 404 435 357.5 458.5 c 128,-1,29
 311 482 311 482 269 482 c 0,30,31
 237 482 237 482 222 469 c 128,-1,32
 207 456 207 456 207 439 c 0,33,34
 207 426 207 426 217.5 413.5 c 128,-1,35
 228 401 228 401 253 391 c 2,36,-1
 331 362 l 2,37,38
 365 350 365 350 403.5 330 c 128,-1,39
 442 310 442 310 469 274.5 c 128,-1,40
 496 239 496 239 496 177 c 0,41,42
 496 105 496 105 451 54.5 c 128,-1,43
 406 4 406 4 331 -13 c 1,44,-1
 206 -192 l 1,45,-1
 -9 -192 l 1,0,-1
EndSplineSet
Substitution2: "'locl' Localized Forms in Latin lookup 11 subtable" uni0219
Substitution2: "'aalt' Access All Alternates in Latin lookup 0 subtable" uni0219
EndChar

StartChar: germandbls
Encoding: 223 223 408
Width: 750
GlyphClass: 1
Flags: W
LayerCount: 2
Fore
SplineSet
364 -17 m 1,0,-1
 327 139 l 1,1,2
 376 142 376 142 416 164 c 128,-1,3
 456 186 456 186 480 225.5 c 128,-1,4
 504 265 504 265 504 319 c 0,5,6
 504 402 504 402 449 460.5 c 128,-1,7
 394 519 394 519 303 552 c 1,8,9
 368 588 368 588 400.5 632 c 128,-1,10
 433 676 433 676 433 721 c 256,11,12
 433 766 433 766 405.5 795 c 128,-1,13
 378 824 378 824 337 824 c 0,14,15
 295 824 295 824 267.5 794.5 c 128,-1,16
 240 765 240 765 240 718 c 2,17,-1
 240 0 l 1,18,-1
 66 0 l 1,19,-1
 66 719 l 2,20,21
 66 798 66 798 103 856.5 c 128,-1,22
 140 915 140 915 201 947.5 c 128,-1,23
 262 980 262 980 335 980 c 0,24,25
 409 980 409 980 467.5 949 c 128,-1,26
 526 918 526 918 560.5 863.5 c 128,-1,27
 595 809 595 809 595 740 c 0,28,29
 595 697 595 697 580 660 c 128,-1,30
 565 623 565 623 538 594 c 1,31,32
 605 551 605 551 644.5 480 c 128,-1,33
 684 409 684 409 684 321 c 0,34,35
 684 225 684 225 638 148.5 c 128,-1,36
 592 72 592 72 519 27.5 c 128,-1,37
 446 -17 446 -17 364 -17 c 1,0,-1
EndSplineSet
EndChar

StartChar: t
Encoding: 116 116 409
Width: 450
GlyphClass: 2
Flags: W
AnchorPoint: "Anchor-4" 223 300 basechar 0
AnchorPoint: "Anchor-2" 307 960 basechar 0
AnchorPoint: "Anchor-1" 223 0 basechar 0
AnchorPoint: "Anchor-0" 223 800 basechar 0
LayerCount: 2
Fore
SplineSet
136 0 m 1,0,-1
 136 462 l 1,1,-1
 24 462 l 1,2,-1
 24 600 l 1,3,-1
 139 600 l 1,4,-1
 139 800 l 1,5,-1
 307 800 l 1,6,-1
 307 600 l 1,7,-1
 426 600 l 1,8,-1
 426 462 l 1,9,-1
 310 462 l 1,10,-1
 310 0 l 1,11,-1
 136 0 l 1,0,-1
EndSplineSet
EndChar

StartChar: tbar
Encoding: 359 359 410
Width: 450
GlyphClass: 1
Flags: W
LayerCount: 2
Fore
SplineSet
136 0 m 1,0,-1
 136 246 l 1,1,-1
 34 246 l 1,2,-1
 34 354 l 1,3,-1
 136 354 l 1,4,-1
 136 462 l 1,5,-1
 24 462 l 1,6,-1
 24 600 l 1,7,-1
 139 600 l 1,8,-1
 139 800 l 1,9,-1
 307 800 l 1,10,-1
 307 600 l 1,11,-1
 426 600 l 1,12,-1
 426 462 l 1,13,-1
 310 462 l 1,14,-1
 310 354 l 1,15,-1
 416 354 l 1,16,-1
 416 246 l 1,17,-1
 310 246 l 1,18,-1
 310 0 l 1,19,-1
 136 0 l 1,0,-1
EndSplineSet
EndChar

StartChar: uni0163
Encoding: 355 355 412
Width: 450
GlyphClass: 1
Flags: W
LayerCount: 2
Fore
SplineSet
-51 -192 m 1,0,-1
 136 0 l 1,1,-1
 136 462 l 1,2,-1
 24 462 l 1,3,-1
 24 600 l 1,4,-1
 139 600 l 1,5,-1
 139 800 l 1,6,-1
 307 800 l 1,7,-1
 307 600 l 1,8,-1
 426 600 l 1,9,-1
 426 462 l 1,10,-1
 310 462 l 1,11,-1
 310 0 l 1,12,-1
 164 -192 l 1,13,-1
 -51 -192 l 1,0,-1
EndSplineSet
Substitution2: "'locl' Localized Forms in Latin lookup 11 subtable" uni021B
Substitution2: "'aalt' Access All Alternates in Latin lookup 0 subtable" uni021B
EndChar

StartChar: u
Encoding: 117 117 414
Width: 700
GlyphClass: 2
Flags: W
AnchorPoint: "Anchor-3" 555 0 basechar 0
AnchorPoint: "Anchor-2" 558 600 basechar 0
AnchorPoint: "Anchor-1" 348 0 basechar 0
AnchorPoint: "Anchor-0" 348 600 basechar 0
LayerCount: 2
Fore
SplineSet
298 -20 m 0,0,1
 235 -20 235 -20 179 10.5 c 128,-1,2
 123 41 123 41 88.5 99.5 c 128,-1,3
 54 158 54 158 54 241 c 2,4,-1
 54 600 l 1,5,-1
 228 600 l 1,6,-1
 228 264 l 2,7,8
 228 214 228 214 258.5 175 c 128,-1,9
 289 136 289 136 344 136 c 0,10,11
 389 136 389 136 424.5 168.5 c 128,-1,12
 460 201 460 201 460 262 c 2,13,-1
 460 600 l 1,14,-1
 634 600 l 1,15,-1
 634 0 l 1,16,-1
 476 0 l 1,17,-1
 476 63 l 1,18,19
 444 23 444 23 397.5 1.5 c 128,-1,20
 351 -20 351 -20 298 -20 c 0,0,1
EndSplineSet
EndChar

StartChar: uhorn
Encoding: 432 432 423
Width: 840
GlyphClass: 2
Flags: W
AnchorPoint: "Anchor-1" 348 0 basechar 0
AnchorPoint: "Anchor-0" 344 600 basechar 0
LayerCount: 2
Fore
SplineSet
298 -20 m 0,0,1
 235 -20 235 -20 179 10.5 c 128,-1,2
 123 41 123 41 88.5 99.5 c 128,-1,3
 54 158 54 158 54 241 c 2,4,-1
 54 600 l 1,5,-1
 228 600 l 1,6,-1
 228 264 l 2,7,8
 228 214 228 214 258.5 175 c 128,-1,9
 289 136 289 136 344 136 c 0,10,11
 389 136 389 136 424.5 168.5 c 128,-1,12
 460 201 460 201 460 262 c 2,13,-1
 460 600 l 1,14,-1
 622 600 l 1,15,-1
 622 494 l 1,16,17
 624 494 624 494 626.5 494 c 128,-1,18
 629 494 629 494 631 494 c 0,19,20
 654 494 654 494 673 511.5 c 128,-1,21
 692 529 692 529 692 568 c 0,22,23
 692 586 692 586 687 610.5 c 128,-1,24
 682 635 682 635 668 660 c 1,25,-1
 812 660 l 1,26,27
 826 636 826 636 831 613 c 128,-1,28
 836 590 836 590 836 568 c 0,29,30
 836 480 836 480 787.5 433 c 128,-1,31
 739 386 739 386 675 386 c 0,32,33
 656 386 656 386 634 391 c 1,34,-1
 634 0 l 1,35,-1
 476 0 l 1,36,-1
 476 63 l 1,37,38
 444 23 444 23 397.5 1.5 c 128,-1,39
 351 -20 351 -20 298 -20 c 0,0,1
EndSplineSet
EndChar

StartChar: uogonek
Encoding: 371 371 432
Width: 700
GlyphClass: 1
Flags: W
LayerCount: 2
Fore
SplineSet
621 -318 m 1,0,1
 534 -318 534 -318 477 -278 c 128,-1,2
 420 -238 420 -238 420 -153 c 0,3,4
 420 -113 420 -113 435.5 -75 c 128,-1,5
 451 -37 451 -37 476 0 c 1,6,-1
 476 63 l 1,7,8
 444 23 444 23 397.5 1.5 c 128,-1,9
 351 -20 351 -20 298 -20 c 0,10,11
 235 -20 235 -20 179 10.5 c 128,-1,12
 123 41 123 41 88.5 99.5 c 128,-1,13
 54 158 54 158 54 241 c 2,14,-1
 54 600 l 1,15,-1
 228 600 l 1,16,-1
 228 264 l 2,17,18
 228 214 228 214 258.5 175 c 128,-1,19
 289 136 289 136 344 136 c 0,20,21
 389 136 389 136 424.5 168.5 c 128,-1,22
 460 201 460 201 460 262 c 2,23,-1
 460 600 l 1,24,-1
 634 600 l 1,25,-1
 634 0 l 1,26,27
 605 -29 605 -29 587.5 -56.5 c 128,-1,28
 570 -84 570 -84 570 -116 c 0,29,30
 570 -153 570 -153 593.5 -171 c 128,-1,31
 617 -189 617 -189 651 -190 c 1,32,-1
 621 -318 l 1,0,1
EndSplineSet
EndChar

StartChar: v
Encoding: 118 118 435
Width: 670
GlyphClass: 1
Flags: W
LayerCount: 2
Fore
SplineSet
625.877777778 527 m 4,0,1
 625.877777778 527 625.877777778 527 335 -30 c 1,2,-1
 45.1666666667 525 l 0,3,4
 45.1666666667 525 45.1666666667 525 199 600 c 1,5,-1
 293 407 l 2,6,7
 306 382 306 382 317 357.5 c 128,-1,8
 328 333 328 333 339 302 c 1,9,10
 350 333 350 333 361 357.5 c 128,-1,11
 372 382 372 382 385 407 c 2,12,-1
 479 600 l 5,13,-1
 625.877777778 527 l 4,0,1
EndSplineSet
EndChar

StartChar: w
Encoding: 119 119 436
Width: 1000
GlyphClass: 2
Flags: W
AnchorPoint: "Anchor-1" 500 0 basechar 0
AnchorPoint: "Anchor-0" 504 600 basechar 0
LayerCount: 2
Fore
SplineSet
960.303174603 529 m 4,0,1
 960.303174603 529 960.303174603 529 695 -30 c 1,2,-1
 558 201 l 2,3,4
 542 227 542 227 528 254 c 128,-1,5
 514 281 514 281 500 311 c 1,6,7
 487 281 487 281 472.5 254 c 128,-1,8
 458 227 458 227 442 201 c 2,9,-1
 305 -30 l 1,10,-1
 39.6968253968 529 l 0,11,12
 39.6968253968 529 39.6968253968 529 193 600 c 1,13,-1
 285 407 l 2,14,15
 298 382 298 382 311 352.5 c 128,-1,16
 324 323 324 323 337 286 c 1,17,18
 351 321 351 321 364.5 347.5 c 128,-1,19
 378 374 378 374 391 399 c 2,20,-1
 504 620 l 1,21,-1
 621 399 l 2,22,23
 633 377 633 377 646.5 350 c 128,-1,24
 660 323 660 323 673 286 c 1,25,26
 686 326 686 326 698.5 354 c 128,-1,27
 711 382 711 382 723 407 c 2,28,-1
 815 600 l 5,29,-1
 960.303174603 529 l 4,0,1
EndSplineSet
EndChar

StartChar: x
Encoding: 120 120 441
Width: 640
GlyphClass: 1
Flags: W
LayerCount: 2
Fore
SplineSet
66.2300319489 82 m 4,0,1
 66.2300319489 82 66.2300319489 82 219 313 c 1,2,-1
 85.2717770035 515 l 0,3,4
 85.2717770035 515 85.2717770035 515 221 600 c 1,5,-1
 279 508 l 2,6,7
 290 491 290 491 300.5 472 c 128,-1,8
 311 453 311 453 321 433 c 1,9,10
 332 453 332 453 342.5 471.5 c 128,-1,11
 353 490 353 490 364 508 c 2,12,-1
 421 600 l 1,13,-1
 556.428571429 518 l 0,14,15
 556.428571429 518 556.428571429 518 420 313 c 1,16,-1
 570.185303514 87 l 0,17,18
 570.185303514 87 570.185303514 87 434 0 c 1,19,-1
 353 131 l 2,20,21
 344 145 344 145 335 160.5 c 128,-1,22
 326 176 326 176 318 191 c 1,23,24
 310 176 310 176 301 160.5 c 128,-1,25
 292 145 292 145 283 131 c 2,26,-1
 202 0 l 5,27,-1
 66.2300319489 82 l 4,0,1
EndSplineSet
EndChar

StartChar: y
Encoding: 121 121 442
Width: 690
GlyphClass: 2
Flags: W
AnchorPoint: "Anchor-1" 461 0 basechar 0
AnchorPoint: "Anchor-0" 347 600 basechar 0
LayerCount: 2
Fore
SplineSet
87.815920398 -226 m 4,0,1
 87.815920398 -226 87.815920398 -226 251 102 c 1,2,-1
 41.9136546185 527 l 0,3,4
 41.9136546185 527 41.9136546185 527 198 600 c 1,5,-1
 304 380 l 2,6,7
 318 350 318 350 328.5 325.5 c 128,-1,8
 339 301 339 301 346 278 c 1,9,10
 354 301 354 301 365 325.5 c 128,-1,11
 376 350 376 350 391 380 c 2,12,-1
 499 600 l 1,13,-1
 647.328888889 526 l 0,14,15
 647.328888889 526 647.328888889 526 238 -300 c 5,16,-1
 87.815920398 -226 l 4,0,1
EndSplineSet
EndChar

StartChar: z
Encoding: 122 122 451
Width: 530
GlyphClass: 2
Flags: W
AnchorPoint: "Anchor-4" 265 300 basechar 0
AnchorPoint: "Anchor-1" 257 0 basechar 0
AnchorPoint: "Anchor-0" 274 600 basechar 0
LayerCount: 2
Fore
SplineSet
22 0 m 1,0,-1
 265 456 l 1,1,-1
 42 456 l 1,2,-1
 42 600 l 1,3,-1
 508 600 l 1,4,-1
 265 144 l 1,5,-1
 490 144 l 1,6,-1
 490 0 l 1,7,-1
 22 0 l 1,0,-1
EndSplineSet
EndChar

StartChar: ordfeminine
Encoding: 170 170 455
Width: 480
GlyphClass: 1
Flags: W
LayerCount: 2
Fore
SplineSet
214 412 m 0,0,1
 164 412 164 412 123 437.5 c 128,-1,2
 82 463 82 463 58 505.5 c 128,-1,3
 34 548 34 548 34 600 c 256,4,5
 34 652 34 652 58.5 694.5 c 128,-1,6
 83 737 83 737 124 762.5 c 128,-1,7
 165 788 165 788 214 788 c 0,8,9
 269 788 269 788 309 756 c 1,10,-1
 309 780 l 1,11,-1
 435 780 l 1,12,-1
 435 420 l 1,13,-1
 309 420 l 1,14,-1
 309 444 l 1,15,16
 269 412 269 412 214 412 c 0,0,1
234 520 m 256,17,18
 267 520 267 520 290 543.5 c 128,-1,19
 313 567 313 567 313 600 c 256,20,21
 313 633 313 633 290 656.5 c 128,-1,22
 267 680 267 680 234 680 c 256,23,24
 201 680 201 680 178 656.5 c 128,-1,25
 155 633 155 633 155 600 c 256,26,27
 155 567 155 567 178 543.5 c 128,-1,28
 201 520 201 520 234 520 c 256,17,18
EndSplineSet
Substitution2: "'ss02' Style Set 2 in Latin lookup 40 subtable" ordfeminine.ss02
Substitution2: "'aalt' Access All Alternates in Latin lookup 0 subtable" ordfeminine.ss02
EndChar

StartChar: ordfeminine.ss02
Encoding: 65572 -1 456
Width: 480
GlyphClass: 1
Flags: W
LayerCount: 2
Fore
SplineSet
177 410 m 0,0,1
 117 410 117 410 79.5 441.5 c 128,-1,2
 42 473 42 473 42 524 c 0,3,4
 42 580 42 580 87 613 c 128,-1,5
 132 646 132 646 210 646 c 0,6,7
 259 646 259 646 294 633 c 1,8,-1
 294 638 l 2,9,10
 294 661 294 661 271 673.5 c 128,-1,11
 248 686 248 686 208 686 c 0,12,13
 142 686 142 686 93 655 c 1,14,-1
 69 755 l 1,15,16
 107 772 107 772 144 780 c 128,-1,17
 181 788 181 788 223 788 c 0,18,19
 316 788 316 788 365 749 c 128,-1,20
 414 710 414 710 414 636 c 2,21,-1
 414 420 l 1,22,-1
 294 420 l 1,23,-1
 294 449 l 1,24,25
 242 410 242 410 177 410 c 0,0,1
207 500 m 0,26,27
 236 500 236 500 262.5 514 c 128,-1,28
 289 528 289 528 293 545 c 1,29,30
 280 553 280 553 261.5 557.5 c 128,-1,31
 243 562 243 562 220 562 c 0,32,33
 192 562 192 562 177.5 554 c 128,-1,34
 163 546 163 546 163 530 c 0,35,36
 163 516 163 516 174.5 508 c 128,-1,37
 186 500 186 500 207 500 c 0,26,27
EndSplineSet
EndChar

StartChar: ordmasculine
Encoding: 186 186 457
Width: 480
GlyphClass: 1
Flags: W
LayerCount: 2
Fore
SplineSet
240 402 m 256,0,1
 183 402 183 402 136.5 429 c 128,-1,2
 90 456 90 456 62 501 c 128,-1,3
 34 546 34 546 34 600 c 0,4,5
 34 655 34 655 62 699.5 c 128,-1,6
 90 744 90 744 136.5 771 c 128,-1,7
 183 798 183 798 240 798 c 256,8,9
 297 798 297 798 344 771 c 128,-1,10
 391 744 391 744 418.5 699.5 c 128,-1,11
 446 655 446 655 446 600 c 0,12,13
 446 546 446 546 418.5 501 c 128,-1,14
 391 456 391 456 344 429 c 128,-1,15
 297 402 297 402 240 402 c 256,0,1
240 519 m 256,16,17
 275 519 275 519 299 542.5 c 128,-1,18
 323 566 323 566 323 600 c 256,19,20
 323 634 323 634 299 657.5 c 128,-1,21
 275 681 275 681 240 681 c 256,22,23
 205 681 205 681 181 657.5 c 128,-1,24
 157 634 157 634 157 600 c 256,25,26
 157 566 157 566 181 542.5 c 128,-1,27
 205 519 205 519 240 519 c 256,16,17
EndSplineSet
EndChar

StartChar: f_f
Encoding: 65573 -1 458
Width: 840
GlyphClass: 3
LigCaretCntFixed: 1
Flags: W
LayerCount: 2
Fore
SplineSet
136 0 m 1,0,-1
 136 462 l 1,1,-1
 24 462 l 1,2,-1
 24 600 l 1,3,-1
 139 600 l 1,4,-1
 139 706 l 2,5,6
 139 785 139 785 176.5 845 c 128,-1,7
 214 905 214 905 279.5 938.5 c 128,-1,8
 345 972 345 972 429 972 c 0,9,10
 477 972 477 972 522.5 960 c 128,-1,11
 568 948 568 948 602 926 c 1,12,13
 631 949 631 949 670 960.5 c 128,-1,14
 709 972 709 972 756 972 c 0,15,16
 785 972 785 972 815 964 c 128,-1,17
 845 956 845 956 867 941 c 1,18,-1
 833 800 l 1,19,20
 803 837 803 837 763 837 c 0,21,22
 732 837 732 837 714.5 816 c 128,-1,23
 697 795 697 795 697 757 c 2,24,-1
 697 600 l 1,25,-1
 816 600 l 1,26,-1
 816 462 l 1,27,-1
 700 462 l 1,28,-1
 700 0 l 1,29,-1
 526 0 l 1,30,-1
 526 462 l 1,31,-1
 310 462 l 1,32,-1
 310 0 l 1,33,-1
 136 0 l 1,0,-1
307 600 m 1,34,-1
 529 600 l 1,35,-1
 529 753 l 2,36,37
 529 764 529 764 530 776.5 c 128,-1,38
 531 789 531 789 534 808 c 1,39,40
 493 837 493 837 438 837 c 0,41,42
 378 837 378 837 342.5 799 c 128,-1,43
 307 761 307 761 307 697 c 2,44,-1
 307 600 l 1,34,-1
EndSplineSet
Ligature2: "'liga' Standard Ligatures in Latin lookup 35 subtable" f f
LCarets2: 1 420
EndChar

StartChar: f_f_b
Encoding: 65574 -1 459
Width: 1590
GlyphClass: 3
LigCaretCntFixed: 1
Flags: W
AnchorPoint: "Anchor-6" 265 0 baselig 0
AnchorPoint: "Anchor-5" 265 960 baselig 0
AnchorPoint: "Anchor-6" 795 0 baselig 1
AnchorPoint: "Anchor-5" 795 960 baselig 1
AnchorPoint: "Anchor-6" 1325 0 baselig 2
AnchorPoint: "Anchor-5" 1325 960 baselig 2
LayerCount: 2
Fore
SplineSet
1253 -16 m 0,0,1
 1196 -16 1196 -16 1148.5 4 c 128,-1,2
 1101 24 1101 24 1066 59 c 1,3,-1
 1066 0 l 1,4,-1
 916 0 l 1,5,-1
 916 462 l 1,6,-1
 700 462 l 1,7,-1
 700 0 l 1,8,-1
 526 0 l 1,9,-1
 526 462 l 1,10,-1
 310 462 l 1,11,-1
 310 0 l 1,12,-1
 136 0 l 1,13,-1
 136 462 l 1,14,-1
 24 462 l 1,15,-1
 24 600 l 1,16,-1
 139 600 l 1,17,-1
 139 706 l 2,18,19
 139 785 139 785 176.5 845 c 128,-1,20
 214 905 214 905 279.5 938.5 c 128,-1,21
 345 972 345 972 429 972 c 0,22,23
 477 972 477 972 522.5 960 c 128,-1,24
 568 948 568 948 602 926 c 1,25,26
 631 949 631 949 670 960.5 c 128,-1,27
 709 972 709 972 756 972 c 0,28,29
 785 972 785 972 815 964 c 128,-1,30
 845 956 845 956 867 941 c 1,31,-1
 833 800 l 1,32,33
 803 837 803 837 763 837 c 0,34,35
 732 837 732 837 714.5 816 c 128,-1,36
 697 795 697 795 697 757 c 2,37,-1
 697 600 l 1,38,-1
 916 600 l 1,39,-1
 916 960 l 1,40,-1
 1090 960 l 1,41,-1
 1090 562 l 1,42,43
 1123 588 1123 588 1164 602 c 128,-1,44
 1205 616 1205 616 1253 616 c 0,45,46
 1337 616 1337 616 1405 573.5 c 128,-1,47
 1473 531 1473 531 1513.5 459 c 128,-1,48
 1554 387 1554 387 1554 300 c 256,49,50
 1554 213 1554 213 1513.5 141.5 c 128,-1,51
 1473 70 1473 70 1405 27 c 128,-1,52
 1337 -16 1337 -16 1253 -16 c 0,0,1
307 600 m 1,53,-1
 529 600 l 1,54,-1
 529 753 l 2,55,56
 529 764 529 764 530 776.5 c 128,-1,57
 531 789 531 789 534 808 c 1,58,59
 493 837 493 837 438 837 c 0,60,61
 378 837 378 837 342.5 799 c 128,-1,62
 307 761 307 761 307 697 c 2,63,-1
 307 600 l 1,53,-1
1233 137 m 256,64,65
 1277 137 1277 137 1313 159 c 128,-1,66
 1349 181 1349 181 1370.5 218 c 128,-1,67
 1392 255 1392 255 1392 300 c 256,68,69
 1392 345 1392 345 1370.5 382 c 128,-1,70
 1349 419 1349 419 1313 441 c 128,-1,71
 1277 463 1277 463 1233 463 c 256,72,73
 1189 463 1189 463 1153 441 c 128,-1,74
 1117 419 1117 419 1095.5 382 c 128,-1,75
 1074 345 1074 345 1074 300 c 256,76,77
 1074 255 1074 255 1095.5 218 c 128,-1,78
 1117 181 1117 181 1153 159 c 128,-1,79
 1189 137 1189 137 1233 137 c 256,64,65
EndSplineSet
Ligature2: "'dlig' Discretionary Ligatures in Latin lookup 34 subtable" f f b
LCarets2: 2 530 1060
EndChar

StartChar: f_f_h
Encoding: 65575 -1 460
Width: 1550
GlyphClass: 3
LigCaretCntFixed: 1
Flags: W
AnchorPoint: "Anchor-6" 258 0 baselig 0
AnchorPoint: "Anchor-5" 258 960 baselig 0
AnchorPoint: "Anchor-6" 775 0 baselig 1
AnchorPoint: "Anchor-5" 775 960 baselig 1
AnchorPoint: "Anchor-6" 1292 0 baselig 2
AnchorPoint: "Anchor-5" 1292 960 baselig 2
LayerCount: 2
Fore
SplineSet
136 0 m 1,0,-1
 136 462 l 1,1,-1
 24 462 l 1,2,-1
 24 600 l 1,3,-1
 139 600 l 1,4,-1
 139 706 l 2,5,6
 139 785 139 785 176.5 845 c 128,-1,7
 214 905 214 905 279.5 938.5 c 128,-1,8
 345 972 345 972 429 972 c 0,9,10
 477 972 477 972 522.5 960 c 128,-1,11
 568 948 568 948 602 926 c 1,12,13
 631 949 631 949 670 960.5 c 128,-1,14
 709 972 709 972 756 972 c 0,15,16
 785 972 785 972 815 964 c 128,-1,17
 845 956 845 956 867 941 c 1,18,-1
 833 800 l 1,19,20
 803 837 803 837 763 837 c 0,21,22
 732 837 732 837 714.5 816 c 128,-1,23
 697 795 697 795 697 757 c 2,24,-1
 697 600 l 1,25,-1
 916 600 l 1,26,-1
 916 960 l 1,27,-1
 1090 960 l 1,28,-1
 1090 555 l 1,29,30
 1122 587 1122 587 1163.5 603.5 c 128,-1,31
 1205 620 1205 620 1252 620 c 0,32,33
 1316 620 1316 620 1371.5 589.5 c 128,-1,34
 1427 559 1427 559 1461.5 500.5 c 128,-1,35
 1496 442 1496 442 1496 359 c 2,36,-1
 1496 0 l 1,37,-1
 1322 0 l 1,38,-1
 1322 336 l 2,39,40
 1322 386 1322 386 1292 425 c 128,-1,41
 1262 464 1262 464 1206 464 c 0,42,43
 1161 464 1161 464 1125.5 433.5 c 128,-1,44
 1090 403 1090 403 1090 338 c 2,45,-1
 1090 0 l 1,46,-1
 916 0 l 1,47,-1
 916 462 l 1,48,-1
 700 462 l 1,49,-1
 700 0 l 1,50,-1
 526 0 l 1,51,-1
 526 462 l 1,52,-1
 310 462 l 1,53,-1
 310 0 l 1,54,-1
 136 0 l 1,0,-1
307 600 m 1,55,-1
 529 600 l 1,56,-1
 529 753 l 2,57,58
 529 764 529 764 530 776.5 c 128,-1,59
 531 789 531 789 534 808 c 1,60,61
 493 837 493 837 438 837 c 0,62,63
 378 837 378 837 342.5 799 c 128,-1,64
 307 761 307 761 307 697 c 2,65,-1
 307 600 l 1,55,-1
EndSplineSet
Ligature2: "'dlig' Discretionary Ligatures in Latin lookup 34 subtable" f f h
LCarets2: 2 517 1033
EndChar

StartChar: f_f_i
Encoding: 65576 -1 461
Width: 1150
GlyphClass: 3
LigCaretCntFixed: 1
Flags: W
LayerCount: 2
Fore
SplineSet
136 0 m 1,0,-1
 136 462 l 1,1,-1
 24 462 l 1,2,-1
 24 600 l 1,3,-1
 139 600 l 1,4,-1
 139 706 l 2,5,6
 139 791 139 791 177.5 850.5 c 128,-1,7
 216 910 216 910 281 941 c 128,-1,8
 346 972 346 972 423 972 c 0,9,10
 476 972 476 972 527.5 956.5 c 128,-1,11
 579 941 579 941 627 906 c 1,12,13
 712 972 712 972 829 972 c 0,14,15
 949 972 949 972 1030 912 c 1,16,-1
 991 753 l 1,17,18
 966 791 966 791 927 814 c 128,-1,19
 888 837 888 837 840 837 c 0,20,21
 776 837 776 837 736.5 798 c 128,-1,22
 697 759 697 759 697 688 c 2,23,-1
 697 600 l 1,24,-1
 1084 600 l 1,25,-1
 1084 0 l 1,26,-1
 910 0 l 1,27,-1
 910 462 l 1,28,-1
 700 462 l 1,29,-1
 700 0 l 1,30,-1
 526 0 l 1,31,-1
 526 462 l 1,32,-1
 310 462 l 1,33,-1
 310 0 l 1,34,-1
 136 0 l 1,0,-1
307 600 m 1,35,-1
 529 600 l 1,36,-1
 529 694 l 2,37,38
 529 722 529 722 533.5 748.5 c 128,-1,39
 538 775 538 775 547 798 c 1,40,41
 522 817 522 817 494.5 827 c 128,-1,42
 467 837 467 837 435 837 c 0,43,44
 378 837 378 837 342.5 800.5 c 128,-1,45
 307 764 307 764 307 697 c 2,46,-1
 307 600 l 1,35,-1
EndSplineSet
Ligature2: "'liga' Standard Ligatures in Latin lookup 35 subtable" f f i
LCarets2: 2 383 767
EndChar

StartChar: f_f_j
Encoding: 65577 -1 462
Width: 1150
GlyphClass: 3
LigCaretCntFixed: 1
Flags: W
AnchorPoint: "Anchor-6" 192 0 baselig 0
AnchorPoint: "Anchor-5" 192 960 baselig 0
AnchorPoint: "Anchor-6" 575 0 baselig 1
AnchorPoint: "Anchor-5" 575 960 baselig 1
AnchorPoint: "Anchor-6" 958 0 baselig 2
AnchorPoint: "Anchor-5" 958 960 baselig 2
LayerCount: 2
Fore
SplineSet
876 -312 m 1,0,-1
 843 -173 l 1,1,2
 876 -173 876 -173 893 -155.5 c 128,-1,3
 910 -138 910 -138 910 -99 c 2,4,-1
 910 462 l 1,5,-1
 700 462 l 1,6,-1
 700 0 l 1,7,-1
 526 0 l 1,8,-1
 526 462 l 1,9,-1
 310 462 l 1,10,-1
 310 0 l 1,11,-1
 136 0 l 1,12,-1
 136 462 l 1,13,-1
 24 462 l 1,14,-1
 24 600 l 1,15,-1
 139 600 l 1,16,-1
 139 706 l 2,17,18
 139 791 139 791 177.5 850.5 c 128,-1,19
 216 910 216 910 281 941 c 128,-1,20
 346 972 346 972 423 972 c 0,21,22
 476 972 476 972 527.5 956.5 c 128,-1,23
 579 941 579 941 627 906 c 1,24,25
 712 972 712 972 829 972 c 0,26,27
 949 972 949 972 1030 912 c 1,28,-1
 991 753 l 1,29,30
 966 791 966 791 927 814 c 128,-1,31
 888 837 888 837 840 837 c 0,32,33
 776 837 776 837 736.5 798 c 128,-1,34
 697 759 697 759 697 688 c 2,35,-1
 697 600 l 1,36,-1
 1084 600 l 1,37,-1
 1084 -99 l 2,38,39
 1084 -200 1084 -200 1025.5 -256 c 128,-1,40
 967 -312 967 -312 876 -312 c 1,0,-1
307 600 m 1,41,-1
 529 600 l 1,42,-1
 529 694 l 2,43,44
 529 722 529 722 533.5 748.5 c 128,-1,45
 538 775 538 775 547 798 c 1,46,47
 522 817 522 817 494.5 827 c 128,-1,48
 467 837 467 837 435 837 c 0,49,50
 378 837 378 837 342.5 800.5 c 128,-1,51
 307 764 307 764 307 697 c 2,52,-1
 307 600 l 1,41,-1
EndSplineSet
Ligature2: "'dlig' Discretionary Ligatures in Latin lookup 34 subtable" f f j
LCarets2: 2 383 767
EndChar

StartChar: f_f_k
Encoding: 65578 -1 463
Width: 1520
GlyphClass: 3
LigCaretCntFixed: 1
Flags: W
AnchorPoint: "Anchor-6" 253 0 baselig 0
AnchorPoint: "Anchor-5" 253 960 baselig 0
AnchorPoint: "Anchor-6" 760 0 baselig 1
AnchorPoint: "Anchor-5" 760 960 baselig 1
AnchorPoint: "Anchor-6" 1267 0 baselig 2
AnchorPoint: "Anchor-5" 1267 960 baselig 2
LayerCount: 2
Fore
SplineSet
136 0 m 1,0,-1
 136 462 l 1,1,-1
 24 462 l 1,2,-1
 24 600 l 1,3,-1
 139 600 l 1,4,-1
 139 706 l 2,5,6
 139 785 139 785 175 845 c 128,-1,7
 211 905 211 905 275 938.5 c 128,-1,8
 339 972 339 972 423 972 c 0,9,10
 473 972 473 972 519 959 c 128,-1,11
 565 946 565 946 599 923 c 1,12,13
 628 947 628 947 665.5 959.5 c 128,-1,14
 703 972 703 972 746 972 c 0,15,16
 782 972 782 972 813.5 964 c 128,-1,17
 845 956 845 956 867 941 c 1,18,-1
 833 800 l 1,19,20
 803 837 803 837 763 837 c 0,21,22
 732 837 732 837 714.5 816 c 128,-1,23
 697 795 697 795 697 757 c 2,24,-1
 697 600 l 1,25,-1
 916 600 l 1,26,-1
 916 960 l 1,27,-1
 1090 960 l 1,28,-1
 1090 0 l 1,29,-1
 916 0 l 1,30,-1
 916 462 l 1,31,-1
 700 462 l 1,32,-1
 700 0 l 1,33,-1
 526 0 l 1,34,-1
 526 462 l 1,35,-1
 310 462 l 1,36,-1
 310 0 l 1,37,-1
 136 0 l 1,0,-1
307 600 m 1,38,-1
 529 600 l 1,39,-1
 529 753 l 2,40,41
 529 764 529 764 530 776.5 c 128,-1,42
 531 789 531 789 534 808 c 1,43,44
 493 837 493 837 438 837 c 0,45,46
 378 837 378 837 342.5 799 c 128,-1,47
 307 761 307 761 307 697 c 2,48,-1
 307 600 l 1,38,-1
1315 0 m 1,49,-1
 1076 330 l 1,50,-1
 1273 600 l 1,51,-1
 1460 600 l 1,52,-1
 1266 345 l 1,53,-1
 1520 0 l 1,54,-1
 1315 0 l 1,49,-1
EndSplineSet
Ligature2: "'dlig' Discretionary Ligatures in Latin lookup 34 subtable" f f k
LCarets2: 2 507 1013
EndChar

StartChar: f_f_l
Encoding: 65579 -1 464
Width: 1160
GlyphClass: 3
LigCaretCntFixed: 1
Flags: W
LayerCount: 2
Fore
SplineSet
136 0 m 1,0,-1
 136 462 l 1,1,-1
 24 462 l 1,2,-1
 24 600 l 1,3,-1
 139 600 l 1,4,-1
 139 706 l 2,5,6
 139 785 139 785 175 845 c 128,-1,7
 211 905 211 905 275 938.5 c 128,-1,8
 339 972 339 972 423 972 c 0,9,10
 473 972 473 972 519 959 c 128,-1,11
 565 946 565 946 599 923 c 1,12,13
 628 947 628 947 665.5 959.5 c 128,-1,14
 703 972 703 972 746 972 c 0,15,16
 782 972 782 972 813.5 964 c 128,-1,17
 845 956 845 956 867 941 c 1,18,-1
 833 800 l 1,19,20
 803 837 803 837 763 837 c 0,21,22
 732 837 732 837 714.5 816 c 128,-1,23
 697 795 697 795 697 757 c 2,24,-1
 697 600 l 1,25,-1
 918 600 l 1,26,-1
 918 960 l 1,27,-1
 1092 960 l 1,28,-1
 1092 0 l 1,29,-1
 918 0 l 1,30,-1
 918 462 l 1,31,-1
 700 462 l 1,32,-1
 700 0 l 1,33,-1
 526 0 l 1,34,-1
 526 462 l 1,35,-1
 310 462 l 1,36,-1
 310 0 l 1,37,-1
 136 0 l 1,0,-1
307 600 m 1,38,-1
 529 600 l 1,39,-1
 529 753 l 2,40,41
 529 764 529 764 530 776.5 c 128,-1,42
 531 789 531 789 534 808 c 1,43,44
 493 837 493 837 438 837 c 0,45,46
 378 837 378 837 342.5 799 c 128,-1,47
 307 761 307 761 307 697 c 2,48,-1
 307 600 l 1,38,-1
EndSplineSet
Substitution2: "'ss03' Style Set 3 in Latin lookup 41 subtable" f_f_l.ss03
Ligature2: "'liga' Standard Ligatures in Latin lookup 35 subtable" f f l
Substitution2: "'aalt' Access All Alternates in Latin lookup 0 subtable" f_f_l.ss03
LCarets2: 2 387 773
EndChar

StartChar: f_f_l.ss03
Encoding: 65580 -1 465
Width: 1180
GlyphClass: 3
LigCaretCntFixed: 1
Flags: W
AnchorPoint: "Anchor-6" 197 0 baselig 0
AnchorPoint: "Anchor-5" 197 960 baselig 0
AnchorPoint: "Anchor-6" 590 0 baselig 1
AnchorPoint: "Anchor-5" 590 960 baselig 1
AnchorPoint: "Anchor-6" 983 0 baselig 2
AnchorPoint: "Anchor-5" 983 960 baselig 2
LayerCount: 2
Fore
SplineSet
136 0 m 1,0,-1
 136 462 l 1,1,-1
 24 462 l 1,2,-1
 24 600 l 1,3,-1
 139 600 l 1,4,-1
 139 706 l 2,5,6
 139 785 139 785 175 845 c 128,-1,7
 211 905 211 905 275 938.5 c 128,-1,8
 339 972 339 972 423 972 c 0,9,10
 473 972 473 972 519 959 c 128,-1,11
 565 946 565 946 599 923 c 1,12,13
 628 947 628 947 665.5 959.5 c 128,-1,14
 703 972 703 972 746 972 c 0,15,16
 782 972 782 972 813.5 964 c 128,-1,17
 845 956 845 956 867 941 c 1,18,-1
 833 800 l 1,19,20
 803 837 803 837 763 837 c 0,21,22
 732 837 732 837 714.5 816 c 128,-1,23
 697 795 697 795 697 757 c 2,24,-1
 697 600 l 1,25,-1
 913 600 l 1,26,-1
 913 960 l 1,27,-1
 1087 960 l 1,28,-1
 1087 201 l 2,29,30
 1087 162 1087 162 1104 144.5 c 128,-1,31
 1121 127 1121 127 1154 127 c 1,32,-1
 1121 -12 l 1,33,34
 1030 -12 1030 -12 971.5 44 c 128,-1,35
 913 100 913 100 913 201 c 2,36,-1
 913 462 l 1,37,-1
 700 462 l 1,38,-1
 700 0 l 1,39,-1
 526 0 l 1,40,-1
 526 462 l 1,41,-1
 310 462 l 1,42,-1
 310 0 l 1,43,-1
 136 0 l 1,0,-1
307 600 m 1,44,-1
 529 600 l 1,45,-1
 529 753 l 2,46,47
 529 764 529 764 530 776.5 c 128,-1,48
 531 789 531 789 534 808 c 1,49,50
 493 837 493 837 438 837 c 0,51,52
 378 837 378 837 342.5 799 c 128,-1,53
 307 761 307 761 307 697 c 2,54,-1
 307 600 l 1,44,-1
EndSplineSet
Ligature2: "'liga' Standard Ligatures in Latin lookup 35 subtable" f f l.ss03
LCarets2: 2 393 787
EndChar

StartChar: f_b
Encoding: 65581 -1 466
Width: 1200
GlyphClass: 3
LigCaretCntFixed: 1
Flags: W
AnchorPoint: "Anchor-6" 300 0 baselig 0
AnchorPoint: "Anchor-5" 300 960 baselig 0
AnchorPoint: "Anchor-6" 900 0 baselig 1
AnchorPoint: "Anchor-5" 900 960 baselig 1
LayerCount: 2
Fore
SplineSet
863 -16 m 0,0,1
 806 -16 806 -16 758.5 4 c 128,-1,2
 711 24 711 24 676 59 c 1,3,-1
 676 0 l 1,4,-1
 526 0 l 1,5,-1
 526 462 l 1,6,-1
 310 462 l 1,7,-1
 310 0 l 1,8,-1
 136 0 l 1,9,-1
 136 462 l 1,10,-1
 24 462 l 1,11,-1
 24 600 l 1,12,-1
 139 600 l 1,13,-1
 139 753 l 2,14,15
 139 860 139 860 201.5 916 c 128,-1,16
 264 972 264 972 356 972 c 0,17,18
 390 972 390 972 421.5 964.5 c 128,-1,19
 453 957 453 957 477 941 c 1,20,-1
 443 800 l 1,21,22
 413 837 413 837 373 837 c 0,23,24
 349 837 349 837 328 820 c 128,-1,25
 307 803 307 803 307 757 c 2,26,-1
 307 600 l 1,27,-1
 526 600 l 1,28,-1
 526 960 l 1,29,-1
 700 960 l 1,30,-1
 700 562 l 1,31,32
 733 588 733 588 774 602 c 128,-1,33
 815 616 815 616 863 616 c 0,34,35
 947 616 947 616 1015 573.5 c 128,-1,36
 1083 531 1083 531 1123.5 459 c 128,-1,37
 1164 387 1164 387 1164 300 c 256,38,39
 1164 213 1164 213 1123.5 141.5 c 128,-1,40
 1083 70 1083 70 1015 27 c 128,-1,41
 947 -16 947 -16 863 -16 c 0,0,1
843 137 m 256,42,43
 887 137 887 137 923 159 c 128,-1,44
 959 181 959 181 980.5 218 c 128,-1,45
 1002 255 1002 255 1002 300 c 256,46,47
 1002 345 1002 345 980.5 382 c 128,-1,48
 959 419 959 419 923 441 c 128,-1,49
 887 463 887 463 843 463 c 256,50,51
 799 463 799 463 763 441 c 128,-1,52
 727 419 727 419 705.5 382 c 128,-1,53
 684 345 684 345 684 300 c 256,54,55
 684 255 684 255 705.5 218 c 128,-1,56
 727 181 727 181 763 159 c 128,-1,57
 799 137 799 137 843 137 c 256,42,43
EndSplineSet
Ligature2: "'dlig' Discretionary Ligatures in Latin lookup 34 subtable" f b
LCarets2: 1 600
EndChar

StartChar: f_h
Encoding: 65582 -1 467
Width: 1160
GlyphClass: 3
LigCaretCntFixed: 1
Flags: W
AnchorPoint: "Anchor-6" 290 0 baselig 0
AnchorPoint: "Anchor-5" 290 960 baselig 0
AnchorPoint: "Anchor-6" 870 0 baselig 1
AnchorPoint: "Anchor-5" 870 960 baselig 1
LayerCount: 2
Fore
SplineSet
136 0 m 1,0,-1
 136 462 l 1,1,-1
 24 462 l 1,2,-1
 24 600 l 1,3,-1
 139 600 l 1,4,-1
 139 753 l 2,5,6
 139 860 139 860 201.5 916 c 128,-1,7
 264 972 264 972 356 972 c 0,8,9
 390 972 390 972 421.5 964.5 c 128,-1,10
 453 957 453 957 477 941 c 1,11,-1
 443 800 l 1,12,13
 413 837 413 837 373 837 c 0,14,15
 349 837 349 837 328 820 c 128,-1,16
 307 803 307 803 307 757 c 2,17,-1
 307 600 l 1,18,-1
 526 600 l 1,19,-1
 526 960 l 1,20,-1
 700 960 l 1,21,-1
 700 555 l 1,22,23
 732 587 732 587 773.5 603.5 c 128,-1,24
 815 620 815 620 862 620 c 0,25,26
 926 620 926 620 981.5 589.5 c 128,-1,27
 1037 559 1037 559 1071.5 500.5 c 128,-1,28
 1106 442 1106 442 1106 359 c 2,29,-1
 1106 0 l 1,30,-1
 932 0 l 1,31,-1
 932 336 l 2,32,33
 932 386 932 386 902 425 c 128,-1,34
 872 464 872 464 816 464 c 0,35,36
 771 464 771 464 735.5 433.5 c 128,-1,37
 700 403 700 403 700 338 c 2,38,-1
 700 0 l 1,39,-1
 526 0 l 1,40,-1
 526 462 l 1,41,-1
 310 462 l 1,42,-1
 310 0 l 1,43,-1
 136 0 l 1,0,-1
EndSplineSet
Ligature2: "'dlig' Discretionary Ligatures in Latin lookup 34 subtable" f h
LCarets2: 1 580
EndChar

StartChar: fi
Encoding: 64257 64257 468
Width: 760
GlyphClass: 3
LigCaretCntFixed: 1
Flags: W
LayerCount: 2
Fore
SplineSet
136 0 m 1,0,-1
 136 462 l 1,1,-1
 24 462 l 1,2,-1
 24 600 l 1,3,-1
 139 600 l 1,4,-1
 139 694 l 2,5,6
 139 783 139 783 180.5 845 c 128,-1,7
 222 907 222 907 290.5 939.5 c 128,-1,8
 359 972 359 972 440 972 c 0,9,10
 559 972 559 972 640 912 c 1,11,-1
 601 753 l 1,12,13
 576 787 576 787 537 807.5 c 128,-1,14
 498 828 498 828 451 828 c 0,15,16
 386 828 386 828 346.5 789 c 128,-1,17
 307 750 307 750 307 682 c 2,18,-1
 307 600 l 1,19,-1
 694 600 l 1,20,-1
 694 0 l 1,21,-1
 520 0 l 1,22,-1
 520 462 l 1,23,-1
 310 462 l 1,24,-1
 310 0 l 1,25,-1
 136 0 l 1,0,-1
EndSplineSet
Ligature2: "'liga' Standard Ligatures in Latin lookup 35 subtable" f i
MultipleSubs2: "'ccmp' Glyph Composition/Decomposition in Latin lookup 9 subtable" f i
LCarets2: 1 380
EndChar

StartChar: f_j
Encoding: 65583 -1 469
Width: 760
GlyphClass: 3
LigCaretCntFixed: 1
Flags: W
AnchorPoint: "Anchor-6" 190 0 baselig 0
AnchorPoint: "Anchor-5" 190 960 baselig 0
AnchorPoint: "Anchor-6" 570 0 baselig 1
AnchorPoint: "Anchor-5" 570 960 baselig 1
LayerCount: 2
Fore
SplineSet
486 -312 m 1,0,-1
 453 -173 l 1,1,2
 486 -173 486 -173 503 -155.5 c 128,-1,3
 520 -138 520 -138 520 -99 c 2,4,-1
 520 462 l 1,5,-1
 310 462 l 1,6,-1
 310 0 l 1,7,-1
 136 0 l 1,8,-1
 136 462 l 1,9,-1
 24 462 l 1,10,-1
 24 600 l 1,11,-1
 139 600 l 1,12,-1
 139 694 l 2,13,14
 139 783 139 783 180.5 845 c 128,-1,15
 222 907 222 907 290.5 939.5 c 128,-1,16
 359 972 359 972 440 972 c 0,17,18
 559 972 559 972 640 912 c 1,19,-1
 601 753 l 1,20,21
 576 787 576 787 537 807.5 c 128,-1,22
 498 828 498 828 451 828 c 0,23,24
 386 828 386 828 346.5 789 c 128,-1,25
 307 750 307 750 307 682 c 2,26,-1
 307 600 l 1,27,-1
 694 600 l 1,28,-1
 694 -99 l 2,29,30
 694 -200 694 -200 635.5 -256 c 128,-1,31
 577 -312 577 -312 486 -312 c 1,0,-1
EndSplineSet
Ligature2: "'dlig' Discretionary Ligatures in Latin lookup 34 subtable" f j
LCarets2: 1 380
EndChar

StartChar: f_k
Encoding: 65584 -1 470
Width: 1130
GlyphClass: 3
LigCaretCntFixed: 1
Flags: W
AnchorPoint: "Anchor-6" 283 0 baselig 0
AnchorPoint: "Anchor-5" 283 960 baselig 0
AnchorPoint: "Anchor-6" 848 0 baselig 1
AnchorPoint: "Anchor-5" 848 960 baselig 1
LayerCount: 2
Fore
SplineSet
136 0 m 1,0,-1
 136 462 l 1,1,-1
 24 462 l 1,2,-1
 24 600 l 1,3,-1
 139 600 l 1,4,-1
 139 753 l 2,5,6
 139 860 139 860 201.5 916 c 128,-1,7
 264 972 264 972 356 972 c 0,8,9
 390 972 390 972 421.5 964.5 c 128,-1,10
 453 957 453 957 477 941 c 1,11,-1
 443 800 l 1,12,13
 413 837 413 837 373 837 c 0,14,15
 349 837 349 837 328 820 c 128,-1,16
 307 803 307 803 307 757 c 2,17,-1
 307 600 l 1,18,-1
 526 600 l 1,19,-1
 526 960 l 1,20,-1
 700 960 l 1,21,-1
 700 0 l 1,22,-1
 526 0 l 1,23,-1
 526 462 l 1,24,-1
 310 462 l 1,25,-1
 310 0 l 1,26,-1
 136 0 l 1,0,-1
925 0 m 1,27,-1
 686 330 l 1,28,-1
 883 600 l 1,29,-1
 1070 600 l 1,30,-1
 876 345 l 1,31,-1
 1130 0 l 1,32,-1
 925 0 l 1,27,-1
EndSplineSet
Ligature2: "'dlig' Discretionary Ligatures in Latin lookup 34 subtable" f k
LCarets2: 1 565
EndChar

StartChar: fl
Encoding: 64258 64258 471
Width: 770
GlyphClass: 3
LigCaretCntFixed: 1
Flags: W
LayerCount: 2
Fore
SplineSet
136 0 m 1,0,-1
 136 462 l 1,1,-1
 24 462 l 1,2,-1
 24 600 l 1,3,-1
 139 600 l 1,4,-1
 139 753 l 2,5,6
 139 860 139 860 201.5 916 c 128,-1,7
 264 972 264 972 356 972 c 0,8,9
 390 972 390 972 421.5 964.5 c 128,-1,10
 453 957 453 957 477 941 c 1,11,-1
 443 800 l 1,12,13
 413 837 413 837 373 837 c 0,14,15
 349 837 349 837 328 820 c 128,-1,16
 307 803 307 803 307 757 c 2,17,-1
 307 600 l 1,18,-1
 528 600 l 1,19,-1
 528 960 l 1,20,-1
 702 960 l 1,21,-1
 702 0 l 1,22,-1
 528 0 l 1,23,-1
 528 462 l 1,24,-1
 310 462 l 1,25,-1
 310 0 l 1,26,-1
 136 0 l 1,0,-1
EndSplineSet
Substitution2: "'ss03' Style Set 3 in Latin lookup 41 subtable" fl.ss03
Ligature2: "'liga' Standard Ligatures in Latin lookup 35 subtable" f l
MultipleSubs2: "'ccmp' Glyph Composition/Decomposition in Latin lookup 9 subtable" f l
Substitution2: "'aalt' Access All Alternates in Latin lookup 0 subtable" fl.ss03
LCarets2: 1 385
EndChar

StartChar: fl.ss03
Encoding: 65585 -1 472
Width: 790
GlyphClass: 3
LigCaretCntFixed: 1
Flags: W
LayerCount: 2
Fore
SplineSet
136 0 m 1,0,-1
 136 462 l 1,1,-1
 24 462 l 1,2,-1
 24 600 l 1,3,-1
 139 600 l 1,4,-1
 139 753 l 2,5,6
 139 860 139 860 201.5 916 c 128,-1,7
 264 972 264 972 356 972 c 0,8,9
 390 972 390 972 421.5 964.5 c 128,-1,10
 453 957 453 957 477 941 c 1,11,-1
 443 800 l 1,12,13
 413 837 413 837 373 837 c 0,14,15
 349 837 349 837 328 820 c 128,-1,16
 307 803 307 803 307 757 c 2,17,-1
 307 600 l 1,18,-1
 523 600 l 1,19,-1
 523 960 l 1,20,-1
 697 960 l 1,21,-1
 697 201 l 2,22,23
 697 162 697 162 714 144.5 c 128,-1,24
 731 127 731 127 764 127 c 1,25,-1
 731 -12 l 1,26,27
 640 -12 640 -12 581.5 44 c 128,-1,28
 523 100 523 100 523 201 c 2,29,-1
 523 462 l 1,30,-1
 310 462 l 1,31,-1
 310 0 l 1,32,-1
 136 0 l 1,0,-1
EndSplineSet
Ligature2: "'liga' Standard Ligatures in Latin lookup 35 subtable" f l.ss03
LCarets2: 1 395
EndChar

StartChar: f_t
Encoding: 65586 -1 473
Width: 840
GlyphClass: 3
LigCaretCntFixed: 1
Flags: W
AnchorPoint: "Anchor-6" 210 0 baselig 0
AnchorPoint: "Anchor-5" 210 960 baselig 0
AnchorPoint: "Anchor-6" 630 0 baselig 1
AnchorPoint: "Anchor-5" 630 960 baselig 1
LayerCount: 2
Fore
SplineSet
136 0 m 1,0,-1
 136 462 l 1,1,-1
 24 462 l 1,2,-1
 24 600 l 1,3,-1
 139 600 l 1,4,-1
 139 746 l 2,5,6
 139 856 139 856 205 914 c 128,-1,7
 271 972 271 972 367 972 c 0,8,9
 404 972 404 972 438 963.5 c 128,-1,10
 472 955 472 955 498 938 c 1,11,-1
 463 794 l 1,12,13
 430 836 430 836 383 836 c 0,14,15
 354 836 354 836 330.5 816.5 c 128,-1,16
 307 797 307 797 307 748 c 2,17,-1
 307 600 l 1,18,-1
 529 600 l 1,19,-1
 529 800 l 1,20,-1
 697 800 l 1,21,-1
 697 600 l 1,22,-1
 816 600 l 1,23,-1
 816 462 l 1,24,-1
 700 462 l 1,25,-1
 700 0 l 1,26,-1
 526 0 l 1,27,-1
 526 462 l 1,28,-1
 310 462 l 1,29,-1
 310 0 l 1,30,-1
 136 0 l 1,0,-1
EndSplineSet
Ligature2: "'dlig' Discretionary Ligatures in Latin lookup 34 subtable" f t
LCarets2: 1 420
EndChar

StartChar: t_t
Encoding: 65587 -1 474
Width: 840
GlyphClass: 3
LigCaretCntFixed: 1
Flags: W
AnchorPoint: "Anchor-8" 210 300 baselig 0
AnchorPoint: "Anchor-7" 820 960 baselig 0
AnchorPoint: "Anchor-6" 210 0 baselig 0
AnchorPoint: "Anchor-5" 210 600 baselig 0
AnchorPoint: "Anchor-8" 630 300 baselig 1
AnchorPoint: "Anchor-7" 820 960 baselig 1
AnchorPoint: "Anchor-6" 630 0 baselig 1
AnchorPoint: "Anchor-5" 630 600 baselig 1
LayerCount: 2
Fore
SplineSet
526 0 m 1,0,-1
 526 462 l 1,1,-1
 310 462 l 1,2,-1
 310 0 l 1,3,-1
 136 0 l 1,4,-1
 136 462 l 1,5,-1
 24 462 l 1,6,-1
 24 600 l 1,7,-1
 139 600 l 1,8,-1
 139 800 l 1,9,-1
 307 800 l 1,10,-1
 307 600 l 1,11,-1
 529 600 l 1,12,-1
 529 800 l 1,13,-1
 697 800 l 1,14,-1
 697 600 l 1,15,-1
 816 600 l 1,16,-1
 816 462 l 1,17,-1
 700 462 l 1,18,-1
 700 0 l 1,19,-1
 526 0 l 1,0,-1
EndSplineSet
Ligature2: "'dlig' Discretionary Ligatures in Latin lookup 34 subtable" t t
LCarets2: 1 420
EndChar

StartChar: zero
Encoding: 48 48 475
Width: 750
GlyphClass: 1
Flags: W
LayerCount: 2
Fore
SplineSet
375 -20 m 256,0,1
 288 -20 288 -20 225.5 21 c 128,-1,2
 163 62 163 62 122 130 c 128,-1,3
 81 198 81 198 61.5 281.5 c 128,-1,4
 42 365 42 365 42 450 c 256,5,6
 42 535 42 535 61.5 618.5 c 128,-1,7
 81 702 81 702 122 770 c 128,-1,8
 163 838 163 838 225.5 879 c 128,-1,9
 288 920 288 920 375 920 c 256,10,11
 462 920 462 920 524.5 879 c 128,-1,12
 587 838 587 838 628 770 c 128,-1,13
 669 702 669 702 688.5 618.5 c 128,-1,14
 708 535 708 535 708 450 c 256,15,16
 708 365 708 365 688.5 281.5 c 128,-1,17
 669 198 669 198 628 130 c 128,-1,18
 587 62 587 62 524.5 21 c 128,-1,19
 462 -20 462 -20 375 -20 c 256,0,1
375 142 m 256,20,21
 417 142 417 142 446.5 170 c 128,-1,22
 476 198 476 198 494 243.5 c 128,-1,23
 512 289 512 289 520 343.5 c 128,-1,24
 528 398 528 398 528 450 c 0,25,26
 528 503 528 503 520 557 c 128,-1,27
 512 611 512 611 494 656.5 c 128,-1,28
 476 702 476 702 446.5 730 c 128,-1,29
 417 758 417 758 375 758 c 256,30,31
 333 758 333 758 303.5 730 c 128,-1,32
 274 702 274 702 256 656.5 c 128,-1,33
 238 611 238 611 230 557 c 128,-1,34
 222 503 222 503 222 450 c 0,35,36
 222 398 222 398 230 343.5 c 128,-1,37
 238 289 238 289 256 243.5 c 128,-1,38
 274 198 274 198 303.5 170 c 128,-1,39
 333 142 333 142 375 142 c 256,20,21
EndSplineSet
Substitution2: "'zero' Slashed Zero in Latin lookup 36 subtable" zero.zero
Substitution2: "'tnum' Tabular Numbers in Latin lookup 32 subtable" zero.tf
Substitution2: "'pnum' Proportional Numbers in Latin lookup 31 subtable" zero.lf
Substitution2: "'frac' Diagonal Fractions in Latin lookup 23 subtable" zero.numr
Substitution2: "'dnom' Denominators in Latin lookup 21 subtable" zero.dnom
Substitution2: "'numr' Numerators in Latin lookup 20 subtable" zero.numr
Substitution2: "'sups' Superscript in Latin lookup 19 subtable" uni2070
Substitution2: "'sinf' Scientific Inferiors in Latin lookup 18 subtable" uni2080
Substitution2: "'subs' Subscript in Latin lookup 17 subtable" uni2080
AlternateSubs2: "'aalt' Access All Alternates in Latin lookup 1 subtable" zero.zero zero.lf zero.tf zero.dnom zero.numr uni2080 uni2070
EndChar

StartChar: zero.zero
Encoding: 65588 -1 476
Width: 750
GlyphClass: 1
Flags: W
LayerCount: 2
Fore
SplineSet
375 -20 m 256,0,1
 277 -20 277 -20 202 40 c 128,-1,2
 127 100 127 100 84.5 206 c 128,-1,3
 42 312 42 312 42 451 c 0,4,5
 42 589 42 589 84.5 694.5 c 128,-1,6
 127 800 127 800 202 860 c 128,-1,7
 277 920 277 920 375 920 c 256,8,9
 473 920 473 920 548 860 c 128,-1,10
 623 800 623 800 665.5 694.5 c 128,-1,11
 708 589 708 589 708 451 c 0,12,13
 708 312 708 312 665.5 206 c 128,-1,14
 623 100 623 100 548 40 c 128,-1,15
 473 -20 473 -20 375 -20 c 256,0,1
375 136 m 0,16,17
 421 136 421 136 458 175 c 128,-1,18
 495 214 495 214 517.5 284.5 c 128,-1,19
 540 355 540 355 540 450 c 256,20,21
 540 545 540 545 517.5 615.5 c 128,-1,22
 495 686 495 686 458 725 c 128,-1,23
 421 764 421 764 375 764 c 0,24,25
 330 764 330 764 292.5 725 c 128,-1,26
 255 686 255 686 232.5 615.5 c 128,-1,27
 210 545 210 545 210 450 c 256,28,29
 210 355 210 355 232.5 284.5 c 128,-1,30
 255 214 255 214 292.5 175 c 128,-1,31
 330 136 330 136 375 136 c 0,16,17
375 375 m 0,32,33
 339 375 339 375 313.5 400.5 c 128,-1,34
 288 426 288 426 288 462 c 0,35,36
 288 499 288 499 313 524 c 128,-1,37
 338 549 338 549 375 549 c 0,38,39
 413 549 413 549 437.5 524.5 c 128,-1,40
 462 500 462 500 462 462 c 0,41,42
 462 425 462 425 437 400 c 128,-1,43
 412 375 412 375 375 375 c 0,32,33
EndSplineSet
EndChar

StartChar: one
Encoding: 49 49 477
Width: 750
GlyphClass: 1
Flags: W
LayerCount: 2
Fore
SplineSet
150 0 m 1,0,-1
 150 144 l 1,1,-1
 340 144 l 1,2,-1
 340 678 l 1,3,-1
 150 582 l 1,4,-1
 150 752 l 1,5,-1
 510 932 l 1,6,-1
 510 144 l 1,7,-1
 660 144 l 1,8,-1
 660 0 l 1,9,-1
 150 0 l 1,0,-1
EndSplineSet
Substitution2: "'tnum' Tabular Numbers in Latin lookup 32 subtable" one.tf
Substitution2: "'pnum' Proportional Numbers in Latin lookup 31 subtable" one.lf
Substitution2: "'frac' Diagonal Fractions in Latin lookup 23 subtable" one.numr
Substitution2: "'dnom' Denominators in Latin lookup 21 subtable" one.dnom
Substitution2: "'numr' Numerators in Latin lookup 20 subtable" one.numr
Substitution2: "'sups' Superscript in Latin lookup 19 subtable" uni00B9
Substitution2: "'sinf' Scientific Inferiors in Latin lookup 18 subtable" uni2081
Substitution2: "'subs' Subscript in Latin lookup 17 subtable" uni2081
AlternateSubs2: "'aalt' Access All Alternates in Latin lookup 1 subtable" one.lf one.tf one.dnom one.numr uni2081 uni00B9
EndChar

StartChar: two
Encoding: 50 50 478
Width: 750
GlyphClass: 1
Flags: W
LayerCount: 2
Fore
SplineSet
74 637 m 4,0,1
 74 713 74 713 112.5 777 c 128,-1,2
 151 841 151 841 217.5 880.5 c 128,-1,3
 284 920 284 920 367 920 c 0,4,5
 448 920 448 920 516 881.5 c 128,-1,6
 584 843 584 843 624.5 779 c 128,-1,7
 665 715 665 715 665 636 c 0,8,9
 665 588 665 588 647.5 544.5 c 128,-1,10
 630 501 630 501 592 448 c 2,11,-1
 389 162 l 1,12,-1
 676 162 l 1,13,-1
 676 0 l 1,14,-1
 86 0 l 1,15,-1
 452 537 l 2,16,17
 475 572 475 572 483 594.5 c 128,-1,18
 491 617 491 617 491 636 c 0,19,20
 491 687 491 687 455 722.5 c 128,-1,21
 419 758 419 758 366 758 c 256,22,23
 313 758 313 758 277.5 722.5 c 128,-1,24
 242 687 242 687 242 636 c 4,25,26
 242 636 242 636 74 637 c 4,0,1
EndSplineSet
Substitution2: "'tnum' Tabular Numbers in Latin lookup 32 subtable" two.tf
Substitution2: "'pnum' Proportional Numbers in Latin lookup 31 subtable" two.lf
Substitution2: "'frac' Diagonal Fractions in Latin lookup 23 subtable" two.numr
Substitution2: "'dnom' Denominators in Latin lookup 21 subtable" two.dnom
Substitution2: "'numr' Numerators in Latin lookup 20 subtable" two.numr
Substitution2: "'sups' Superscript in Latin lookup 19 subtable" uni00B2
Substitution2: "'sinf' Scientific Inferiors in Latin lookup 18 subtable" uni2082
Substitution2: "'subs' Subscript in Latin lookup 17 subtable" uni2082
AlternateSubs2: "'aalt' Access All Alternates in Latin lookup 1 subtable" two.lf two.tf two.dnom two.numr uni2082 uni00B2
EndChar

StartChar: three
Encoding: 51 51 479
Width: 750
GlyphClass: 1
Flags: W
LayerCount: 2
Fore
SplineSet
174.475092982 220 m 4,0,1
 187.515542599 202.440415819 187.515542599 202.440415819 204.5 187 c 0,2,3
 254 142 254 142 322 142 c 0,4,5
 368 142 368 142 404.5 163 c 128,-1,6
 441 184 441 184 462.5 220 c 128,-1,7
 484 256 484 256 484 301 c 0,8,9
 484 345 484 345 463.5 380.5 c 128,-1,10
 443 416 443 416 405.5 437 c 128,-1,11
 368 458 368 458 318 458 c 0,12,13
 288 458 288 458 261 450.5 c 128,-1,14
 234 443 234 443 205 428 c 1,15,-1
 367 744 l 1,16,-1
 108 744 l 1,17,-1
 108 900 l 1,18,-1
 624 900 l 1,19,-1
 453 581 l 1,20,21
 511 560 511 560 556 518.5 c 128,-1,22
 601 477 601 477 627.5 420 c 128,-1,23
 654 363 654 363 654 296 c 0,24,25
 654 207 654 207 608 135 c 128,-1,26
 562 63 562 63 486 21.5 c 128,-1,27
 410 -20 410 -20 320 -20 c 0,28,29
 235 -20 235 -20 163.5 17.5 c 128,-1,30
 92 55 92 55 48 116 c 5,31,-1
 174.475092982 220 l 4,0,1
EndSplineSet
Substitution2: "'tnum' Tabular Numbers in Latin lookup 32 subtable" three.tf
Substitution2: "'pnum' Proportional Numbers in Latin lookup 31 subtable" three.lf
Substitution2: "'frac' Diagonal Fractions in Latin lookup 23 subtable" three.numr
Substitution2: "'dnom' Denominators in Latin lookup 21 subtable" three.dnom
Substitution2: "'numr' Numerators in Latin lookup 20 subtable" three.numr
Substitution2: "'sups' Superscript in Latin lookup 19 subtable" uni00B3
Substitution2: "'sinf' Scientific Inferiors in Latin lookup 18 subtable" uni2083
Substitution2: "'subs' Subscript in Latin lookup 17 subtable" uni2083
AlternateSubs2: "'aalt' Access All Alternates in Latin lookup 1 subtable" three.lf three.tf three.dnom three.numr uni2083 uni00B3
EndChar

StartChar: four
Encoding: 52 52 480
Width: 750
GlyphClass: 1
Flags: W
LayerCount: 2
Fore
SplineSet
496.158088235 827 m 4,0,1
 496.158088235 827 496.158088235 827 252 356 c 1,2,-1
 442 356 l 1,3,-1
 442 536 l 1,4,-1
 602 536 l 1,5,-1
 602 356 l 1,6,-1
 708 356 l 1,7,-1
 708 212 l 1,8,-1
 606 212 l 1,9,-1
 606 0 l 1,10,-1
 438 0 l 1,11,-1
 438 212 l 1,12,-1
 2 212 l 1,13,-1
 354 900 l 5,14,-1
 496.158088235 827 l 4,0,1
EndSplineSet
Substitution2: "'tnum' Tabular Numbers in Latin lookup 32 subtable" four.tf
Substitution2: "'pnum' Proportional Numbers in Latin lookup 31 subtable" four.lf
Substitution2: "'frac' Diagonal Fractions in Latin lookup 23 subtable" four.numr
Substitution2: "'dnom' Denominators in Latin lookup 21 subtable" four.dnom
Substitution2: "'numr' Numerators in Latin lookup 20 subtable" four.numr
Substitution2: "'sups' Superscript in Latin lookup 19 subtable" uni2074
Substitution2: "'sinf' Scientific Inferiors in Latin lookup 18 subtable" uni2084
Substitution2: "'subs' Subscript in Latin lookup 17 subtable" uni2084
AlternateSubs2: "'aalt' Access All Alternates in Latin lookup 1 subtable" four.lf four.tf four.dnom four.numr uni2084 uni2074
EndChar

StartChar: five
Encoding: 53 53 481
Width: 750
GlyphClass: 1
Flags: W
LayerCount: 2
Fore
SplineSet
352 606 m 0,0,1
 432 606 432 606 500.5 566.5 c 128,-1,2
 569 527 569 527 611.5 458 c 128,-1,3
 654 389 654 389 654 300 c 0,4,5
 654 210 654 210 609 137.5 c 128,-1,6
 564 65 564 65 489.5 22.5 c 128,-1,7
 415 -20 415 -20 324 -20 c 0,8,9
 237 -20 237 -20 164.5 17.5 c 128,-1,10
 92 55 92 55 48 116 c 1,11,-1
 175.978392239 218 l 0,12,13
 188 202 188 202 204.5 187 c 0,14,15
 254 142 254 142 322 142 c 0,16,17
 367 142 367 142 403.5 163 c 128,-1,18
 440 184 440 184 462 220 c 128,-1,19
 484 256 484 256 484 302 c 0,20,21
 484 350 484 350 461 385 c 128,-1,22
 438 420 438 420 399.5 439 c 128,-1,23
 361 458 361 458 315 458 c 0,24,25
 315 458 315 458 162 457 c 0,26,27
 162 457 162 457 162 900 c 1,28,-1
 594 900 l 1,29,-1
 594 744 l 1,30,-1
 306 744 l 1,31,-1
 306 605 l 1,32,33
 306 605 306 605 352 606 c 0,0,1
EndSplineSet
Substitution2: "'tnum' Tabular Numbers in Latin lookup 32 subtable" five.tf
Substitution2: "'pnum' Proportional Numbers in Latin lookup 31 subtable" five.lf
Substitution2: "'frac' Diagonal Fractions in Latin lookup 23 subtable" five.numr
Substitution2: "'dnom' Denominators in Latin lookup 21 subtable" five.dnom
Substitution2: "'numr' Numerators in Latin lookup 20 subtable" five.numr
Substitution2: "'sups' Superscript in Latin lookup 19 subtable" uni2075
Substitution2: "'sinf' Scientific Inferiors in Latin lookup 18 subtable" uni2085
Substitution2: "'subs' Subscript in Latin lookup 17 subtable" uni2085
AlternateSubs2: "'aalt' Access All Alternates in Latin lookup 1 subtable" five.lf five.tf five.dnom five.numr uni2085 uni2075
EndChar

StartChar: six
Encoding: 54 54 482
Width: 750
GlyphClass: 1
Flags: W
LayerCount: 2
Fore
SplineSet
381 -20 m 0,0,1
 290 -20 290 -20 215.5 22 c 128,-1,2
 141 64 141 64 97.5 135 c 128,-1,3
 54 206 54 206 54 294 c 0,4,5
 54 336 54 336 65 374.5 c 128,-1,6
 76 413 76 413 96 452 c 2,7,-1
 332 900 l 1,8,-1
 516 900 l 1,9,-1
 354 602 l 1,10,11
 365 604 365 604 376.5 605 c 128,-1,12
 388 606 388 606 399 606 c 0,13,14
 484 606 484 606 554 564.5 c 128,-1,15
 624 523 624 523 666 453 c 128,-1,16
 708 383 708 383 708 296 c 0,17,18
 708 207 708 207 664.5 135.5 c 128,-1,19
 621 64 621 64 547 22 c 128,-1,20
 473 -20 473 -20 381 -20 c 0,0,1
381 142 m 256,21,22
 425 142 425 142 460.5 163.5 c 128,-1,23
 496 185 496 185 517 220.5 c 128,-1,24
 538 256 538 256 538 299 c 256,25,26
 538 342 538 342 517.5 377.5 c 128,-1,27
 497 413 497 413 461.5 434.5 c 128,-1,28
 426 456 426 456 381 456 c 0,29,30
 337 456 337 456 301.5 434.5 c 128,-1,31
 266 413 266 413 245 377.5 c 128,-1,32
 224 342 224 342 224 299 c 256,33,34
 224 256 224 256 245 220.5 c 128,-1,35
 266 185 266 185 301.5 163.5 c 128,-1,36
 337 142 337 142 381 142 c 256,21,22
EndSplineSet
Substitution2: "'tnum' Tabular Numbers in Latin lookup 32 subtable" six.tf
Substitution2: "'pnum' Proportional Numbers in Latin lookup 31 subtable" six.lf
Substitution2: "'frac' Diagonal Fractions in Latin lookup 23 subtable" six.numr
Substitution2: "'dnom' Denominators in Latin lookup 21 subtable" six.dnom
Substitution2: "'numr' Numerators in Latin lookup 20 subtable" six.numr
Substitution2: "'sups' Superscript in Latin lookup 19 subtable" uni2076
Substitution2: "'sinf' Scientific Inferiors in Latin lookup 18 subtable" uni2086
Substitution2: "'subs' Subscript in Latin lookup 17 subtable" uni2086
AlternateSubs2: "'aalt' Access All Alternates in Latin lookup 1 subtable" six.lf six.tf six.dnom six.numr uni2086 uni2076
EndChar

StartChar: seven
Encoding: 55 55 483
Width: 750
GlyphClass: 1
Flags: W
LayerCount: 2
Fore
SplineSet
104 0 m 1,0,-1
 456 738 l 1,1,-1
 72 738 l 1,2,-1
 72 900 l 1,3,-1
 725 900 l 1,4,-1
 302 0 l 1,5,-1
 104 0 l 1,0,-1
EndSplineSet
Substitution2: "'tnum' Tabular Numbers in Latin lookup 32 subtable" seven.tf
Substitution2: "'pnum' Proportional Numbers in Latin lookup 31 subtable" seven.lf
Substitution2: "'frac' Diagonal Fractions in Latin lookup 23 subtable" seven.numr
Substitution2: "'dnom' Denominators in Latin lookup 21 subtable" seven.dnom
Substitution2: "'numr' Numerators in Latin lookup 20 subtable" seven.numr
Substitution2: "'sups' Superscript in Latin lookup 19 subtable" uni2077
Substitution2: "'sinf' Scientific Inferiors in Latin lookup 18 subtable" uni2087
Substitution2: "'subs' Subscript in Latin lookup 17 subtable" uni2087
AlternateSubs2: "'aalt' Access All Alternates in Latin lookup 1 subtable" seven.lf seven.tf seven.dnom seven.numr uni2087 uni2077
EndChar

StartChar: eight
Encoding: 56 56 484
Width: 750
GlyphClass: 1
Flags: W
LayerCount: 2
Fore
SplineSet
375 -20 m 0,0,1
 288 -20 288 -20 214.5 21.5 c 128,-1,2
 141 63 141 63 97 134.5 c 128,-1,3
 53 206 53 206 53 294 c 0,4,5
 53 374 53 374 89.5 439.5 c 128,-1,6
 126 505 126 505 185 547 c 1,7,8
 162 575 162 575 148.5 609.5 c 128,-1,9
 135 644 135 644 135 687 c 0,10,11
 135 753 135 753 167.5 805.5 c 128,-1,12
 200 858 200 858 254.5 889 c 128,-1,13
 309 920 309 920 375 920 c 0,14,15
 442 920 442 920 496 889 c 128,-1,16
 550 858 550 858 582.5 805.5 c 128,-1,17
 615 753 615 753 615 687 c 0,18,19
 615 645 615 645 601.5 610 c 128,-1,20
 588 575 588 575 565 547 c 1,21,22
 624 505 624 505 660.5 439.5 c 128,-1,23
 697 374 697 374 697 294 c 0,24,25
 697 208 697 208 652 136.5 c 128,-1,26
 607 65 607 65 533.5 22.5 c 128,-1,27
 460 -20 460 -20 375 -20 c 0,0,1
375 138 m 0,28,29
 419 138 419 138 454 159 c 128,-1,30
 489 180 489 180 510 215.5 c 128,-1,31
 531 251 531 251 531 294 c 0,32,33
 531 338 531 338 510 373 c 128,-1,34
 489 408 489 408 454 429 c 128,-1,35
 419 450 419 450 375 450 c 0,36,37
 332 450 332 450 296.5 429 c 128,-1,38
 261 408 261 408 240 373 c 128,-1,39
 219 338 219 338 219 294 c 0,40,41
 219 251 219 251 240 215.5 c 128,-1,42
 261 180 261 180 296.5 159 c 128,-1,43
 332 138 332 138 375 138 c 0,28,29
375 590 m 0,44,45
 413 590 413 590 439 616.5 c 128,-1,46
 465 643 465 643 465 680 c 0,47,48
 465 718 465 718 439 744 c 128,-1,49
 413 770 413 770 375 770 c 0,50,51
 338 770 338 770 311.5 744 c 128,-1,52
 285 718 285 718 285 680 c 0,53,54
 285 643 285 643 311.5 616.5 c 128,-1,55
 338 590 338 590 375 590 c 0,44,45
EndSplineSet
Substitution2: "'tnum' Tabular Numbers in Latin lookup 32 subtable" eight.tf
Substitution2: "'pnum' Proportional Numbers in Latin lookup 31 subtable" eight.lf
Substitution2: "'frac' Diagonal Fractions in Latin lookup 23 subtable" eight.numr
Substitution2: "'dnom' Denominators in Latin lookup 21 subtable" eight.dnom
Substitution2: "'numr' Numerators in Latin lookup 20 subtable" eight.numr
Substitution2: "'sups' Superscript in Latin lookup 19 subtable" uni2078
Substitution2: "'sinf' Scientific Inferiors in Latin lookup 18 subtable" uni2088
Substitution2: "'subs' Subscript in Latin lookup 17 subtable" uni2088
AlternateSubs2: "'aalt' Access All Alternates in Latin lookup 1 subtable" eight.lf eight.tf eight.dnom eight.numr uni2088 uni2078
EndChar

StartChar: nine
Encoding: 57 57 485
Width: 750
GlyphClass: 1
Flags: W
LayerCount: 2
Fore
SplineSet
228 0 m 1,0,-1
 390 309 l 1,1,2
 380 308 380 308 370.5 307 c 128,-1,3
 361 306 361 306 351 306 c 0,4,5
 266 306 266 306 197 346.5 c 128,-1,6
 128 387 128 387 88 456 c 128,-1,7
 48 525 48 525 48 610 c 0,8,9
 48 698 48 698 91 768 c 128,-1,10
 134 838 134 838 207 879 c 128,-1,11
 280 920 280 920 369 920 c 0,12,13
 459 920 459 920 531.5 879 c 128,-1,14
 604 838 604 838 647 768.5 c 128,-1,15
 690 699 690 699 690 613 c 0,16,17
 690 572 690 572 679.5 534.5 c 128,-1,18
 669 497 669 497 649 459 c 2,19,-1
 408 0 l 1,20,-1
 228 0 l 1,0,-1
369 456 m 256,21,22
 411 456 411 456 445.5 476.5 c 128,-1,23
 480 497 480 497 500 531.5 c 128,-1,24
 520 566 520 566 520 608 c 0,25,26
 520 649 520 649 500 683 c 128,-1,27
 480 717 480 717 445.5 737.5 c 128,-1,28
 411 758 411 758 369 758 c 256,29,30
 327 758 327 758 293 737.5 c 128,-1,31
 259 717 259 717 238.5 683 c 128,-1,32
 218 649 218 649 218 607 c 0,33,34
 218 566 218 566 238 531.5 c 128,-1,35
 258 497 258 497 292.5 476.5 c 128,-1,36
 327 456 327 456 369 456 c 256,21,22
EndSplineSet
Substitution2: "'tnum' Tabular Numbers in Latin lookup 32 subtable" nine.tf
Substitution2: "'pnum' Proportional Numbers in Latin lookup 31 subtable" nine.lf
Substitution2: "'frac' Diagonal Fractions in Latin lookup 23 subtable" nine.numr
Substitution2: "'dnom' Denominators in Latin lookup 21 subtable" nine.dnom
Substitution2: "'numr' Numerators in Latin lookup 20 subtable" nine.numr
Substitution2: "'sups' Superscript in Latin lookup 19 subtable" uni2079
Substitution2: "'sinf' Scientific Inferiors in Latin lookup 18 subtable" uni2089
Substitution2: "'subs' Subscript in Latin lookup 17 subtable" uni2089
AlternateSubs2: "'aalt' Access All Alternates in Latin lookup 1 subtable" nine.lf nine.tf nine.dnom nine.numr uni2089 uni2079
EndChar

StartChar: dek
Encoding: 8586 8586 486
Width: 750
GlyphClass: 1
Flags: W
LayerCount: 2
Fore
SplineSet
383 -20 m 0,0,1
 302 -20 302 -20 234.5 18.5 c 128,-1,2
 167 57 167 57 126 121.5 c 128,-1,3
 85 186 85 186 85 264 c 0,4,5
 85 312 85 312 103 355.5 c 128,-1,6
 121 399 121 399 158 452 c 2,7,-1
 361 738 l 1,8,-1
 74 738 l 1,9,-1
 74 900 l 1,10,-1
 664 900 l 1,11,-1
 298 363 l 2,12,13
 275 329 275 329 267 306.5 c 128,-1,14
 259 284 259 284 259 264 c 0,15,16
 259 213 259 213 295 177.5 c 128,-1,17
 331 142 331 142 384 142 c 256,18,19
 437 142 437 142 472.5 177.5 c 128,-1,20
 508 213 508 213 508 264 c 0,21,22
 508 332 508 332 449 382 c 1,23,-1
 645 382 l 1,24,25
 676 326 676 326 676 263 c 0,26,27
 676 188 676 188 637.5 123.5 c 128,-1,28
 599 59 599 59 532.5 19.5 c 128,-1,29
 466 -20 466 -20 383 -20 c 0,0,1
EndSplineSet
Substitution2: "'tnum' Tabular Numbers in Latin lookup 32 subtable" dek.tf
Substitution2: "'pnum' Proportional Numbers in Latin lookup 31 subtable" dek.lf
Substitution2: "'frac' Diagonal Fractions in Latin lookup 23 subtable" dek.numr
Substitution2: "'dnom' Denominators in Latin lookup 21 subtable" dek.dnom
Substitution2: "'numr' Numerators in Latin lookup 20 subtable" dek.numr
Substitution2: "'sups' Superscript in Latin lookup 19 subtable" deksuperior
Substitution2: "'sinf' Scientific Inferiors in Latin lookup 18 subtable" dekinferior
Substitution2: "'subs' Subscript in Latin lookup 17 subtable" dekinferior
AlternateSubs2: "'aalt' Access All Alternates in Latin lookup 1 subtable" dek.lf dek.tf dek.dnom dek.numr dekinferior deksuperior
EndChar

StartChar: el
Encoding: 8587 8587 487
Width: 750
GlyphClass: 1
Flags: W
LayerCount: 2
Fore
SplineSet
114 0 m 1,0,-1
 295 338 l 1,1,2
 243 360 243 360 202 399.5 c 128,-1,3
 161 439 161 439 137.5 492.5 c 128,-1,4
 114 546 114 546 114 609 c 0,5,6
 114 696 114 696 158.5 766.5 c 128,-1,7
 203 837 203 837 276.5 878.5 c 128,-1,8
 350 920 350 920 437 920 c 0,9,10
 519 920 519 920 587 884.5 c 128,-1,11
 655 849 655 849 696 791 c 1,12,-1
 606 614 l 1,13,14
 591 674 591 674 546.5 717 c 128,-1,15
 502 760 502 760 437 760 c 0,16,17
 394 760 394 760 359.5 740 c 128,-1,18
 325 720 325 720 304.5 686 c 128,-1,19
 284 652 284 652 284 609 c 0,20,21
 284 568 284 568 303 533.5 c 128,-1,22
 322 499 322 499 356.5 479 c 128,-1,23
 391 459 391 459 435 459 c 0,24,25
 490 459 490 459 539 483 c 1,26,-1
 371 156 l 1,27,-1
 676 156 l 1,28,-1
 676 0 l 1,29,-1
 114 0 l 1,0,-1
EndSplineSet
Substitution2: "'tnum' Tabular Numbers in Latin lookup 32 subtable" el.tf
Substitution2: "'pnum' Proportional Numbers in Latin lookup 31 subtable" el.lf
Substitution2: "'frac' Diagonal Fractions in Latin lookup 23 subtable" el.numr
Substitution2: "'dnom' Denominators in Latin lookup 21 subtable" el.dnom
Substitution2: "'numr' Numerators in Latin lookup 20 subtable" el.numr
Substitution2: "'sups' Superscript in Latin lookup 19 subtable" elsuperior
Substitution2: "'sinf' Scientific Inferiors in Latin lookup 18 subtable" elinferior
Substitution2: "'subs' Subscript in Latin lookup 17 subtable" elinferior
AlternateSubs2: "'aalt' Access All Alternates in Latin lookup 1 subtable" el.lf el.tf el.dnom el.numr elinferior elsuperior
EndChar

StartChar: zero.lf
Encoding: 65589 -1 488
Width: 750
GlyphClass: 1
Flags: W
LayerCount: 2
Fore
SplineSet
375 -20 m 256,0,1
 288 -20 288 -20 225.5 21 c 128,-1,2
 163 62 163 62 122 130 c 128,-1,3
 81 198 81 198 61.5 281.5 c 128,-1,4
 42 365 42 365 42 450 c 256,5,6
 42 535 42 535 61.5 618.5 c 128,-1,7
 81 702 81 702 122 770 c 128,-1,8
 163 838 163 838 225.5 879 c 128,-1,9
 288 920 288 920 375 920 c 256,10,11
 462 920 462 920 524.5 879 c 128,-1,12
 587 838 587 838 628 770 c 128,-1,13
 669 702 669 702 688.5 618.5 c 128,-1,14
 708 535 708 535 708 450 c 256,15,16
 708 365 708 365 688.5 281.5 c 128,-1,17
 669 198 669 198 628 130 c 128,-1,18
 587 62 587 62 524.5 21 c 128,-1,19
 462 -20 462 -20 375 -20 c 256,0,1
375 142 m 256,20,21
 417 142 417 142 446.5 170 c 128,-1,22
 476 198 476 198 494 243.5 c 128,-1,23
 512 289 512 289 520 343.5 c 128,-1,24
 528 398 528 398 528 450 c 0,25,26
 528 503 528 503 520 557 c 128,-1,27
 512 611 512 611 494 656.5 c 128,-1,28
 476 702 476 702 446.5 730 c 128,-1,29
 417 758 417 758 375 758 c 256,30,31
 333 758 333 758 303.5 730 c 128,-1,32
 274 702 274 702 256 656.5 c 128,-1,33
 238 611 238 611 230 557 c 128,-1,34
 222 503 222 503 222 450 c 0,35,36
 222 398 222 398 230 343.5 c 128,-1,37
 238 289 238 289 256 243.5 c 128,-1,38
 274 198 274 198 303.5 170 c 128,-1,39
 333 142 333 142 375 142 c 256,20,21
EndSplineSet
Substitution2: "'ss01' Style Set 1 in Latin lookup 39 subtable" zero.lf.ss01
Substitution2: "'zero' Slashed Zero in Latin lookup 36 subtable" zero.lf.zero
Substitution2: "'tnum' Tabular Numbers in Latin lookup 32 subtable" zero
AlternateSubs2: "'aalt' Access All Alternates in Latin lookup 1 subtable" zero zero.lf.ss01 zero.lf.zero
EndChar

StartChar: zero.lf.ss01
Encoding: 65590 -1 489
Width: 1060
GlyphClass: 1
Flags: W
LayerCount: 2
Fore
SplineSet
530 -18 m 256,0,1
 431 -18 431 -18 345 18.5 c 128,-1,2
 259 55 259 55 193.5 119 c 128,-1,3
 128 183 128 183 91 268 c 128,-1,4
 54 353 54 353 54 450 c 256,5,6
 54 547 54 547 91 632 c 128,-1,7
 128 717 128 717 193.5 781 c 128,-1,8
 259 845 259 845 345 881.5 c 128,-1,9
 431 918 431 918 530 918 c 256,10,11
 629 918 629 918 715 881.5 c 128,-1,12
 801 845 801 845 866.5 781 c 128,-1,13
 932 717 932 717 969 632 c 128,-1,14
 1006 547 1006 547 1006 450 c 256,15,16
 1006 353 1006 353 969 268 c 128,-1,17
 932 183 932 183 866.5 119 c 128,-1,18
 801 55 801 55 715 18.5 c 128,-1,19
 629 -18 629 -18 530 -18 c 256,0,1
530 156 m 256,20,21
 611 156 611 156 676 195.5 c 128,-1,22
 741 235 741 235 779.5 302 c 128,-1,23
 818 369 818 369 818 450 c 0,24,25
 818 532 818 532 779.5 598.5 c 128,-1,26
 741 665 741 665 676 704.5 c 128,-1,27
 611 744 611 744 530 744 c 256,28,29
 449 744 449 744 383.5 704.5 c 128,-1,30
 318 665 318 665 280 598.5 c 128,-1,31
 242 532 242 532 242 450 c 0,32,33
 242 369 242 369 280 302 c 128,-1,34
 318 235 318 235 383.5 195.5 c 128,-1,35
 449 156 449 156 530 156 c 256,20,21
EndSplineSet
Substitution2: "'zero' Slashed Zero in Latin lookup 36 subtable" zero.lf.zero.ss01
Substitution2: "'aalt' Access All Alternates in Latin lookup 0 subtable" zero.lf.zero.ss01
EndChar

StartChar: zero.lf.zero.ss01
Encoding: 65592 -1 491
Width: 1060
GlyphClass: 1
Flags: W
LayerCount: 2
Fore
SplineSet
530 -18 m 256,0,1
 431 -18 431 -18 345 18.5 c 128,-1,2
 259 55 259 55 193.5 119 c 128,-1,3
 128 183 128 183 91 268 c 128,-1,4
 54 353 54 353 54 450 c 256,5,6
 54 547 54 547 91 632 c 128,-1,7
 128 717 128 717 193.5 781 c 128,-1,8
 259 845 259 845 345 881.5 c 128,-1,9
 431 918 431 918 530 918 c 256,10,11
 629 918 629 918 715 881.5 c 128,-1,12
 801 845 801 845 866.5 781 c 128,-1,13
 932 717 932 717 969 632 c 128,-1,14
 1006 547 1006 547 1006 450 c 256,15,16
 1006 353 1006 353 969 268 c 128,-1,17
 932 183 932 183 866.5 119 c 128,-1,18
 801 55 801 55 715 18.5 c 128,-1,19
 629 -18 629 -18 530 -18 c 256,0,1
530 156 m 256,20,21
 611 156 611 156 676 195.5 c 128,-1,22
 741 235 741 235 779.5 302 c 128,-1,23
 818 369 818 369 818 450 c 0,24,25
 818 532 818 532 779.5 598.5 c 128,-1,26
 741 665 741 665 676 704.5 c 128,-1,27
 611 744 611 744 530 744 c 256,28,29
 449 744 449 744 383.5 704.5 c 128,-1,30
 318 665 318 665 280 598.5 c 128,-1,31
 242 532 242 532 242 450 c 0,32,33
 242 369 242 369 280 302 c 128,-1,34
 318 235 318 235 383.5 195.5 c 128,-1,35
 449 156 449 156 530 156 c 256,20,21
530 375 m 0,36,37
 494 375 494 375 468.5 400.5 c 128,-1,38
 443 426 443 426 443 462 c 0,39,40
 443 499 443 499 468 524 c 128,-1,41
 493 549 493 549 530 549 c 0,42,43
 568 549 568 549 592.5 524.5 c 128,-1,44
 617 500 617 500 617 462 c 0,45,46
 617 425 617 425 592 400 c 128,-1,47
 567 375 567 375 530 375 c 0,36,37
EndSplineSet
EndChar

StartChar: one.lf
Encoding: 65593 -1 492
Width: 480
GlyphClass: 1
Flags: W
LayerCount: 2
Fore
SplineSet
198 0 m 1,0,-1
 198 673 l 1,1,-1
 60 606 l 1,2,-1
 60 776 l 1,3,-1
 372 932 l 1,4,-1
 372 0 l 1,5,-1
 198 0 l 1,0,-1
EndSplineSet
Substitution2: "'tnum' Tabular Numbers in Latin lookup 32 subtable" one
Substitution2: "'aalt' Access All Alternates in Latin lookup 0 subtable" one
EndChar

StartChar: two.lf
Encoding: 65594 -1 493
Width: 690
GlyphClass: 1
Flags: W
LayerCount: 2
Fore
SplineSet
56 0 m 1,0,-1
 422 537 l 2,1,2
 445 572 445 572 453 594.5 c 128,-1,3
 461 617 461 617 461 636 c 0,4,5
 461 687 461 687 425 722.5 c 128,-1,6
 389 758 389 758 336 758 c 256,7,8
 283 758 283 758 247.5 722.5 c 128,-1,9
 212 687 212 687 212 636 c 0,10,11
 212 568 212 568 271 518 c 1,12,-1
 75 518 l 1,13,14
 44 574 44 574 44 637 c 0,15,16
 44 713 44 713 82.5 777 c 128,-1,17
 121 841 121 841 187.5 880.5 c 128,-1,18
 254 920 254 920 337 920 c 0,19,20
 418 920 418 920 486 881.5 c 128,-1,21
 554 843 554 843 594.5 779 c 128,-1,22
 635 715 635 715 635 636 c 0,23,24
 635 588 635 588 617.5 544.5 c 128,-1,25
 600 501 600 501 562 448 c 2,26,-1
 359 162 l 1,27,-1
 646 162 l 1,28,-1
 646 0 l 1,29,-1
 56 0 l 1,0,-1
EndSplineSet
Substitution2: "'tnum' Tabular Numbers in Latin lookup 32 subtable" two
Substitution2: "'aalt' Access All Alternates in Latin lookup 0 subtable" two
EndChar

StartChar: three.lf
Encoding: 65595 -1 494
Width: 690
GlyphClass: 1
Flags: W
LayerCount: 2
Fore
SplineSet
290 -20 m 0,0,1
 205 -20 205 -20 133.5 17.5 c 128,-1,2
 62 55 62 55 18 116 c 1,3,-1
 109 295 l 1,4,5
 125 232 125 232 174.5 187 c 128,-1,6
 224 142 224 142 292 142 c 0,7,8
 338 142 338 142 374.5 163 c 128,-1,9
 411 184 411 184 432.5 220 c 128,-1,10
 454 256 454 256 454 301 c 0,11,12
 454 345 454 345 433.5 380.5 c 128,-1,13
 413 416 413 416 375.5 437 c 128,-1,14
 338 458 338 458 288 458 c 0,15,16
 258 458 258 458 231 450.5 c 128,-1,17
 204 443 204 443 175 428 c 1,18,-1
 337 744 l 1,19,-1
 78 744 l 1,20,-1
 78 900 l 1,21,-1
 594 900 l 1,22,-1
 423 581 l 1,23,24
 481 560 481 560 526 518.5 c 128,-1,25
 571 477 571 477 597.5 420 c 128,-1,26
 624 363 624 363 624 296 c 0,27,28
 624 207 624 207 578 135 c 128,-1,29
 532 63 532 63 456 21.5 c 128,-1,30
 380 -20 380 -20 290 -20 c 0,0,1
EndSplineSet
Substitution2: "'tnum' Tabular Numbers in Latin lookup 32 subtable" three
Substitution2: "'aalt' Access All Alternates in Latin lookup 0 subtable" three
EndChar

StartChar: four.lf
Encoding: 65596 -1 495
Width: 750
GlyphClass: 1
Flags: W
LayerCount: 2
Fore
SplineSet
438 0 m 1,0,-1
 438 212 l 1,1,-1
 2 212 l 1,2,-1
 354 900 l 1,3,-1
 534 900 l 1,4,-1
 252 356 l 1,5,-1
 442 356 l 1,6,-1
 442 536 l 1,7,-1
 602 622 l 1,8,-1
 602 356 l 1,9,-1
 708 356 l 1,10,-1
 708 212 l 1,11,-1
 606 212 l 1,12,-1
 606 0 l 1,13,-1
 438 0 l 1,0,-1
EndSplineSet
Substitution2: "'tnum' Tabular Numbers in Latin lookup 32 subtable" four
Substitution2: "'aalt' Access All Alternates in Latin lookup 0 subtable" four
EndChar

StartChar: five.lf
Encoding: 65597 -1 496
Width: 690
GlyphClass: 1
Flags: W
LayerCount: 2
Fore
SplineSet
294 -20 m 0,0,1
 207 -20 207 -20 134.5 17.5 c 128,-1,2
 62 55 62 55 18 116 c 1,3,-1
 109 295 l 1,4,5
 125 232 125 232 174.5 187 c 128,-1,6
 224 142 224 142 292 142 c 0,7,8
 337 142 337 142 373.5 163 c 128,-1,9
 410 184 410 184 432 220 c 128,-1,10
 454 256 454 256 454 302 c 0,11,12
 454 350 454 350 431 385 c 128,-1,13
 408 420 408 420 369.5 439 c 128,-1,14
 331 458 331 458 285 458 c 0,15,16
 240 458 240 458 200.5 439.5 c 128,-1,17
 161 421 161 421 132 390 c 1,18,-1
 132 900 l 1,19,-1
 564 900 l 1,20,-1
 564 744 l 1,21,-1
 276 744 l 1,22,-1
 276 601 l 1,23,24
 287 604 287 604 298 605 c 128,-1,25
 309 606 309 606 322 606 c 0,26,27
 402 606 402 606 470.5 566.5 c 128,-1,28
 539 527 539 527 581.5 458 c 128,-1,29
 624 389 624 389 624 300 c 0,30,31
 624 210 624 210 579 137.5 c 128,-1,32
 534 65 534 65 459.5 22.5 c 128,-1,33
 385 -20 385 -20 294 -20 c 0,0,1
EndSplineSet
Substitution2: "'tnum' Tabular Numbers in Latin lookup 32 subtable" five
Substitution2: "'aalt' Access All Alternates in Latin lookup 0 subtable" five
EndChar

StartChar: six.lf
Encoding: 65598 -1 497
Width: 750
GlyphClass: 1
Flags: W
LayerCount: 2
Fore
SplineSet
381 -20 m 0,0,1
 290 -20 290 -20 215.5 22 c 128,-1,2
 141 64 141 64 97.5 135 c 128,-1,3
 54 206 54 206 54 294 c 0,4,5
 54 336 54 336 65 374.5 c 128,-1,6
 76 413 76 413 96 452 c 2,7,-1
 332 900 l 1,8,-1
 516 900 l 1,9,-1
 354 602 l 1,10,11
 365 604 365 604 376.5 605 c 128,-1,12
 388 606 388 606 399 606 c 0,13,14
 484 606 484 606 554 564.5 c 128,-1,15
 624 523 624 523 666 453 c 128,-1,16
 708 383 708 383 708 296 c 0,17,18
 708 207 708 207 664.5 135.5 c 128,-1,19
 621 64 621 64 547 22 c 128,-1,20
 473 -20 473 -20 381 -20 c 0,0,1
381 142 m 256,21,22
 425 142 425 142 460.5 163.5 c 128,-1,23
 496 185 496 185 517 220.5 c 128,-1,24
 538 256 538 256 538 299 c 256,25,26
 538 342 538 342 517.5 377.5 c 128,-1,27
 497 413 497 413 461.5 434.5 c 128,-1,28
 426 456 426 456 381 456 c 0,29,30
 337 456 337 456 301.5 434.5 c 128,-1,31
 266 413 266 413 245 377.5 c 128,-1,32
 224 342 224 342 224 299 c 256,33,34
 224 256 224 256 245 220.5 c 128,-1,35
 266 185 266 185 301.5 163.5 c 128,-1,36
 337 142 337 142 381 142 c 256,21,22
EndSplineSet
Substitution2: "'tnum' Tabular Numbers in Latin lookup 32 subtable" six
Substitution2: "'aalt' Access All Alternates in Latin lookup 0 subtable" six
EndChar

StartChar: seven.lf
Encoding: 65599 -1 498
Width: 690
GlyphClass: 1
Flags: W
LayerCount: 2
Fore
SplineSet
54 0 m 1,0,-1
 406 738 l 1,1,-1
 42 738 l 1,2,-1
 42 900 l 1,3,-1
 675 900 l 1,4,-1
 252 0 l 1,5,-1
 54 0 l 1,0,-1
EndSplineSet
Substitution2: "'tnum' Tabular Numbers in Latin lookup 32 subtable" seven
Substitution2: "'aalt' Access All Alternates in Latin lookup 0 subtable" seven
EndChar

StartChar: eight.lf
Encoding: 65600 -1 499
Width: 750
GlyphClass: 1
Flags: W
LayerCount: 2
Fore
SplineSet
375 -20 m 0,0,1
 288 -20 288 -20 214.5 21.5 c 128,-1,2
 141 63 141 63 97 134.5 c 128,-1,3
 53 206 53 206 53 294 c 0,4,5
 53 374 53 374 89.5 439.5 c 128,-1,6
 126 505 126 505 185 547 c 1,7,8
 162 575 162 575 148.5 609.5 c 128,-1,9
 135 644 135 644 135 687 c 0,10,11
 135 753 135 753 167.5 805.5 c 128,-1,12
 200 858 200 858 254.5 889 c 128,-1,13
 309 920 309 920 375 920 c 0,14,15
 442 920 442 920 496 889 c 128,-1,16
 550 858 550 858 582.5 805.5 c 128,-1,17
 615 753 615 753 615 687 c 0,18,19
 615 645 615 645 601.5 610 c 128,-1,20
 588 575 588 575 565 547 c 1,21,22
 624 505 624 505 660.5 439.5 c 128,-1,23
 697 374 697 374 697 294 c 0,24,25
 697 208 697 208 652 136.5 c 128,-1,26
 607 65 607 65 533.5 22.5 c 128,-1,27
 460 -20 460 -20 375 -20 c 0,0,1
375 138 m 0,28,29
 419 138 419 138 454 159 c 128,-1,30
 489 180 489 180 510 215.5 c 128,-1,31
 531 251 531 251 531 294 c 0,32,33
 531 338 531 338 510 373 c 128,-1,34
 489 408 489 408 454 429 c 128,-1,35
 419 450 419 450 375 450 c 0,36,37
 332 450 332 450 296.5 429 c 128,-1,38
 261 408 261 408 240 373 c 128,-1,39
 219 338 219 338 219 294 c 0,40,41
 219 251 219 251 240 215.5 c 128,-1,42
 261 180 261 180 296.5 159 c 128,-1,43
 332 138 332 138 375 138 c 0,28,29
375 590 m 0,44,45
 413 590 413 590 439 616.5 c 128,-1,46
 465 643 465 643 465 680 c 0,47,48
 465 718 465 718 439 744 c 128,-1,49
 413 770 413 770 375 770 c 0,50,51
 338 770 338 770 311.5 744 c 128,-1,52
 285 718 285 718 285 680 c 0,53,54
 285 643 285 643 311.5 616.5 c 128,-1,55
 338 590 338 590 375 590 c 0,44,45
EndSplineSet
Substitution2: "'tnum' Tabular Numbers in Latin lookup 32 subtable" eight
Substitution2: "'aalt' Access All Alternates in Latin lookup 0 subtable" eight
EndChar

StartChar: nine.lf
Encoding: 65601 -1 500
Width: 750
GlyphClass: 1
Flags: W
LayerCount: 2
Fore
SplineSet
228 0 m 1,0,-1
 390 309 l 1,1,2
 380 308 380 308 370.5 307 c 128,-1,3
 361 306 361 306 351 306 c 0,4,5
 266 306 266 306 197 346.5 c 128,-1,6
 128 387 128 387 88 456 c 128,-1,7
 48 525 48 525 48 610 c 0,8,9
 48 698 48 698 91 768 c 128,-1,10
 134 838 134 838 207 879 c 128,-1,11
 280 920 280 920 369 920 c 0,12,13
 459 920 459 920 531.5 879 c 128,-1,14
 604 838 604 838 647 768.5 c 128,-1,15
 690 699 690 699 690 613 c 0,16,17
 690 572 690 572 679.5 534.5 c 128,-1,18
 669 497 669 497 649 459 c 2,19,-1
 408 0 l 1,20,-1
 228 0 l 1,0,-1
369 456 m 256,21,22
 411 456 411 456 445.5 476.5 c 128,-1,23
 480 497 480 497 500 531.5 c 128,-1,24
 520 566 520 566 520 608 c 0,25,26
 520 649 520 649 500 683 c 128,-1,27
 480 717 480 717 445.5 737.5 c 128,-1,28
 411 758 411 758 369 758 c 256,29,30
 327 758 327 758 293 737.5 c 128,-1,31
 259 717 259 717 238.5 683 c 128,-1,32
 218 649 218 649 218 607 c 0,33,34
 218 566 218 566 238 531.5 c 128,-1,35
 258 497 258 497 292.5 476.5 c 128,-1,36
 327 456 327 456 369 456 c 256,21,22
EndSplineSet
Substitution2: "'tnum' Tabular Numbers in Latin lookup 32 subtable" nine
Substitution2: "'aalt' Access All Alternates in Latin lookup 0 subtable" nine
EndChar

StartChar: dek.lf
Encoding: 65602 -1 501
Width: 690
GlyphClass: 1
Flags: W
LayerCount: 2
Fore
SplineSet
353 -20 m 0,0,1
 272 -20 272 -20 204.5 18.5 c 128,-1,2
 137 57 137 57 96 121.5 c 128,-1,3
 55 186 55 186 55 264 c 0,4,5
 55 312 55 312 73 355.5 c 128,-1,6
 91 399 91 399 128 452 c 2,7,-1
 331 738 l 1,8,-1
 44 738 l 1,9,-1
 44 900 l 1,10,-1
 634 900 l 1,11,-1
 268 363 l 2,12,13
 245 329 245 329 237 306.5 c 128,-1,14
 229 284 229 284 229 264 c 0,15,16
 229 213 229 213 265 177.5 c 128,-1,17
 301 142 301 142 354 142 c 256,18,19
 407 142 407 142 442.5 177.5 c 128,-1,20
 478 213 478 213 478 264 c 0,21,22
 478 332 478 332 419 382 c 1,23,-1
 615 382 l 1,24,25
 646 326 646 326 646 263 c 0,26,27
 646 188 646 188 607.5 123.5 c 128,-1,28
 569 59 569 59 502.5 19.5 c 128,-1,29
 436 -20 436 -20 353 -20 c 0,0,1
EndSplineSet
Substitution2: "'tnum' Tabular Numbers in Latin lookup 32 subtable" dek
Substitution2: "'aalt' Access All Alternates in Latin lookup 0 subtable" dek
EndChar

StartChar: el.lf
Encoding: 65603 -1 502
Width: 690
GlyphClass: 1
Flags: W
LayerCount: 2
Fore
SplineSet
84 0 m 1,0,-1
 265 338 l 1,1,2
 213 360 213 360 172 399.5 c 128,-1,3
 131 439 131 439 107.5 492.5 c 128,-1,4
 84 546 84 546 84 609 c 0,5,6
 84 696 84 696 128.5 766.5 c 128,-1,7
 173 837 173 837 246.5 878.5 c 128,-1,8
 320 920 320 920 407 920 c 0,9,10
 489 920 489 920 557 884.5 c 128,-1,11
 625 849 625 849 666 791 c 1,12,-1
 576 614 l 1,13,14
 561 674 561 674 516.5 717 c 128,-1,15
 472 760 472 760 407 760 c 0,16,17
 364 760 364 760 329.5 740 c 128,-1,18
 295 720 295 720 274.5 686 c 128,-1,19
 254 652 254 652 254 609 c 0,20,21
 254 568 254 568 273 533.5 c 128,-1,22
 292 499 292 499 326.5 479 c 128,-1,23
 361 459 361 459 405 459 c 0,24,25
 460 459 460 459 509 483 c 1,26,-1
 341 156 l 1,27,-1
 646 156 l 1,28,-1
 646 0 l 1,29,-1
 84 0 l 1,0,-1
EndSplineSet
Substitution2: "'tnum' Tabular Numbers in Latin lookup 32 subtable" el
Substitution2: "'aalt' Access All Alternates in Latin lookup 0 subtable" el
EndChar

StartChar: zero.dnom
Encoding: 65617 -1 516
Width: 480
GlyphClass: 1
Flags: W
LayerCount: 2
Fore
SplineSet
240 -12 m 0,0,1
 172 -12 172 -12 126.5 24 c 128,-1,2
 81 60 81 60 58.5 118 c 128,-1,3
 36 176 36 176 36 241 c 0,4,5
 36 305 36 305 58.5 362.5 c 128,-1,6
 81 420 81 420 126.5 456 c 128,-1,7
 172 492 172 492 240 492 c 0,8,9
 309 492 309 492 354 456 c 128,-1,10
 399 420 399 420 421.5 362.5 c 128,-1,11
 444 305 444 305 444 241 c 0,12,13
 444 176 444 176 421.5 118 c 128,-1,14
 399 60 399 60 354 24 c 128,-1,15
 309 -12 309 -12 240 -12 c 0,0,1
240 108 m 0,16,17
 267 108 267 108 282.5 126.5 c 128,-1,18
 298 145 298 145 305 175.5 c 128,-1,19
 312 206 312 206 312 240 c 0,20,21
 312 275 312 275 305 305 c 128,-1,22
 298 335 298 335 282.5 353.5 c 128,-1,23
 267 372 267 372 240 372 c 0,24,25
 214 372 214 372 198 353.5 c 128,-1,26
 182 335 182 335 175 305 c 128,-1,27
 168 275 168 275 168 240 c 0,28,29
 168 206 168 206 175 175.5 c 128,-1,30
 182 145 182 145 198 126.5 c 128,-1,31
 214 108 214 108 240 108 c 0,16,17
EndSplineSet
EndChar

StartChar: one.dnom
Encoding: 65618 -1 517
Width: 480
GlyphClass: 1
Flags: W
LayerCount: 2
Fore
SplineSet
210 0 m 1,0,-1
 210 305 l 1,1,-1
 96 248 l 1,2,-1
 96 386 l 1,3,-1
 348 512 l 1,4,-1
 348 0 l 1,5,-1
 210 0 l 1,0,-1
EndSplineSet
EndChar

StartChar: two.dnom
Encoding: 65619 -1 518
Width: 480
GlyphClass: 1
Flags: W
LayerCount: 2
Fore
SplineSet
45 0 m 1,0,-1
 246 249 l 2,1,2
 266 275 266 275 274 290.5 c 128,-1,3
 282 306 282 306 282 322 c 0,4,5
 282 348 282 348 266.5 363 c 128,-1,6
 251 378 251 378 228 378 c 0,7,8
 202 378 202 378 187.5 361.5 c 128,-1,9
 173 345 173 345 173 321 c 0,10,11
 173 296 173 296 193 270 c 1,12,-1
 55 270 l 1,13,14
 51 284 51 284 48 296 c 128,-1,15
 45 308 45 308 45 327 c 0,16,17
 45 400 45 400 97.5 449 c 128,-1,18
 150 498 150 498 229 498 c 0,19,20
 282 498 282 498 324 475 c 128,-1,21
 366 452 366 452 390 413 c 128,-1,22
 414 374 414 374 414 327 c 0,23,24
 414 266 414 266 351 192 c 0,25,26
 335 172 335 172 314.5 152 c 128,-1,27
 294 132 294 132 269 112 c 1,28,29
 284 113 284 113 300 113.5 c 128,-1,30
 316 114 316 114 333 114 c 2,31,-1
 435 114 l 1,32,-1
 435 0 l 1,33,-1
 45 0 l 1,0,-1
EndSplineSet
EndChar

StartChar: three.dnom
Encoding: 65620 -1 519
Width: 480
GlyphClass: 1
Flags: W
LayerCount: 2
Fore
SplineSet
208 -18 m 0,0,1
 153 -18 153 -18 109.5 3 c 128,-1,2
 66 24 66 24 42 54 c 1,3,-1
 107 172 l 1,4,5
 115 146 115 146 139.5 124 c 128,-1,6
 164 102 164 102 202 102 c 0,7,8
 238 102 238 102 260 121 c 128,-1,9
 282 140 282 140 282 169 c 0,10,11
 282 193 282 193 264 214.5 c 128,-1,12
 246 236 246 236 202 236 c 0,13,14
 182 236 182 236 164 230.5 c 128,-1,15
 146 225 146 225 131 217 c 1,16,-1
 211 366 l 1,17,-1
 66 366 l 1,18,-1
 66 480 l 1,19,-1
 405 480 l 1,20,-1
 314 317 l 1,21,22
 361 295 361 295 387.5 254 c 128,-1,23
 414 213 414 213 414 163 c 0,24,25
 414 84 414 84 355 33 c 128,-1,26
 296 -18 296 -18 208 -18 c 0,0,1
EndSplineSet
EndChar

StartChar: four.dnom
Encoding: 65621 -1 520
Width: 480
GlyphClass: 1
Flags: W
LayerCount: 2
Fore
SplineSet
272 0 m 1,0,-1
 272 102 l 1,1,-1
 0 102 l 1,2,-1
 199 480 l 1,3,-1
 337 480 l 1,4,-1
 188 203 l 1,5,-1
 278 203 l 1,6,-1
 278 285 l 1,7,-1
 392 348 l 1,8,-1
 392 209 l 1,9,-1
 450 209 l 1,10,-1
 450 102 l 1,11,-1
 392 102 l 1,12,-1
 392 0 l 1,13,-1
 272 0 l 1,0,-1
EndSplineSet
EndChar

StartChar: five.dnom
Encoding: 65622 -1 521
Width: 480
GlyphClass: 1
Flags: W
LayerCount: 2
Fore
SplineSet
209 -18 m 0,0,1
 154 -18 154 -18 110 3 c 128,-1,2
 66 24 66 24 42 54 c 1,3,-1
 107 172 l 1,4,5
 115 146 115 146 139.5 124 c 128,-1,6
 164 102 164 102 202 102 c 256,7,8
 240 102 240 102 261 121.5 c 128,-1,9
 282 141 282 141 282 169 c 256,10,11
 282 197 282 197 261 216.5 c 128,-1,12
 240 236 240 236 202 236 c 0,13,14
 175 236 175 236 153 227 c 128,-1,15
 131 218 131 218 113 201 c 1,16,-1
 113 480 l 1,17,-1
 390 480 l 1,18,-1
 390 372 l 1,19,-1
 227 372 l 1,20,-1
 227 326 l 1,21,22
 233 327 233 327 246 327 c 0,23,24
 324 327 324 327 369 280 c 128,-1,25
 414 233 414 233 414 165 c 0,26,27
 414 112 414 112 387 70.5 c 128,-1,28
 360 29 360 29 313.5 5.5 c 128,-1,29
 267 -18 267 -18 209 -18 c 0,0,1
EndSplineSet
EndChar

StartChar: six.dnom
Encoding: 65623 -1 522
Width: 480
GlyphClass: 1
Flags: W
LayerCount: 2
Fore
SplineSet
240 -18 m 256,0,1
 185 -18 185 -18 139.5 6.5 c 128,-1,2
 94 31 94 31 66.5 73.5 c 128,-1,3
 39 116 39 116 39 168 c 0,4,5
 39 214 39 214 62 258 c 2,6,-1
 182 480 l 1,7,-1
 317 480 l 1,8,-1
 238 342 l 1,9,10
 244 343 244 343 254 343 c 0,11,12
 305 343 305 343 347.5 320 c 128,-1,13
 390 297 390 297 415.5 257 c 128,-1,14
 441 217 441 217 441 166 c 0,15,16
 441 114 441 114 413.5 72.5 c 128,-1,17
 386 31 386 31 340.5 6.5 c 128,-1,18
 295 -18 295 -18 240 -18 c 256,0,1
165 166 m 0,19,20
 165 136 165 136 187 114 c 128,-1,21
 209 92 209 92 240 92 c 256,22,23
 271 92 271 92 293 114 c 128,-1,24
 315 136 315 136 315 166 c 0,25,26
 315 198 315 198 293.5 220 c 128,-1,27
 272 242 272 242 240 242 c 0,28,29
 209 242 209 242 187 220 c 128,-1,30
 165 198 165 198 165 166 c 0,19,20
EndSplineSet
EndChar

StartChar: seven.dnom
Encoding: 65624 -1 523
Width: 480
GlyphClass: 1
Flags: W
LayerCount: 2
Fore
SplineSet
72 0 m 1,0,-1
 250 360 l 1,1,-1
 68 360 l 1,2,-1
 68 480 l 1,3,-1
 453 480 l 1,4,-1
 216 0 l 1,5,-1
 72 0 l 1,0,-1
EndSplineSet
EndChar

StartChar: eight.dnom
Encoding: 65625 -1 524
Width: 480
GlyphClass: 1
Flags: W
LayerCount: 2
Fore
SplineSet
240 -18 m 0,0,1
 190 -18 190 -18 143.5 1.5 c 128,-1,2
 97 21 97 21 68 58 c 128,-1,3
 39 95 39 95 39 147 c 0,4,5
 39 188 39 188 57 221.5 c 128,-1,6
 75 255 75 255 106 277 c 1,7,8
 92 292 92 292 83.5 312 c 128,-1,9
 75 332 75 332 75 356 c 0,10,11
 75 415 75 415 120 456.5 c 128,-1,12
 165 498 165 498 240 498 c 256,13,14
 315 498 315 498 360 462 c 128,-1,15
 405 426 405 426 405 356 c 0,16,17
 405 332 405 332 396.5 312 c 128,-1,18
 388 292 388 292 374 277 c 1,19,20
 405 255 405 255 423 221.5 c 128,-1,21
 441 188 441 188 441 147 c 0,22,23
 441 95 441 95 413.5 58 c 128,-1,24
 386 21 386 21 340.5 1.5 c 128,-1,25
 295 -18 295 -18 240 -18 c 0,0,1
240 90 m 256,26,27
 271 90 271 90 291.5 110.5 c 128,-1,28
 312 131 312 131 312 162 c 256,29,30
 312 193 312 193 291.5 213.5 c 128,-1,31
 271 234 271 234 240 234 c 256,32,33
 209 234 209 234 188.5 213.5 c 128,-1,34
 168 193 168 193 168 162 c 256,35,36
 168 131 168 131 188.5 110.5 c 128,-1,37
 209 90 209 90 240 90 c 256,26,27
240 300 m 256,38,39
 261 300 261 300 276 315 c 128,-1,40
 291 330 291 330 291 351 c 256,41,42
 291 372 291 372 276 387 c 128,-1,43
 261 402 261 402 240 402 c 256,44,45
 219 402 219 402 204 387 c 128,-1,46
 189 372 189 372 189 351 c 256,47,48
 189 330 189 330 204 315 c 128,-1,49
 219 300 219 300 240 300 c 256,38,39
EndSplineSet
EndChar

StartChar: nine.dnom
Encoding: 65626 -1 525
Width: 480
GlyphClass: 1
Flags: W
LayerCount: 2
Fore
SplineSet
163 0 m 1,0,-1
 242 138 l 1,1,2
 238 137 238 137 234 137 c 128,-1,3
 230 137 230 137 226 137 c 0,4,5
 175 137 175 137 132.5 160 c 128,-1,6
 90 183 90 183 64.5 223 c 128,-1,7
 39 263 39 263 39 314 c 0,8,9
 39 366 39 366 66.5 407.5 c 128,-1,10
 94 449 94 449 139.5 473.5 c 128,-1,11
 185 498 185 498 240 498 c 256,12,13
 295 498 295 498 340.5 473.5 c 128,-1,14
 386 449 386 449 413.5 407 c 128,-1,15
 441 365 441 365 441 312 c 0,16,17
 441 266 441 266 418 222 c 2,18,-1
 298 0 l 1,19,-1
 163 0 l 1,0,-1
240 238 m 0,20,21
 272 238 272 238 293.5 260.5 c 128,-1,22
 315 283 315 283 315 314 c 256,23,24
 315 345 315 345 293.5 366.5 c 128,-1,25
 272 388 272 388 240 388 c 0,26,27
 209 388 209 388 187 366.5 c 128,-1,28
 165 345 165 345 165 314 c 256,29,30
 165 283 165 283 187 260.5 c 128,-1,31
 209 238 209 238 240 238 c 0,20,21
EndSplineSet
EndChar

StartChar: dek.dnom
Encoding: 65627 -1 526
Width: 480
GlyphClass: 1
Flags: W
LayerCount: 2
Fore
SplineSet
251 -18 m 0,0,1
 198 -18 198 -18 156 5 c 128,-1,2
 114 28 114 28 90 67 c 128,-1,3
 66 106 66 106 66 153 c 0,4,5
 66 214 66 214 129 288 c 0,6,7
 146 308 146 308 166 328 c 128,-1,8
 186 348 186 348 211 368 c 1,9,10
 196 367 196 367 180 366.5 c 128,-1,11
 164 366 164 366 147 366 c 2,12,-1
 45 366 l 1,13,-1
 45 480 l 1,14,-1
 435 480 l 1,15,-1
 234 231 l 2,16,17
 214 206 214 206 206 190 c 128,-1,18
 198 174 198 174 198 158 c 0,19,20
 198 132 198 132 213.5 117 c 128,-1,21
 229 102 229 102 252 102 c 0,22,23
 278 102 278 102 292.5 118.5 c 128,-1,24
 307 135 307 135 307 159 c 0,25,26
 307 184 307 184 287 210 c 1,27,-1
 425 210 l 1,28,29
 430 196 430 196 432.5 184 c 128,-1,30
 435 172 435 172 435 153 c 0,31,32
 435 80 435 80 382.5 31 c 128,-1,33
 330 -18 330 -18 251 -18 c 0,0,1
EndSplineSet
EndChar

StartChar: el.dnom
Encoding: 65628 -1 527
Width: 480
GlyphClass: 1
Flags: W
LayerCount: 2
Fore
SplineSet
55 0 m 1,0,-1
 158 178 l 1,1,2
 117 201 117 201 94.5 239 c 128,-1,3
 72 277 72 277 72 323 c 0,4,5
 72 374 72 374 99 413.5 c 128,-1,6
 126 453 126 453 172 475.5 c 128,-1,7
 218 498 218 498 274 498 c 0,8,9
 327 498 327 498 369.5 477.5 c 128,-1,10
 412 457 412 457 435 428 c 1,11,-1
 369 316 l 1,12,13
 359 342 359 342 335.5 363 c 128,-1,14
 312 384 312 384 277 384 c 0,15,16
 243 384 243 384 223.5 365.5 c 128,-1,17
 204 347 204 347 204 318 c 0,18,19
 204 294 204 294 221 273 c 128,-1,20
 238 252 238 252 277 252 c 0,21,22
 296 252 296 252 312 257.5 c 128,-1,23
 328 263 328 263 343 270 c 1,24,-1
 253 114 l 1,25,-1
 435 114 l 1,26,-1
 435 0 l 1,27,-1
 55 0 l 1,0,-1
EndSplineSet
EndChar

StartChar: zero.numr
Encoding: 65629 -1 528
Width: 480
GlyphClass: 1
Flags: W
LayerCount: 2
Fore
SplineSet
240 408 m 0,0,1
 172 408 172 408 126.5 444 c 128,-1,2
 81 480 81 480 58.5 538 c 128,-1,3
 36 596 36 596 36 661 c 0,4,5
 36 725 36 725 58.5 782.5 c 128,-1,6
 81 840 81 840 126.5 876 c 128,-1,7
 172 912 172 912 240 912 c 0,8,9
 309 912 309 912 354 876 c 128,-1,10
 399 840 399 840 421.5 782.5 c 128,-1,11
 444 725 444 725 444 661 c 0,12,13
 444 596 444 596 421.5 538 c 128,-1,14
 399 480 399 480 354 444 c 128,-1,15
 309 408 309 408 240 408 c 0,0,1
240 528 m 0,16,17
 267 528 267 528 282.5 546.5 c 128,-1,18
 298 565 298 565 305 595.5 c 128,-1,19
 312 626 312 626 312 660 c 0,20,21
 312 695 312 695 305 725 c 128,-1,22
 298 755 298 755 282.5 773.5 c 128,-1,23
 267 792 267 792 240 792 c 0,24,25
 214 792 214 792 198 773.5 c 128,-1,26
 182 755 182 755 175 725 c 128,-1,27
 168 695 168 695 168 660 c 0,28,29
 168 626 168 626 175 595.5 c 128,-1,30
 182 565 182 565 198 546.5 c 128,-1,31
 214 528 214 528 240 528 c 0,16,17
EndSplineSet
Substitution2: "Single Substitution lookup 27 subtable" zero.dnom
Substitution2: "Single Substitution lookup 25 subtable" zero.dnom
Substitution2: "'aalt' Access All Alternates in Latin lookup 0 subtable" zero.dnom
EndChar

StartChar: one.numr
Encoding: 65630 -1 529
Width: 480
GlyphClass: 1
Flags: W
LayerCount: 2
Fore
SplineSet
210 420 m 1,0,-1
 210 725 l 1,1,-1
 96 668 l 1,2,-1
 96 806 l 1,3,-1
 348 932 l 1,4,-1
 348 420 l 1,5,-1
 210 420 l 1,0,-1
EndSplineSet
Substitution2: "Single Substitution lookup 27 subtable" one.dnom
Substitution2: "Single Substitution lookup 25 subtable" one.dnom
Substitution2: "'aalt' Access All Alternates in Latin lookup 0 subtable" one.dnom
EndChar

StartChar: two.numr
Encoding: 65631 -1 530
Width: 480
GlyphClass: 1
Flags: W
LayerCount: 2
Fore
SplineSet
45 420 m 1,0,-1
 246 669 l 2,1,2
 266 695 266 695 274 710.5 c 128,-1,3
 282 726 282 726 282 742 c 0,4,5
 282 768 282 768 266.5 783 c 128,-1,6
 251 798 251 798 228 798 c 0,7,8
 202 798 202 798 187.5 781.5 c 128,-1,9
 173 765 173 765 173 741 c 0,10,11
 173 716 173 716 193 690 c 1,12,-1
 55 690 l 1,13,14
 51 704 51 704 48 716 c 128,-1,15
 45 728 45 728 45 747 c 0,16,17
 45 820 45 820 97.5 869 c 128,-1,18
 150 918 150 918 229 918 c 0,19,20
 282 918 282 918 324 895 c 128,-1,21
 366 872 366 872 390 833 c 128,-1,22
 414 794 414 794 414 747 c 0,23,24
 414 686 414 686 351 612 c 0,25,26
 335 592 335 592 314.5 572 c 128,-1,27
 294 552 294 552 269 532 c 1,28,29
 284 533 284 533 300 533.5 c 128,-1,30
 316 534 316 534 333 534 c 2,31,-1
 423 534 l 1,32,-1
 423 420 l 1,33,-1
 45 420 l 1,0,-1
EndSplineSet
Substitution2: "Single Substitution lookup 27 subtable" two.dnom
Substitution2: "Single Substitution lookup 25 subtable" two.dnom
Substitution2: "'aalt' Access All Alternates in Latin lookup 0 subtable" two.dnom
EndChar

StartChar: three.numr
Encoding: 65632 -1 531
Width: 480
GlyphClass: 1
Flags: W
LayerCount: 2
Fore
SplineSet
208 402 m 0,0,1
 153 402 153 402 109.5 423 c 128,-1,2
 66 444 66 444 42 474 c 1,3,-1
 107 592 l 1,4,5
 115 566 115 566 139.5 544 c 128,-1,6
 164 522 164 522 202 522 c 0,7,8
 238 522 238 522 260 541 c 128,-1,9
 282 560 282 560 282 589 c 0,10,11
 282 613 282 613 264 634.5 c 128,-1,12
 246 656 246 656 202 656 c 0,13,14
 182 656 182 656 164 650.5 c 128,-1,15
 146 645 146 645 131 637 c 1,16,-1
 211 786 l 1,17,-1
 66 786 l 1,18,-1
 66 900 l 1,19,-1
 405 900 l 1,20,-1
 314 737 l 1,21,22
 361 715 361 715 387.5 674 c 128,-1,23
 414 633 414 633 414 583 c 0,24,25
 414 504 414 504 355 453 c 128,-1,26
 296 402 296 402 208 402 c 0,0,1
EndSplineSet
Substitution2: "Single Substitution lookup 27 subtable" three.dnom
Substitution2: "Single Substitution lookup 25 subtable" three.dnom
Substitution2: "'aalt' Access All Alternates in Latin lookup 0 subtable" three.dnom
EndChar

StartChar: four.numr
Encoding: 65633 -1 532
Width: 480
GlyphClass: 1
Flags: W
LayerCount: 2
Fore
SplineSet
272 420 m 1,0,-1
 272 522 l 1,1,-1
 0 522 l 1,2,-1
 199 900 l 1,3,-1
 337 900 l 1,4,-1
 188 623 l 1,5,-1
 278 623 l 1,6,-1
 278 705 l 1,7,-1
 392 768 l 1,8,-1
 392 629 l 1,9,-1
 450 629 l 1,10,-1
 450 522 l 1,11,-1
 392 522 l 1,12,-1
 392 420 l 1,13,-1
 272 420 l 1,0,-1
EndSplineSet
Substitution2: "Single Substitution lookup 27 subtable" four.dnom
Substitution2: "Single Substitution lookup 25 subtable" four.dnom
Substitution2: "'aalt' Access All Alternates in Latin lookup 0 subtable" four.dnom
EndChar

StartChar: five.numr
Encoding: 65634 -1 533
Width: 480
GlyphClass: 1
Flags: W
LayerCount: 2
Fore
SplineSet
209 402 m 0,0,1
 154 402 154 402 110 423 c 128,-1,2
 66 444 66 444 42 474 c 1,3,-1
 107 592 l 1,4,5
 115 566 115 566 139.5 544 c 128,-1,6
 164 522 164 522 202 522 c 256,7,8
 240 522 240 522 261 541.5 c 128,-1,9
 282 561 282 561 282 589 c 256,10,11
 282 617 282 617 261 636.5 c 128,-1,12
 240 656 240 656 202 656 c 0,13,14
 175 656 175 656 153 647 c 128,-1,15
 131 638 131 638 113 621 c 1,16,-1
 113 900 l 1,17,-1
 390 900 l 1,18,-1
 390 792 l 1,19,-1
 227 792 l 1,20,-1
 227 746 l 1,21,22
 233 747 233 747 246 747 c 0,23,24
 324 747 324 747 369 700 c 128,-1,25
 414 653 414 653 414 585 c 0,26,27
 414 532 414 532 387 490.5 c 128,-1,28
 360 449 360 449 313.5 425.5 c 128,-1,29
 267 402 267 402 209 402 c 0,0,1
EndSplineSet
Substitution2: "Single Substitution lookup 27 subtable" five.dnom
Substitution2: "Single Substitution lookup 25 subtable" five.dnom
Substitution2: "'aalt' Access All Alternates in Latin lookup 0 subtable" five.dnom
EndChar

StartChar: six.numr
Encoding: 65635 -1 534
Width: 480
GlyphClass: 1
Flags: W
LayerCount: 2
Fore
SplineSet
240 402 m 256,0,1
 185 402 185 402 139.5 426.5 c 128,-1,2
 94 451 94 451 66.5 493.5 c 128,-1,3
 39 536 39 536 39 588 c 0,4,5
 39 634 39 634 62 678 c 2,6,-1
 182 900 l 1,7,-1
 317 900 l 1,8,-1
 238 762 l 1,9,10
 244 763 244 763 254 763 c 0,11,12
 305 763 305 763 347.5 740 c 128,-1,13
 390 717 390 717 415.5 677 c 128,-1,14
 441 637 441 637 441 586 c 0,15,16
 441 534 441 534 413.5 492.5 c 128,-1,17
 386 451 386 451 340.5 426.5 c 128,-1,18
 295 402 295 402 240 402 c 256,0,1
240 512 m 256,19,20
 271 512 271 512 293 534 c 128,-1,21
 315 556 315 556 315 586 c 0,22,23
 315 618 315 618 293.5 640 c 128,-1,24
 272 662 272 662 240 662 c 0,25,26
 209 662 209 662 187 640 c 128,-1,27
 165 618 165 618 165 586 c 0,28,29
 165 556 165 556 187 534 c 128,-1,30
 209 512 209 512 240 512 c 256,19,20
EndSplineSet
Substitution2: "Single Substitution lookup 27 subtable" six.dnom
Substitution2: "Single Substitution lookup 25 subtable" six.dnom
Substitution2: "'aalt' Access All Alternates in Latin lookup 0 subtable" six.dnom
EndChar

StartChar: seven.numr
Encoding: 65636 -1 535
Width: 480
GlyphClass: 1
Flags: W
LayerCount: 2
Fore
SplineSet
72 420 m 1,0,-1
 250 780 l 1,1,-1
 68 780 l 1,2,-1
 68 900 l 1,3,-1
 453 900 l 1,4,-1
 216 420 l 1,5,-1
 72 420 l 1,0,-1
EndSplineSet
Substitution2: "Single Substitution lookup 27 subtable" seven.dnom
Substitution2: "Single Substitution lookup 25 subtable" seven.dnom
Substitution2: "'aalt' Access All Alternates in Latin lookup 0 subtable" seven.dnom
EndChar

StartChar: eight.numr
Encoding: 65637 -1 536
Width: 480
GlyphClass: 1
Flags: W
LayerCount: 2
Fore
SplineSet
240 402 m 0,0,1
 190 402 190 402 143.5 421.5 c 128,-1,2
 97 441 97 441 68 478 c 128,-1,3
 39 515 39 515 39 567 c 0,4,5
 39 608 39 608 57 641.5 c 128,-1,6
 75 675 75 675 106 697 c 1,7,8
 92 712 92 712 83.5 732 c 128,-1,9
 75 752 75 752 75 776 c 0,10,11
 75 835 75 835 120 876.5 c 128,-1,12
 165 918 165 918 240 918 c 256,13,14
 315 918 315 918 360 882 c 128,-1,15
 405 846 405 846 405 776 c 0,16,17
 405 752 405 752 396.5 732 c 128,-1,18
 388 712 388 712 374 697 c 1,19,20
 405 675 405 675 423 641.5 c 128,-1,21
 441 608 441 608 441 567 c 0,22,23
 441 515 441 515 413.5 478 c 128,-1,24
 386 441 386 441 340.5 421.5 c 128,-1,25
 295 402 295 402 240 402 c 0,0,1
168 582 m 256,26,27
 168 551 168 551 188.5 530.5 c 128,-1,28
 209 510 209 510 240 510 c 256,29,30
 271 510 271 510 291.5 530.5 c 128,-1,31
 312 551 312 551 312 582 c 256,32,33
 312 613 312 613 291.5 633.5 c 128,-1,34
 271 654 271 654 240 654 c 256,35,36
 209 654 209 654 188.5 633.5 c 128,-1,37
 168 613 168 613 168 582 c 256,26,27
189 771 m 256,38,39
 189 750 189 750 204 735 c 128,-1,40
 219 720 219 720 240 720 c 256,41,42
 261 720 261 720 276 735 c 128,-1,43
 291 750 291 750 291 771 c 256,44,45
 291 792 291 792 276 807 c 128,-1,46
 261 822 261 822 240 822 c 256,47,48
 219 822 219 822 204 807 c 128,-1,49
 189 792 189 792 189 771 c 256,38,39
EndSplineSet
Substitution2: "Single Substitution lookup 27 subtable" eight.dnom
Substitution2: "Single Substitution lookup 25 subtable" eight.dnom
Substitution2: "'aalt' Access All Alternates in Latin lookup 0 subtable" eight.dnom
EndChar

StartChar: nine.numr
Encoding: 65638 -1 537
Width: 480
GlyphClass: 1
Flags: W
LayerCount: 2
Fore
SplineSet
163 420 m 1,0,-1
 242 558 l 1,1,2
 238 557 238 557 234 557 c 128,-1,3
 230 557 230 557 226 557 c 0,4,5
 175 557 175 557 132.5 580 c 128,-1,6
 90 603 90 603 64.5 643 c 128,-1,7
 39 683 39 683 39 734 c 0,8,9
 39 786 39 786 66.5 827.5 c 128,-1,10
 94 869 94 869 139.5 893.5 c 128,-1,11
 185 918 185 918 240 918 c 256,12,13
 295 918 295 918 340.5 893.5 c 128,-1,14
 386 869 386 869 413.5 827 c 128,-1,15
 441 785 441 785 441 732 c 0,16,17
 441 686 441 686 418 642 c 2,18,-1
 298 420 l 1,19,-1
 163 420 l 1,0,-1
240 658 m 0,20,21
 272 658 272 658 293.5 680.5 c 128,-1,22
 315 703 315 703 315 734 c 256,23,24
 315 765 315 765 293.5 786.5 c 128,-1,25
 272 808 272 808 240 808 c 0,26,27
 209 808 209 808 187 786.5 c 128,-1,28
 165 765 165 765 165 734 c 256,29,30
 165 703 165 703 187 680.5 c 128,-1,31
 209 658 209 658 240 658 c 0,20,21
EndSplineSet
Substitution2: "Single Substitution lookup 27 subtable" nine.dnom
Substitution2: "Single Substitution lookup 25 subtable" nine.dnom
Substitution2: "'aalt' Access All Alternates in Latin lookup 0 subtable" nine.dnom
EndChar

StartChar: dek.numr
Encoding: 65639 -1 538
Width: 480
GlyphClass: 1
Flags: W
LayerCount: 2
Fore
SplineSet
251 402 m 0,0,1
 198 402 198 402 156 425 c 128,-1,2
 114 448 114 448 90 487 c 128,-1,3
 66 526 66 526 66 573 c 0,4,5
 66 634 66 634 129 708 c 0,6,7
 146 728 146 728 166 748 c 128,-1,8
 186 768 186 768 211 788 c 1,9,10
 196 787 196 787 180 786.5 c 128,-1,11
 164 786 164 786 147 786 c 2,12,-1
 45 786 l 1,13,-1
 45 900 l 1,14,-1
 435 900 l 1,15,-1
 234 651 l 2,16,17
 214 626 214 626 206 610 c 128,-1,18
 198 594 198 594 198 578 c 0,19,20
 198 552 198 552 213.5 537 c 128,-1,21
 229 522 229 522 252 522 c 0,22,23
 278 522 278 522 292.5 538.5 c 128,-1,24
 307 555 307 555 307 579 c 0,25,26
 307 604 307 604 287 630 c 1,27,-1
 425 630 l 1,28,29
 430 616 430 616 432.5 604 c 128,-1,30
 435 592 435 592 435 573 c 0,31,32
 435 500 435 500 382.5 451 c 128,-1,33
 330 402 330 402 251 402 c 0,0,1
EndSplineSet
Substitution2: "Single Substitution lookup 27 subtable" dek.dnom
Substitution2: "Single Substitution lookup 25 subtable" dek.dnom
Substitution2: "'aalt' Access All Alternates in Latin lookup 0 subtable" dek.dnom
EndChar

StartChar: el.numr
Encoding: 65640 -1 539
Width: 480
GlyphClass: 1
Flags: W
LayerCount: 2
Fore
SplineSet
55 420 m 1,0,-1
 158 598 l 1,1,2
 117 621 117 621 94.5 659 c 128,-1,3
 72 697 72 697 72 743 c 0,4,5
 72 794 72 794 99 833.5 c 128,-1,6
 126 873 126 873 172 895.5 c 128,-1,7
 218 918 218 918 274 918 c 0,8,9
 327 918 327 918 369.5 897.5 c 128,-1,10
 412 877 412 877 435 848 c 1,11,-1
 369 736 l 1,12,13
 359 762 359 762 335.5 783 c 128,-1,14
 312 804 312 804 277 804 c 0,15,16
 243 804 243 804 223.5 785.5 c 128,-1,17
 204 767 204 767 204 738 c 0,18,19
 204 714 204 714 221 693 c 128,-1,20
 238 672 238 672 277 672 c 0,21,22
 296 672 296 672 312 677.5 c 128,-1,23
 328 683 328 683 343 690 c 1,24,-1
 253 534 l 1,25,-1
 435 534 l 1,26,-1
 435 420 l 1,27,-1
 55 420 l 1,0,-1
EndSplineSet
Substitution2: "Single Substitution lookup 27 subtable" el.dnom
Substitution2: "Single Substitution lookup 25 subtable" el.dnom
Substitution2: "'aalt' Access All Alternates in Latin lookup 0 subtable" el.dnom
EndChar

StartChar: fraction
Encoding: 8260 8260 540
Width: 180
GlyphClass: 1
Flags: W
LayerCount: 2
Fore
SplineSet
-291 0 m 1,0,-1
 328 900 l 1,1,-1
 470 900 l 1,2,-1
 -149 0 l 1,3,-1
 -291 0 l 1,0,-1
EndSplineSet
EndChar

StartChar: uni27E8
Encoding: 10216 10216 574
Width: 480
GlyphClass: 1
Flags: W
LayerCount: 2
Fore
SplineSet
279 -180 m 1,0,-1
 18 390 l 1,1,-1
 279 960 l 1,2,-1
 450 960 l 1,3,-1
 189 390 l 1,4,-1
 450 -180 l 1,5,-1
 279 -180 l 1,0,-1
EndSplineSet
EndChar

StartChar: uni27E9
Encoding: 10217 10217 575
Width: 480
GlyphClass: 1
Flags: W
LayerCount: 2
Fore
SplineSet
30 -180 m 1,0,-1
 291 390 l 1,1,-1
 30 960 l 1,2,-1
 201 960 l 1,3,-1
 462 390 l 1,4,-1
 201 -180 l 1,5,-1
 30 -180 l 1,0,-1
EndSplineSet
EndChar

StartChar: period
Encoding: 46 46 576
Width: 300
GlyphClass: 1
Flags: W
LayerCount: 2
Fore
SplineSet
150 -20 m 0,0,1
 104 -20 104 -20 73 11 c 128,-1,2
 42 42 42 42 42 88 c 256,3,4
 42 134 42 134 73 165 c 128,-1,5
 104 196 104 196 150 196 c 0,6,7
 197 196 197 196 227.5 165 c 128,-1,8
 258 134 258 134 258 88 c 256,9,10
 258 42 258 42 227.5 11 c 128,-1,11
 197 -20 197 -20 150 -20 c 0,0,1
EndSplineSet
Position2: "Single Positioning lookup 1 subtable" dx=0 dy=0 dh=60 dv=0
EndChar

StartChar: comma
Encoding: 44 44 577
Width: 290
GlyphClass: 1
Flags: W
LayerCount: 2
Fore
SplineSet
-13 -150 m 1,0,1
 30 -88 30 -88 58 -7 c 128,-1,2
 86 74 86 74 86 180 c 1,3,-1
 254 180 l 1,4,5
 254 86 254 86 231.5 3 c 128,-1,6
 209 -80 209 -80 162 -150 c 1,7,-1
 -13 -150 l 1,0,1
EndSplineSet
Position2: "Single Positioning lookup 1 subtable" dx=0 dy=0 dh=60 dv=0
EndChar

StartChar: ellipsis
Encoding: 8230 8230 580
Width: 1440
GlyphClass: 1
Flags: W
LayerCount: 2
Fore
SplineSet
1200 -20 m 0,0,1
 1156 -20 1156 -20 1125.5 10.5 c 128,-1,2
 1095 41 1095 41 1095 85 c 256,3,4
 1095 129 1095 129 1125.5 159.5 c 128,-1,5
 1156 190 1156 190 1200 190 c 0,6,7
 1245 190 1245 190 1275 159.5 c 128,-1,8
 1305 129 1305 129 1305 85 c 256,9,10
 1305 41 1305 41 1275 10.5 c 128,-1,11
 1245 -20 1245 -20 1200 -20 c 0,0,1
240 -20 m 0,12,13
 196 -20 196 -20 165.5 10.5 c 128,-1,14
 135 41 135 41 135 85 c 256,15,16
 135 129 135 129 165.5 159.5 c 128,-1,17
 196 190 196 190 240 190 c 0,18,19
 285 190 285 190 315 159.5 c 128,-1,20
 345 129 345 129 345 85 c 256,21,22
 345 41 345 41 315 10.5 c 128,-1,23
 285 -20 285 -20 240 -20 c 0,12,13
720 -20 m 0,24,25
 676 -20 676 -20 645.5 10.5 c 128,-1,26
 615 41 615 41 615 85 c 256,27,28
 615 129 615 129 645.5 159.5 c 128,-1,29
 676 190 676 190 720 190 c 0,30,31
 765 190 765 190 795 159.5 c 128,-1,32
 825 129 825 129 825 85 c 256,33,34
 825 41 825 41 795 10.5 c 128,-1,35
 765 -20 765 -20 720 -20 c 0,24,25
EndSplineSet
EndChar

StartChar: exclam
Encoding: 33 33 581
Width: 480
GlyphClass: 1
Flags: W
LayerCount: 2
Fore
SplineSet
174 330 m 1,0,-1
 138 900 l 1,1,-1
 342 900 l 1,2,-1
 306 330 l 1,3,-1
 174 330 l 1,0,-1
240 -20 m 256,4,5
 196 -20 196 -20 165.5 10.5 c 128,-1,6
 135 41 135 41 135 85 c 256,7,8
 135 129 135 129 165.5 159.5 c 128,-1,9
 196 190 196 190 240 190 c 256,10,11
 284 190 284 190 314.5 159.5 c 128,-1,12
 345 129 345 129 345 85 c 256,13,14
 345 41 345 41 314.5 10.5 c 128,-1,15
 284 -20 284 -20 240 -20 c 256,4,5
EndSplineSet
EndChar

StartChar: exclamdown
Encoding: 161 161 582
Width: 480
GlyphClass: 1
Flags: W
LayerCount: 2
Fore
SplineSet
138 -300 m 1,0,-1
 174 270 l 1,1,-1
 306 270 l 1,2,-1
 342 -300 l 1,3,-1
 138 -300 l 1,0,-1
240 410 m 256,4,5
 196 410 196 410 165.5 440.5 c 128,-1,6
 135 471 135 471 135 515 c 256,7,8
 135 559 135 559 165.5 589.5 c 128,-1,9
 196 620 196 620 240 620 c 256,10,11
 284 620 284 620 314.5 589.5 c 128,-1,12
 345 559 345 559 345 515 c 256,13,14
 345 471 345 471 314.5 440.5 c 128,-1,15
 284 410 284 410 240 410 c 256,4,5
EndSplineSet
EndChar

StartChar: question
Encoding: 63 63 583
Width: 480
GlyphClass: 1
Flags: W
LayerCount: 2
Fore
SplineSet
63 857 m 5,0,1
 98 883 98 883 139.5 900.5 c 128,-1,2
 181 918 181 918 230 918 c 0,3,4
 301 918 301 918 353 890 c 128,-1,5
 405 862 405 862 433.5 813 c 128,-1,6
 462 764 462 764 462 700 c 0,7,8
 462 640 462 640 441 593.5 c 128,-1,9
 420 547 420 547 391 507 c 128,-1,10
 362 467 362 467 337.5 425 c 128,-1,11
 313 383 313 383 306 330 c 1,12,-1
 174 330 l 1,13,14
 174 403 174 403 193 453 c 128,-1,15
 212 503 212 503 237 540.5 c 128,-1,16
 262 578 262 578 281 611 c 128,-1,17
 300 644 300 644 300 681 c 0,18,19
 300 722 300 722 273.5 742 c 128,-1,20
 247 762 247 762 204 762 c 0,21,22
 178 762 178 762 146 747.724609375 c 0,23,24
 146 747.724609375 146 747.724609375 63 857 c 5,0,1
240 -20 m 256,25,26
 196 -20 196 -20 165.5 10.5 c 128,-1,27
 135 41 135 41 135 85 c 256,28,29
 135 129 135 129 165.5 159.5 c 128,-1,30
 196 190 196 190 240 190 c 256,31,32
 284 190 284 190 314.5 159.5 c 128,-1,33
 345 129 345 129 345 85 c 256,34,35
 345 41 345 41 314.5 10.5 c 128,-1,36
 284 -20 284 -20 240 -20 c 256,25,26
EndSplineSet
EndChar

StartChar: questiondown
Encoding: 191 191 584
Width: 480
GlyphClass: 1
Flags: W
LayerCount: 2
Fore
SplineSet
250 -320 m 0,0,1
 180 -320 180 -320 127.5 -292 c 128,-1,2
 75 -264 75 -264 46.5 -215 c 128,-1,3
 18 -166 18 -166 18 -102 c 0,4,5
 18 -42 18 -42 39 4.5 c 128,-1,6
 60 51 60 51 89 91 c 128,-1,7
 118 131 118 131 142.5 173.5 c 128,-1,8
 167 216 167 216 174 268 c 1,9,-1
 306 268 l 1,10,11
 306 195 306 195 287 145 c 128,-1,12
 268 95 268 95 243 57.5 c 128,-1,13
 218 20 218 20 199 -12.5 c 128,-1,14
 180 -45 180 -45 180 -83 c 0,15,16
 180 -123 180 -123 206.5 -143.5 c 128,-1,17
 233 -164 233 -164 276 -164 c 0,18,19
 323 -164 323 -164 357.5 -140.5 c 128,-1,20
 392 -117 392 -117 414 -92 c 1,21,-1
 414 -266 l 1,22,23
 380 -291 380 -291 339.5 -305.5 c 128,-1,24
 299 -320 299 -320 250 -320 c 0,0,1
240 408 m 256,25,26
 196 408 196 408 165.5 438.5 c 128,-1,27
 135 469 135 469 135 513 c 256,28,29
 135 557 135 557 165.5 587.5 c 128,-1,30
 196 618 196 618 240 618 c 256,31,32
 284 618 284 618 314.5 587.5 c 128,-1,33
 345 557 345 557 345 513 c 256,34,35
 345 469 345 469 314.5 438.5 c 128,-1,36
 284 408 284 408 240 408 c 256,25,26
EndSplineSet
EndChar

StartChar: bullet
Encoding: 8226 8226 586
Width: 480
GlyphClass: 1
Flags: W
LayerCount: 2
Fore
SplineSet
240 294 m 0,0,1
 176 294 176 294 130 340 c 128,-1,2
 84 386 84 386 84 450 c 0,3,4
 84 515 84 515 130 560.5 c 128,-1,5
 176 606 176 606 240 606 c 0,6,7
 305 606 305 606 350.5 560.5 c 128,-1,8
 396 515 396 515 396 450 c 0,9,10
 396 386 396 386 350.5 340 c 128,-1,11
 305 294 305 294 240 294 c 0,0,1
EndSplineSet
EndChar

StartChar: asterisk
Encoding: 42 42 587
Width: 600
GlyphClass: 1
Flags: W
LayerCount: 2
Fore
SplineSet
208 393 m 1,0,-1
 93 478 l 1,1,-1
 216 615 l 1,2,-1
 35 653 l 1,3,-1
 80 790 l 1,4,-1
 248 715 l 1,5,-1
 228 900 l 1,6,-1
 372 900 l 1,7,-1
 353 715 l 1,8,-1
 521 790 l 1,9,-1
 566 653 l 1,10,-1
 384 615 l 1,11,-1
 507 478 l 1,12,-1
 392 393 l 1,13,-1
 300 552 l 1,14,-1
 208 393 l 1,0,-1
EndSplineSet
EndChar

StartChar: uni2016
Encoding: 8214 8214 589
Width: 480
GlyphClass: 1
Flags: W
LayerCount: 2
Fore
SplineSet
303 -180 m 1,0,-1
 303 960 l 1,1,-1
 417 960 l 1,2,-1
 417 -180 l 1,3,-1
 303 -180 l 1,0,-1
63 -180 m 1,4,-1
 63 960 l 1,5,-1
 177 960 l 1,6,-1
 177 -180 l 1,7,-1
 63 -180 l 1,4,-1
EndSplineSet
EndChar

StartChar: numbersign
Encoding: 35 35 590
Width: 750
GlyphClass: 1
Flags: W
LayerCount: 2
Fore
SplineSet
76 0 m 1,0,-1
 111 210 l 1,1,-1
 13 210 l 1,2,-1
 35 342 l 1,3,-1
 133 342 l 1,4,-1
 169 558 l 1,5,-1
 67 558 l 1,6,-1
 89 690 l 1,7,-1
 191 690 l 1,8,-1
 226 900 l 1,9,-1
 370 900 l 1,10,-1
 335 690 l 1,11,-1
 493 690 l 1,12,-1
 528 900 l 1,13,-1
 672 900 l 1,14,-1
 637 690 l 1,15,-1
 737 690 l 1,16,-1
 715 558 l 1,17,-1
 615 558 l 1,18,-1
 579 342 l 1,19,-1
 683 342 l 1,20,-1
 661 210 l 1,21,-1
 557 210 l 1,22,-1
 522 0 l 1,23,-1
 378 0 l 1,24,-1
 413 210 l 1,25,-1
 255 210 l 1,26,-1
 220 0 l 1,27,-1
 76 0 l 1,0,-1
268 334 m 1,28,-1
 442 334 l 1,29,-1
 480 566 l 1,30,-1
 306 566 l 1,31,-1
 268 334 l 1,28,-1
EndSplineSet
EndChar

StartChar: slash
Encoding: 47 47 591
Width: 520
GlyphClass: 1
Flags: W
LayerCount: 2
Fore
SplineSet
-80 -180 m 1,0,-1
 447 960 l 1,1,-1
 600 960 l 1,2,-1
 73 -180 l 1,3,-1
 -80 -180 l 1,0,-1
EndSplineSet
Substitution2: "'frac' Diagonal Fractions in Latin lookup 22 subtable" fraction
Substitution2: "'aalt' Access All Alternates in Latin lookup 0 subtable" fraction
EndChar

StartChar: backslash
Encoding: 92 92 592
Width: 520
GlyphClass: 1
Flags: W
LayerCount: 2
Fore
SplineSet
447 -180 m 1,0,-1
 -80 960 l 1,1,-1
 74 960 l 1,2,-1
 600 -180 l 1,3,-1
 447 -180 l 1,0,-1
EndSplineSet
EndChar

StartChar: periodcentered.loclCAT
Encoding: 65647 -1 595
Width: 360
GlyphClass: 1
Flags: W
LayerCount: 2
Fore
SplineSet
180 357 m 0,0,1
 141 357 141 357 114 384 c 128,-1,2
 87 411 87 411 87 450 c 0,3,4
 87 490 87 490 114 516.5 c 128,-1,5
 141 543 141 543 180 543 c 0,6,7
 220 543 220 543 246.5 516.5 c 128,-1,8
 273 490 273 490 273 450 c 0,9,10
 273 411 273 411 246.5 384 c 128,-1,11
 220 357 220 357 180 357 c 0,0,1
EndSplineSet
Substitution2: "'case' Case-Sensitive Forms in Latin lookup 33 subtable" periodcentered.loclCAT.case
Substitution2: "'aalt' Access All Alternates in Latin lookup 0 subtable" periodcentered.loclCAT.case
EndChar

StartChar: periodcentered.loclCAT.case
Encoding: 65648 -1 596
Width: 360
GlyphClass: 1
Flags: W
LayerCount: 2
Fore
SplineSet
180 357 m 0,0,1
 141 357 141 357 114 384 c 128,-1,2
 87 411 87 411 87 450 c 0,3,4
 87 490 87 490 114 516.5 c 128,-1,5
 141 543 141 543 180 543 c 0,6,7
 220 543 220 543 246.5 516.5 c 128,-1,8
 273 490 273 490 273 450 c 0,9,10
 273 411 273 411 246.5 384 c 128,-1,11
 220 357 220 357 180 357 c 0,0,1
EndSplineSet
EndChar

StartChar: hyphen
Encoding: 45 45 597
Width: 380
GlyphClass: 1
Flags: W
LayerCount: 2
Fore
SplineSet
30 228 m 1,0,-1
 30 372 l 1,1,-1
 350 372 l 1,2,-1
 350 228 l 1,3,-1
 30 228 l 1,0,-1
EndSplineSet
Substitution2: "Single Substitution lookup 38 subtable" hyphen.case
Substitution2: "'case' Case-Sensitive Forms in Latin lookup 33 subtable" hyphen.case
Substitution2: "'frac' Diagonal Fractions in Latin lookup 22 subtable" minus.numr
Substitution2: "'dnom' Denominators in Latin lookup 21 subtable" minus.dnom
Substitution2: "'numr' Numerators in Latin lookup 20 subtable" minus.numr
Substitution2: "'sups' Superscript in Latin lookup 19 subtable" minus.superior
Substitution2: "'sinf' Scientific Inferiors in Latin lookup 18 subtable" minus.inferior
Substitution2: "'subs' Subscript in Latin lookup 17 subtable" minus.inferior
AlternateSubs2: "'aalt' Access All Alternates in Latin lookup 1 subtable" hyphen.case minus.dnom minus.numr minus.inferior minus.superior
EndChar

